<?xml version="1.0" encoding="utf-8"?>
<!-- Generator: Adobe Illustrator 16.0.0, SVG Export Plug-In . SVG Version: 6.00 Build 0)  -->
<!DOCTYPE svg PUBLIC "-//W3C//DTD SVG 1.1//EN" "http://www.w3.org/Graphics/SVG/1.1/DTD/svg11.dtd">
<svg version="1.1"
	 id="Layer_1" xmlns:inkscape="http://www.inkscape.org/namespaces/inkscape" xmlns:sodipodi="http://sodipodi.sourceforge.net/DTD/sodipodi-0.dtd" xmlns:svg="http://www.w3.org/2000/svg" xmlns:rdf="http://www.w3.org/1999/02/22-rdf-syntax-ns#" xmlns:dc="http://purl.org/dc/elements/1.1/" xmlns:cc="http://creativecommons.org/ns#" inkscape:version="0.48.2 r9819" sodipodi:docname="control.svg"
	 xmlns="http://www.w3.org/2000/svg" xmlns:xlink="http://www.w3.org/1999/xlink" x="0px" y="0px" width="916px" height="130px"
	 viewBox="0 0 916 130" enable-background="new 0 0 916 130" xml:space="preserve">
<sodipodi:namedview  guidetolerance="10" gridtolerance="10" objecttolerance="10" borderopacity="1" inkscape:cy="59.354467" inkscape:cx="249.95821" inkscape:zoom="5.6568543" bordercolor="#666666" showgrid="false" pagecolor="#ffffff" id="namedview585" inkscape:current-layer="Layer_1" inkscape:window-x="-8" inkscape:window-maximized="1" inkscape:window-height="1018" inkscape:window-y="-8" inkscape:window-width="1920" inkscape:pageshadow="2" inkscape:pageopacity="0">
	</sodipodi:namedview>
<line id="line6460" fill="none" stroke="#231F20" stroke-width="4" stroke-miterlimit="10" x1="176.182" y1="36.229" x2="434.332" y2="36.229"/>
<line id="line6462" fill="none" stroke="#231F20" stroke-width="4" stroke-miterlimit="10" x1="176.182" y1="50.442" x2="434.332" y2="50.442"/>
<line id="line6462_1_" fill="none" stroke="#231F20" stroke-width="4" stroke-miterlimit="10" x1="176.182" y1="103.563" x2="297.5" y2="103.563"/>
<g id="g6464">
	<g id="g6466">
		<path id="path6468" fill="#FFFFFF" d="M874.816,102.074c0.01,0.281,0.067,1.835,2.032,1.835c0.595,0,1.768-0.229,1.768-1.413
			c0-0.793-0.581-1.023-1.345-1.174l-0.644-0.131c-1.594-0.32-2.486-0.832-2.486-2.017c0-0.562,0.251-1.03,0.675-1.384
			c0.682-0.563,1.491-0.581,1.835-0.581c0.699,0,1.384,0.09,1.952,0.531c0.622,0.471,0.782,0.979,0.901,1.646l-0.952,0.061
			c0-0.401-0.22-1.506-1.823-1.506c-0.673,0-1.612,0.242-1.612,1.113c0,0.682,0.608,0.922,1.414,1.111l1.293,0.313
			c0.33,0.08,1.805,0.399,1.805,1.955c0,0.279-0.041,0.912-0.592,1.453c-0.393,0.381-1.033,0.762-2.236,0.762
			c-0.229,0-1.189-0.01-1.934-0.489c-0.943-0.611-1.033-1.654-1.063-1.955L874.816,102.074z"/>
		<path id="path6470" fill="#FFFFFF" d="M886.486,104.471l-0.771-2.166h-2.697l-0.792,2.166h-1.003l2.697-7.078h0.982l2.575,7.078
			H886.486z M884.401,98.557l-1.083,2.957h2.112L884.401,98.557z"/>
		<path id="path6472" fill="#FFFFFF" d="M891.63,104.471h-0.933l-2.396-7.078h1.003l1.874,5.916l1.944-5.916h1.004L891.63,104.471z"
			/>
		<path id="path6474" fill="#FFFFFF" d="M896.041,104.471v-7.078h4.873v0.832h-3.971v2.188h3.446v0.819h-3.446v2.416h4.091v0.822
			H896.041z"/>
	</g>
	<g id="g6476">
		<circle id="circle6478" fill="#F05823" cx="887.871" cy="101.361" r="20.131"/>
	</g>
	<g id="g6480">
		<g id="g6482">
			<path id="path6484" fill="#FFFFFF" d="M877.75,99.508c-0.512-0.531-1.094-0.882-1.854-0.882c-0.722,0-1.054,0.421-1.054,0.752
				c0,0.381,0.302,0.562,0.902,0.651l0.782,0.109c1.845,0.262,2.604,0.82,2.604,2.033c0,1.493-1.19,2.469-3.218,2.469
				c-1.654,0-2.507-0.595-3.229-1.437l1.346-0.854c0.472,0.571,1.281,0.896,2.045,0.896c0.521,0,1.304-0.229,1.304-0.822
				c0-0.502-0.602-0.644-1.233-0.723l-0.812-0.109c-1.244-0.171-2.256-0.752-2.256-1.993c0-1.396,1.032-2.365,2.854-2.365
				c1.493,0,2.429,0.682,3.117,1.344L877.75,99.508z"/>
			<path id="path6486" fill="#FFFFFF" d="M885.68,104.48l-0.351-1.133h-2.606l-0.352,1.133h-1.885l2.627-7.078h1.845l2.605,7.078
				H885.68z M884.006,99.087l-0.872,2.987h1.794L884.006,99.087z"/>
			<path id="path6488" fill="#FFFFFF" d="M892.197,104.48h-1.808l-2.426-7.078h1.885l1.466,5.033l1.451-5.033h1.888L892.197,104.48z
				"/>
			<path id="path6490" fill="#FFFFFF" d="M896.348,97.402h5.232v1.373h-3.468v1.283h3.234v1.344h-3.234v1.685h3.776v1.394h-5.544
				L896.348,97.402L896.348,97.402z"/>
		</g>
	</g>
</g>
<g id="g6492">
	<path id="path6494" fill="#231F20" d="M450.354,4.592c1.676,0,2.558,0.792,2.558,2.416c0,1.794-1.574,2.346-2.857,2.346h-1.434
		v2.316h-1.774V4.592H450.354z M448.619,8.041h1.163c0.802,0,1.36-0.19,1.36-1.113c0-1.021-0.842-1.033-1.393-1.033h-1.133
		L448.619,8.041L448.619,8.041z"/>
	<path id="path6496" fill="#231F20" d="M458.093,4.592c1.055,0,2.717,0.271,2.717,2.296c0,1.203-0.682,1.684-1.451,1.955
		l1.634,2.827h-1.945l-1.413-2.526h-1.103v2.526h-1.784V4.592H458.093z M456.52,7.83h1.466c1.013,0,1.062-0.762,1.062-0.983
		c0-0.922-0.741-0.942-1.052-0.942h-1.477L456.52,7.83L456.52,7.83z"/>
	<path id="path6498" fill="#231F20" d="M466.305,4.371c2.576,0,3.589,2.125,3.589,3.81c0,1.895-1.294,3.699-3.566,3.699
		c-2.336,0-3.521-1.834-3.521-3.779C462.806,6.486,463.748,4.371,466.305,4.371z M466.334,10.376c1.314,0,1.785-1.223,1.785-2.215
		c0-1.283-0.563-2.306-1.814-2.306c-1.344,0-1.754,1.273-1.754,2.226C464.551,9.213,465.063,10.376,466.334,10.376z"/>
	<path id="path6500" fill="#231F20" d="M475.508,4.592c1.674,0,2.56,0.792,2.56,2.416c0,1.794-1.574,2.346-2.857,2.346h-1.434v2.316
		H472V4.592H475.508z M473.773,8.041h1.16c0.805,0,1.364-0.19,1.364-1.113c0-1.021-0.843-1.033-1.395-1.033h-1.133L473.773,8.041
		L473.773,8.041z"/>
	<path id="path6502" fill="#231F20" d="M483.358,4.371c2.573,0,3.589,2.125,3.589,3.81c0,1.895-1.293,3.699-3.568,3.699
		c-2.336,0-3.52-1.834-3.52-3.779C479.859,6.486,480.802,4.371,483.358,4.371z M483.389,10.376c1.313,0,1.784-1.223,1.784-2.215
		c0-1.283-0.562-2.306-1.813-2.306c-1.346,0-1.758,1.273-1.758,2.226C481.604,9.213,482.115,10.376,483.389,10.376z"/>
	<path id="path6504" fill="#231F20" d="M492.402,4.592c1.053,0,2.717,0.271,2.717,2.296c0,1.203-0.683,1.684-1.454,1.955
		l1.634,2.827h-1.944l-1.41-2.526h-1.104v2.526h-1.784V4.592H492.402z M490.828,7.83h1.463c1.014,0,1.063-0.762,1.063-0.983
		c0-0.922-0.739-0.942-1.053-0.942h-1.474V7.83z"/>
	<path id="path6506" fill="#231F20" d="M500.182,5.985v5.684h-1.782V5.985h-1.847V4.592h5.463v1.394L500.182,5.985L500.182,5.985z"
		/>
	<path id="path6508" fill="#231F20" d="M503.791,11.669V4.592h1.765v7.078L503.791,11.669L503.791,11.669z"/>
	<path id="path6510" fill="#231F20" d="M511.391,4.371c2.576,0,3.592,2.125,3.592,3.81c0,1.895-1.297,3.699-3.569,3.699
		c-2.336,0-3.521-1.834-3.521-3.779C507.892,6.486,508.834,4.371,511.391,4.371z M511.42,10.376c1.314,0,1.785-1.223,1.785-2.215
		c0-1.283-0.563-2.306-1.814-2.306c-1.344,0-1.754,1.273-1.754,2.226C509.637,9.213,510.147,10.376,511.42,10.376z"/>
	<path id="path6512" fill="#231F20" d="M521.297,11.669l-2.507-4.23v4.23h-1.704V4.592h1.734l2.516,4.311V4.592h1.695v7.078
		L521.297,11.669L521.297,11.669z"/>
	<path id="path6514" fill="#231F20" d="M530.299,6.697c-0.511-0.531-1.092-0.882-1.854-0.882c-0.726,0-1.056,0.421-1.056,0.752
		c0,0.381,0.304,0.561,0.902,0.651l0.781,0.11c1.845,0.261,2.604,0.822,2.604,2.035c0,1.494-1.189,2.466-3.218,2.466
		c-1.654,0-2.506-0.591-3.229-1.433l1.345-0.853c0.471,0.572,1.283,0.893,2.045,0.893c0.521,0,1.303-0.231,1.303-0.822
		c0-0.501-0.601-0.642-1.229-0.722l-0.813-0.11c-1.242-0.17-2.256-0.752-2.256-1.995c0-1.394,1.033-2.366,2.856-2.366
		c1.492,0,2.427,0.682,3.116,1.343L530.299,6.697z"/>
</g>
<g id="g6592">
	<g id="g6594">
		<path id="path6596" fill="#231F20" d="M793.504,4.371c2.576,0,3.59,2.125,3.59,3.81c0,1.895-1.294,3.699-3.566,3.699
			c-2.336,0-3.521-1.834-3.521-3.779C790.006,6.486,790.947,4.371,793.504,4.371z M793.534,10.376c1.313,0,1.784-1.223,1.784-2.215
			c0-1.283-0.563-2.306-1.814-2.306c-1.343,0-1.754,1.273-1.754,2.226C791.75,9.213,792.262,10.376,793.534,10.376z"/>
		<path id="path6598" fill="#231F20" d="M802.708,4.592c1.674,0,2.556,0.792,2.556,2.416c0,1.794-1.57,2.346-2.854,2.346h-1.437
			v2.316H799.2V4.592H802.708z M800.974,8.041h1.163c0.805,0,1.363-0.19,1.363-1.113c0-1.021-0.842-1.033-1.394-1.033h-1.136
			L800.974,8.041L800.974,8.041z"/>
		<path id="path6600" fill="#231F20" d="M810.127,5.985v5.684h-1.785V5.985h-1.844V4.592h5.463v1.394L810.127,5.985L810.127,5.985z"
			/>
		<path id="path6602" fill="#231F20" d="M813.736,11.669V4.592h1.765v7.078L813.736,11.669L813.736,11.669z"/>
		<path id="path6604" fill="#231F20" d="M821.336,4.371c2.576,0,3.589,2.125,3.589,3.81c0,1.895-1.294,3.699-3.566,3.699
			c-2.339,0-3.521-1.834-3.521-3.779C817.837,6.486,818.779,4.371,821.336,4.371z M821.365,10.376c1.313,0,1.785-1.223,1.785-2.215
			c0-1.283-0.563-2.306-1.814-2.306c-1.344,0-1.754,1.273-1.754,2.226C819.582,9.213,820.093,10.376,821.365,10.376z"/>
		<path id="path6606" fill="#231F20" d="M831.242,11.669l-2.507-4.23v4.23h-1.704V4.592h1.731l2.519,4.311V4.592h1.692v7.078
			L831.242,11.669L831.242,11.669z"/>
		<path id="path6608" fill="#231F20" d="M840.244,6.697c-0.511-0.531-1.092-0.882-1.854-0.882c-0.723,0-1.053,0.421-1.053,0.752
			c0,0.381,0.301,0.561,0.902,0.651l0.779,0.11c1.847,0.261,2.605,0.822,2.605,2.035c0,1.494-1.192,2.466-3.218,2.466
			c-1.654,0-2.506-0.591-3.229-1.433l1.347-0.853c0.471,0.572,1.28,0.893,2.045,0.893c0.521,0,1.303-0.231,1.303-0.822
			c0-0.501-0.604-0.642-1.232-0.722l-0.813-0.11c-1.242-0.17-2.256-0.752-2.256-1.995c0-1.394,1.032-2.366,2.854-2.366
			c1.494,0,2.428,0.682,3.118,1.343L840.244,6.697z"/>
	</g>
</g>
<g id="g6746">
	<path id="path6748" fill="#231F20" d="M131.855,4.592h2.426c2.737,0,3.91,1.213,3.91,3.539c0,1.685-0.731,3.539-3.549,3.539h-2.787
		V4.592z M133.639,10.246h0.571c1.524,0,2.206-0.532,2.206-2.136c0-1.103-0.361-2.025-1.905-2.025h-0.872V10.246z"/>
	<path id="path6750" fill="#231F20" d="M140.587,11.669V4.592h1.764v7.078L140.587,11.669L140.587,11.669z"/>
	<path id="path6752" fill="#231F20" d="M151.274,11.669c0,0,0-3.91,0.04-5.293l-1.474,5.293h-1.534l-1.464-5.293
		c0.03,0.992,0.041,5.293,0.041,5.293h-1.725V4.592h2.586l1.333,4.952l1.313-4.952h2.586v7.078L151.274,11.669L151.274,11.669z"/>
	<path id="path6754" fill="#231F20" d="M155.776,4.592h5.233v1.374h-3.468v1.283h3.238v1.343h-3.238v1.684h3.779v1.394h-5.544V4.592
		z"/>
	<path id="path6756" fill="#231F20" d="M167.877,11.669l-2.506-4.23v4.23h-1.704V4.592h1.734l2.517,4.311V4.592h1.694v7.078
		L167.877,11.669L167.877,11.669z"/>
	<path id="path6758" fill="#231F20" d="M176.88,6.697c-0.511-0.531-1.093-0.882-1.854-0.882c-0.722,0-1.053,0.421-1.053,0.752
		c0,0.381,0.301,0.561,0.902,0.651l0.782,0.11c1.845,0.261,2.606,0.822,2.606,2.035c0,1.494-1.193,2.466-3.218,2.466
		c-1.654,0-2.506-0.591-3.228-1.433l1.343-0.853c0.471,0.572,1.283,0.893,2.045,0.893c0.521,0,1.303-0.231,1.303-0.822
		c0-0.501-0.601-0.642-1.233-0.722l-0.812-0.11c-1.243-0.17-2.256-0.752-2.256-1.995c0-1.394,1.033-2.366,2.857-2.366
		c1.494,0,2.426,0.682,3.118,1.343L176.88,6.697z"/>
	<path id="path6760" fill="#231F20" d="M180.721,11.669V4.592h1.764v7.078L180.721,11.669L180.721,11.669z"/>
	<path id="path6762" fill="#231F20" d="M188.32,4.371c2.576,0,3.589,2.125,3.589,3.81c0,1.895-1.293,3.699-3.569,3.699
		c-2.336,0-3.519-1.834-3.519-3.779C184.821,6.486,185.763,4.371,188.32,4.371z M188.35,10.376c1.313,0,1.785-1.223,1.785-2.215
		c0-1.283-0.562-2.306-1.814-2.306c-1.343,0-1.754,1.273-1.754,2.226C186.565,9.213,187.077,10.376,188.35,10.376z"/>
	<path id="path6764" fill="#231F20" d="M198.225,11.669l-2.506-4.23v4.23h-1.704V4.592h1.734l2.517,4.311V4.592h1.694v7.078
		L198.225,11.669L198.225,11.669z"/>
	<path id="path6766" fill="#231F20" d="M207.228,6.697c-0.511-0.531-1.093-0.882-1.854-0.882c-0.722,0-1.053,0.421-1.053,0.752
		c0,0.381,0.301,0.561,0.902,0.651l0.782,0.11c1.845,0.261,2.606,0.822,2.606,2.035c0,1.494-1.193,2.466-3.218,2.466
		c-1.654,0-2.506-0.591-3.228-1.433l1.343-0.853c0.471,0.572,1.283,0.893,2.045,0.893c0.521,0,1.303-0.231,1.303-0.822
		c0-0.501-0.601-0.642-1.233-0.722l-0.812-0.11c-1.243-0.17-2.256-0.752-2.256-1.995c0-1.394,1.033-2.366,2.857-2.366
		c1.494,0,2.426,0.682,3.118,1.343L207.228,6.697z"/>
</g>
<path id="path240" fill="#231F20" d="M559.576,10.496c-0.563,0.983-1.574,1.825-3.048,1.825c-1.874,0-3.391-1.363-3.391-3.759
	c0-2.095,1.424-3.75,3.431-3.75c1.303,0,2.483,0.772,2.985,1.834l-1.401,0.702c-0.15-0.532-0.781-1.083-1.504-1.083
	c-1.146,0-1.744,1.063-1.744,2.246c0,1.554,0.792,2.326,1.744,2.326c0.923,0,1.293-0.642,1.531-1.053L559.576,10.496z"/>
<path id="path242" fill="#231F20" d="M564.71,4.812c2.576,0,3.589,2.125,3.589,3.81c0,1.895-1.293,3.699-3.565,3.699
	c-2.338,0-3.521-1.834-3.521-3.779C561.211,6.927,562.153,4.812,564.71,4.812z M564.74,10.816c1.313,0,1.784-1.223,1.784-2.215
	c0-1.283-0.563-2.306-1.814-2.306c-1.343,0-1.755,1.273-1.755,2.226C562.955,9.654,563.467,10.816,564.74,10.816z"/>
<path id="path244" fill="#231F20" d="M574.615,12.11l-2.506-4.23v4.23h-1.705V5.032h1.731l2.52,4.311V5.032h1.691v7.078H574.615z"/>
<path id="path246" fill="#231F20" d="M579.137,5.032h2.429c2.734,0,3.907,1.213,3.907,3.539c0,1.685-0.729,3.539-3.549,3.539h-2.787
	V5.032z M580.922,10.687h0.57c1.521,0,2.206-0.532,2.206-2.136c0-1.103-0.36-2.025-1.905-2.025h-0.871V10.687z"/>
<path id="path248" fill="#231F20" d="M587.869,12.11V5.032h1.765v7.078H587.869z"/>
<path id="path250" fill="#231F20" d="M595.037,6.426v5.684h-1.784V6.426h-1.845V5.032h5.464v1.394H595.037z"/>
<path id="path252" fill="#231F20" d="M598.646,12.11V5.032h1.767v7.078H598.646z"/>
<path id="path254" fill="#231F20" d="M606.246,4.812c2.576,0,3.59,2.125,3.59,3.81c0,1.895-1.294,3.699-3.569,3.699
	c-2.336,0-3.519-1.834-3.519-3.779C602.748,6.927,603.689,4.812,606.246,4.812z M606.276,10.816c1.313,0,1.781-1.223,1.781-2.215
	c0-1.283-0.561-2.306-1.813-2.306c-1.343,0-1.754,1.273-1.754,2.226C604.492,9.654,605.004,10.816,606.276,10.816z"/>
<path id="path256" fill="#231F20" d="M616.152,12.11l-2.507-4.23v4.23h-1.704V5.032h1.731l2.52,4.311V5.032h1.691v7.078H616.152z"/>
<path id="path258" fill="#231F20" d="M625.155,7.138c-0.512-0.532-1.094-0.882-1.854-0.882c-0.722,0-1.053,0.421-1.053,0.752
	c0,0.381,0.301,0.561,0.902,0.651l0.778,0.11c1.849,0.261,2.607,0.822,2.607,2.035c0,1.494-1.193,2.466-3.219,2.466
	c-1.654,0-2.506-0.592-3.229-1.434l1.343-0.853c0.475,0.572,1.283,0.893,2.045,0.893c0.521,0,1.307-0.231,1.307-0.822
	c0-0.501-0.604-0.642-1.233-0.722l-0.812-0.11c-1.243-0.17-2.255-0.752-2.255-1.995c0-1.394,1.028-2.366,2.854-2.366
	c1.493,0,2.426,0.682,3.118,1.343L625.155,7.138z"/>
<line fill="none" stroke="#231F20" stroke-width="4" stroke-miterlimit="10" x1="618.435" y1="61.57" x2="761.938" y2="61.57"/>
<g>
	<path fill="#231F20" d="M179.716,96.327V93.92h-2.063v2.407h-1.423v-5.646h1.423v2.039h2.063v-2.039h1.415v5.646H179.716z"/>
	<path fill="#231F20" d="M183.366,90.682h4.173v1.096h-2.766v1.023h2.583v1.072h-2.583v1.343h3.014v1.111h-4.421V90.682
		L183.366,90.682z"/>
	<path fill="#231F20" d="M189.662,96.327v-5.646h1.407v5.646H189.662z"/>
	<path fill="#231F20" d="M197.115,92.441c-0.2-0.408-0.672-0.801-1.319-0.801c-0.903,0-1.471,0.672-1.471,1.823
		c0,0.672,0.2,1.854,1.479,1.854c0.512,0,1.184-0.248,1.231-1.057h-1.263v-1.07h2.455v3.135h-1.104v-0.52
		c-0.688,0.623-1.343,0.646-1.663,0.646c-1.751,0-2.542-1.52-2.542-2.95c0-1.343,0.784-3.015,2.782-3.015
		c1.496,0,2.247,1,2.487,1.303L197.115,92.441z"/>
	<path fill="#231F20" d="M203.764,96.327V93.92h-2.063v2.407h-1.423v-5.646h1.423v2.039h2.063v-2.039h1.415v5.646H203.764z"/>
	<path fill="#231F20" d="M209.484,91.793v4.534h-1.423v-4.534h-1.471v-1.111h4.357v1.111H209.484z"/>
</g>
<g>
	<path fill="#231F20" d="M473.51,33.125v1.088h-2.927v1.184h2.694v1.096h-2.694v2.278h-1.407v-5.646H473.51z"/>
	<path fill="#231F20" d="M477.646,33.125c0.841,0,2.166,0.217,2.166,1.832c0,0.959-0.543,1.343-1.157,1.559l1.303,2.255h-1.551
		l-1.128-2.015h-0.88v2.015h-1.424v-5.646H477.646z M476.391,35.708h1.168c0.808,0,0.849-0.607,0.849-0.783
		c0-0.735-0.592-0.752-0.84-0.752h-1.177V35.708z"/>
	<path fill="#231F20" d="M481.783,33.125h4.174v1.096h-2.766v1.023h2.582v1.072h-2.582v1.343h3.014v1.111h-4.422V33.125
		L481.783,33.125z"/>
	<path fill="#231F20" d="M488.088,33.125h4.174v1.096h-2.768v1.023h2.584v1.072h-2.584v1.343h3.016v1.111h-4.422V33.125z"/>
</g>
<g>
	<path fill="#231F20" d="M469.184,57.717v-5.646h1.406v4.454h2.207v1.191L469.184,57.717L469.184,57.717z"/>
	<path fill="#231F20" d="M476.742,51.896c2.055,0,2.86,1.695,2.86,3.039c0,1.511-1.03,2.95-2.846,2.95
		c-1.863,0-2.807-1.464-2.807-3.015C473.951,53.583,474.703,51.896,476.742,51.896z M476.766,56.686
		c1.048,0,1.425-0.976,1.425-1.767c0-1.023-0.449-1.84-1.447-1.84c-1.072,0-1.4,1.016-1.4,1.775
		C475.342,55.758,475.75,56.686,476.766,56.686z"/>
	<path fill="#231F20" d="M486.195,56.43c-0.447,0.783-1.254,1.455-2.431,1.455c-1.496,0-2.703-1.087-2.703-2.999
		c0-1.67,1.138-2.99,2.734-2.99c1.041,0,1.984,0.616,2.383,1.464l-1.119,0.56c-0.118-0.424-0.622-0.863-1.198-0.863
		c-0.912,0-1.392,0.848-1.392,1.791c0,1.239,0.631,1.854,1.392,1.854c0.735,0,1.03-0.512,1.223-0.839L486.195,56.43z"/>
	<path fill="#231F20" d="M491.43,57.717l-1.504-2.559l-0.871,0.903v1.655h-1.344V52.07h1.344v2.303l2.109-2.303h1.703l-1.998,2.096
		l2.149,3.55L491.43,57.717L491.43,57.717z"/>
	<path fill="#231F20" d="M494.342,52.072h4.174v1.096h-2.766v1.023h2.582v1.072h-2.582v1.343h3.014v1.111h-4.422V52.072
		L494.342,52.072z"/>
	<path fill="#231F20" d="M500.639,52.072h1.937c2.182,0,3.117,0.969,3.117,2.823c0,1.343-0.582,2.822-2.83,2.822h-2.224V52.072
		L500.639,52.072z M502.063,56.582h0.454c1.216,0,1.761-0.424,1.761-1.703c0-0.879-0.289-1.615-1.521-1.615h-0.694V56.582z"/>
</g>
<g>
	<path fill="#231F20" d="M474.059,76.664c0,0,0-3.119,0.032-4.223l-1.175,4.223h-1.225l-1.167-4.223
		c0.023,0.791,0.031,4.223,0.031,4.223h-1.375v-5.646h2.063l1.063,3.951l1.049-3.951h2.063v5.646H474.059z"/>
	<path fill="#231F20" d="M480.068,70.842c2.055,0,2.86,1.695,2.86,3.039c0,1.512-1.03,2.951-2.846,2.951
		c-1.863,0-2.807-1.465-2.807-3.016C477.277,72.529,478.029,70.842,480.068,70.842z M480.092,75.633
		c1.047,0,1.423-0.977,1.423-1.768c0-1.023-0.446-1.84-1.445-1.84c-1.072,0-1.4,1.016-1.4,1.774
		C478.668,74.705,479.076,75.633,480.092,75.633z"/>
	<path fill="#231F20" d="M484.613,71.018h1.936c2.183,0,3.117,0.969,3.117,2.824c0,1.342-0.583,2.822-2.83,2.822h-2.223V71.018
		L484.613,71.018z M486.037,75.527h0.455c1.215,0,1.76-0.424,1.76-1.703c0-0.879-0.289-1.615-1.52-1.615h-0.695V75.527z"/>
	<path fill="#231F20" d="M496.362,74.432c0,1.416-0.903,2.359-2.432,2.359c-1.326,0-2.391-0.703-2.391-2.262v-3.512h1.424v3.67
		c0,0.752,0.383,0.936,1.017,0.936c0.719,0,0.967-0.359,0.967-1.006v-3.6h1.415V74.432L496.362,74.432z"/>
	<path fill="#231F20" d="M498.557,76.664v-5.646h1.407v4.455h2.207v1.191H498.557z"/>
	<path fill="#231F20" d="M507.283,76.664l-0.279-0.904h-2.08l-0.278,0.904h-1.504l2.096-5.646h1.471l2.079,5.646H507.283z
		 M505.947,72.361l-0.695,2.383h1.432L505.947,72.361z"/>
	<path fill="#231F20" d="M512.819,71.018c0.84,0,2.167,0.217,2.167,1.832c0,0.959-0.544,1.344-1.159,1.56l1.304,2.256h-1.552
		l-1.128-2.017h-0.879v2.017h-1.424V71.02h2.671V71.018z M511.564,73.602h1.167c0.808,0,0.848-0.606,0.848-0.783
		c0-0.735-0.592-0.752-0.839-0.752h-1.176V73.602L511.564,73.602z"/>
</g>
<g>
	<path fill="#231F20" d="M807.096,33.125c1.336,0,2.039,0.632,2.039,1.928c0,1.431-1.256,1.87-2.278,1.87h-1.144v1.848h-1.416
		v-5.646H807.096z M805.713,35.876h0.928c0.64,0,1.087-0.152,1.087-0.888c0-0.815-0.672-0.823-1.11-0.823h-0.903L805.713,35.876
		L805.713,35.876z"/>
	<path fill="#231F20" d="M810.609,33.125h4.174v1.096h-2.768v1.023h2.583v1.071h-2.583v1.344h3.016v1.111h-4.422V33.125z"/>
	<path fill="#231F20" d="M820.264,38.771l-1.999-3.374v3.374h-1.358v-5.646h1.384l2.006,3.438v-3.438h1.352v5.646H820.264z"/>
	<path fill="#231F20" d="M828.614,37.483c-0.448,0.783-1.255,1.455-2.432,1.455c-1.494,0-2.701-1.088-2.701-2.999
		c0-1.671,1.136-2.99,2.733-2.99c1.04,0,1.983,0.616,2.383,1.464l-1.12,0.56c-0.118-0.424-0.623-0.864-1.198-0.864
		c-0.911,0-1.392,0.848-1.392,1.791c0,1.24,0.631,1.855,1.392,1.855c0.735,0,1.03-0.512,1.224-0.84L828.614,37.483z"/>
	<path fill="#231F20" d="M830.121,38.771v-5.646h1.407v5.646H830.121z"/>
	<path fill="#231F20" d="M833.769,38.771v-5.646h1.407v4.454h2.207v1.191L833.769,38.771L833.769,38.771z"/>
	<path fill="#231F20" d="M846.941,37.483c-0.447,0.783-1.256,1.455-2.431,1.455c-1.496,0-2.703-1.088-2.703-2.999
		c0-1.671,1.137-2.99,2.734-2.99c1.04,0,1.983,0.616,2.383,1.464l-1.119,0.56c-0.12-0.424-0.623-0.864-1.198-0.864
		c-0.912,0-1.392,0.848-1.392,1.791c0,1.24,0.631,1.855,1.392,1.855c0.734,0,1.03-0.512,1.223-0.84L846.941,37.483z"/>
	<path fill="#231F20" d="M853.229,36.539c0,1.416-0.903,2.359-2.432,2.359c-1.326,0-2.391-0.704-2.391-2.263v-3.511h1.424v3.67
		c0,0.752,0.384,0.936,1.016,0.936c0.72,0,0.967-0.359,0.967-1.007v-3.599h1.416V36.539z"/>
	<path fill="#231F20" d="M858.215,33.125c1.336,0,2.039,0.632,2.039,1.928c0,1.431-1.256,1.87-2.279,1.87h-1.143v1.848h-1.416
		v-5.646H858.215z M856.832,35.876h0.928c0.64,0,1.087-0.152,1.087-0.888c0-0.815-0.672-0.823-1.11-0.823h-0.903L856.832,35.876
		L856.832,35.876z"/>
</g>
<g>
	<path fill="#231F20" d="M808.293,53.832c-0.2-0.407-0.672-0.8-1.319-0.8c-0.902,0-1.472,0.672-1.472,1.823
		c0,0.672,0.2,1.855,1.479,1.855c0.512,0,1.184-0.248,1.23-1.056h-1.264v-1.071h2.455v3.134h-1.104v-0.52
		c-0.688,0.624-1.344,0.647-1.663,0.647c-1.751,0-2.542-1.519-2.542-2.95c0-1.343,0.783-3.015,2.782-3.015
		c1.495,0,2.247,1,2.486,1.304L808.293,53.832z"/>
	<path fill="#231F20" d="M814.117,52.073c0.84,0,2.167,0.216,2.167,1.831c0,0.959-0.544,1.343-1.159,1.559l1.303,2.255h-1.551
		l-1.127-2.015h-0.88v2.015h-1.423v-5.645H814.117z M812.862,54.655h1.167c0.808,0,0.848-0.607,0.848-0.783
		c0-0.735-0.592-0.752-0.84-0.752h-1.175V54.655z"/>
	<path fill="#231F20" d="M820.67,51.897c2.055,0,2.862,1.694,2.862,3.038c0,1.511-1.031,2.95-2.848,2.95
		c-1.862,0-2.807-1.463-2.807-3.015C817.879,53.584,818.631,51.897,820.67,51.897z M820.693,56.687c1.048,0,1.424-0.976,1.424-1.767
		c0-1.023-0.448-1.84-1.447-1.84c-1.072,0-1.399,1.016-1.399,1.775C819.271,55.759,819.678,56.687,820.693,56.687z"/>
	<path fill="#231F20" d="M830.1,57.718c0,0,0-3.118,0.033-4.222l-1.176,4.222h-1.224l-1.167-4.222
		c0.022,0.792,0.03,4.222,0.03,4.222h-1.375v-5.645h2.063l1.063,3.949l1.047-3.949h2.063v5.645H830.1z"/>
	<path fill="#231F20" d="M838.572,57.718c0,0,0-3.118,0.03-4.222l-1.175,4.222h-1.224l-1.167-4.222
		c0.024,0.792,0.032,4.222,0.032,4.222h-1.376v-5.645h2.063l1.063,3.949l1.048-3.949h2.063v5.645H838.572z"/>
	<path fill="#231F20" d="M842.167,52.073h4.173v1.096h-2.766v1.023h2.582v1.071h-2.582v1.343h3.014v1.111h-4.421V52.073
		L842.167,52.073z"/>
	<path fill="#231F20" d="M850.541,53.185v4.533h-1.423v-4.533h-1.472v-1.111h4.356v1.111H850.541z"/>
	<path fill="#231F20" d="M856.996,53.752c-0.407-0.424-0.871-0.703-1.479-0.703c-0.575,0-0.84,0.336-0.84,0.6
		c0,0.304,0.24,0.447,0.72,0.52l0.624,0.088c1.472,0.208,2.078,0.655,2.078,1.623c0,1.191-0.951,1.967-2.565,1.967
		c-1.319,0-1.999-0.472-2.574-1.144l1.071-0.68c0.376,0.456,1.022,0.712,1.631,0.712c0.416,0,1.04-0.184,1.04-0.655
		c0-0.4-0.48-0.512-0.984-0.576l-0.646-0.088c-0.991-0.136-1.8-0.6-1.8-1.591c0-1.111,0.823-1.887,2.278-1.887
		c1.191,0,1.937,0.543,2.487,1.071L856.996,53.752z"/>
</g>
<g>
	<path fill="#231F20" d="M807.096,71.021c1.336,0,2.039,0.631,2.039,1.927c0,1.432-1.256,1.87-2.278,1.87h-1.144v1.849h-1.416
		v-5.646H807.096z M805.713,73.771h0.928c0.64,0,1.087-0.152,1.087-0.889c0-0.814-0.672-0.822-1.11-0.822h-0.903L805.713,73.771
		L805.713,73.771z"/>
	<path fill="#231F20" d="M810.609,71.021h4.174v1.096h-2.768v1.023h2.583v1.07h-2.583v1.344h3.016v1.111h-4.422V71.021z"/>
	<path fill="#231F20" d="M820.719,72.779c-0.198-0.407-0.672-0.799-1.317-0.799c-0.904,0-1.473,0.672-1.473,1.821
		c0,0.673,0.2,1.855,1.479,1.855c0.512,0,1.184-0.248,1.229-1.056h-1.263v-1.072h2.454v3.136h-1.104v-0.521
		c-0.688,0.623-1.343,0.646-1.661,0.646c-1.753,0-2.544-1.52-2.544-2.949c0-1.344,0.783-3.016,2.782-3.016
		c1.495,0,2.247,1,2.487,1.304L820.719,72.779z"/>
	<path fill="#231F20" d="M830.399,76.666l-1.504-2.559l-0.871,0.901v1.656h-1.344V71.02h1.344v2.303l2.11-2.303h1.702l-1.998,2.095
		l2.15,3.551L830.399,76.666L830.399,76.666z"/>
	<path fill="#231F20" d="M833.305,76.666V71.02h1.408v5.646H833.305z"/>
	<path fill="#231F20" d="M839.023,72.132v4.534H837.6v-4.534h-1.472v-1.11h4.357v1.11H839.023z"/>
</g>
<g>
	<path fill="#231F20" d="M623.823,55.528c0,0,0-3.118,0.031-4.222l-1.176,4.222h-1.223l-1.168-4.222
		c0.023,0.792,0.032,4.222,0.032,4.222h-1.375v-5.645h2.063l1.063,3.95l1.047-3.95h2.063v5.645H623.823z"/>
	<path fill="#231F20" d="M630.672,55.528l-0.279-0.903h-2.079l-0.279,0.903h-1.503l2.095-5.645h1.471l2.079,5.645H630.672z
		 M629.336,51.227l-0.695,2.383h1.433L629.336,51.227z"/>
	<path fill="#231F20" d="M635.297,50.995v4.534h-1.424v-4.534h-1.471v-1.111h4.356v1.111H635.297z"/>
	<path fill="#231F20" d="M638.186,49.883h4.175v1.096h-2.768v1.023h2.583v1.071h-2.583v1.343h3.016v1.111h-4.423V49.883z"/>
	<path fill="#231F20" d="M647.152,49.883c0.84,0,2.167,0.216,2.167,1.831c0,0.959-0.544,1.343-1.159,1.559l1.303,2.255h-1.551
		l-1.127-2.015h-0.88v2.015h-1.424v-5.645H647.152z M645.897,52.466h1.166c0.809,0,0.849-0.607,0.849-0.783
		c0-0.736-0.592-0.752-0.84-0.752h-1.175V52.466z"/>
	<path fill="#231F20" d="M651.281,55.528v-5.645h1.408v5.645H651.281z"/>
	<path fill="#231F20" d="M658.184,55.528l-0.278-0.903h-2.08l-0.279,0.903h-1.503l2.095-5.645h1.472l2.079,5.645H658.184z
		 M656.848,51.227l-0.694,2.383h1.432L656.848,51.227z"/>
	<path fill="#231F20" d="M661.058,55.528v-5.645h1.407v4.454h2.207v1.191H661.058z"/>
	<path fill="#231F20" d="M671.736,50.995v4.534h-1.425v-4.534h-1.471v-1.111h4.357v1.111H671.736z"/>
	<path fill="#231F20" d="M678.111,55.528v-2.407h-2.063v2.407h-1.423v-5.645h1.423v2.039h2.063v-2.039h1.416v5.645H678.111z"/>
	<path fill="#231F20" d="M681.754,55.528v-5.645h1.406v5.645H681.754z"/>
	<path fill="#231F20" d="M690.135,54.241c-0.448,0.783-1.256,1.455-2.432,1.455c-1.494,0-2.701-1.087-2.701-2.999
		c0-1.671,1.135-2.99,2.734-2.99c1.039,0,1.981,0.616,2.383,1.463l-1.12,0.56c-0.12-0.424-0.624-0.864-1.199-0.864
		c-0.911,0-1.392,0.848-1.392,1.791c0,1.24,0.632,1.855,1.392,1.855c0.735,0,1.031-0.512,1.225-0.839L690.135,54.241z"/>
	<path fill="#231F20" d="M695.367,55.528l-1.504-2.559l-0.871,0.903v1.655h-1.343v-5.645h1.343v2.303l2.11-2.303h1.703l-1.999,2.095
		l2.15,3.55L695.367,55.528L695.367,55.528z"/>
	<path fill="#231F20" d="M701.631,55.528l-1.998-3.374v3.374h-1.358v-5.645h1.383l2.007,3.438v-3.438h1.352v5.645H701.631z"/>
	<path fill="#231F20" d="M705.249,49.883h4.173v1.096h-2.766v1.023h2.582v1.071h-2.582v1.343h3.014v1.111h-4.421V49.883
		L705.249,49.883z"/>
	<path fill="#231F20" d="M715.119,51.563c-0.408-0.424-0.871-0.704-1.479-0.704c-0.574,0-0.839,0.336-0.839,0.6
		c0,0.304,0.239,0.448,0.72,0.52l0.623,0.088c1.473,0.208,2.079,0.655,2.079,1.623c0,1.191-0.95,1.967-2.565,1.967
		c-1.32,0-2-0.472-2.575-1.144l1.071-0.68c0.376,0.456,1.022,0.712,1.631,0.712c0.416,0,1.04-0.184,1.04-0.656
		c0-0.4-0.479-0.512-0.983-0.576l-0.647-0.088c-0.99-0.136-1.8-0.6-1.8-1.591c0-1.111,0.824-1.887,2.279-1.887
		c1.191,0,1.937,0.543,2.486,1.071L715.119,51.563z"/>
	<path fill="#231F20" d="M721.591,51.563c-0.407-0.424-0.872-0.704-1.479-0.704c-0.576,0-0.84,0.336-0.84,0.6
		c0,0.304,0.239,0.448,0.721,0.52l0.623,0.088c1.471,0.208,2.079,0.655,2.079,1.623c0,1.191-0.952,1.967-2.567,1.967
		c-1.318,0-1.998-0.472-2.574-1.144l1.072-0.68c0.375,0.456,1.023,0.712,1.631,0.712c0.416,0,1.039-0.184,1.039-0.656
		c0-0.4-0.479-0.512-0.982-0.576l-0.647-0.088c-0.992-0.136-1.799-0.6-1.799-1.591c0-1.111,0.823-1.887,2.278-1.887
		c1.19,0,1.935,0.543,2.485,1.071L721.591,51.563z"/>
</g>
<g>
	<path fill="#231F20" d="M623.273,88.075v1.088h-2.927v1.185h2.694v1.094h-2.694v2.279h-1.408v-5.646H623.273z"/>
	<path fill="#231F20" d="M627.842,93.721l-0.278-0.902h-2.079l-0.28,0.902h-1.502l2.094-5.646h1.472l2.079,5.646H627.842z
		 M626.507,89.419l-0.695,2.383h1.432L626.507,89.419z"/>
	<path fill="#231F20" d="M634.282,89.755c-0.407-0.424-0.872-0.704-1.479-0.704c-0.576,0-0.84,0.336-0.84,0.6
		c0,0.305,0.24,0.449,0.721,0.521l0.623,0.088c1.472,0.207,2.079,0.654,2.079,1.623c0,1.191-0.952,1.967-2.566,1.967
		c-1.318,0-1.998-0.473-2.574-1.145l1.072-0.68c0.375,0.457,1.022,0.713,1.631,0.713c0.416,0,1.039-0.186,1.039-0.656
		c0-0.4-0.48-0.512-0.983-0.576l-0.646-0.088c-0.992-0.135-1.8-0.6-1.8-1.591c0-1.111,0.823-1.888,2.278-1.888
		c1.191,0,1.935,0.545,2.486,1.071L634.282,89.755z"/>
	<path fill="#231F20" d="M639.426,89.188v4.533h-1.422v-4.533h-1.472v-1.111h4.356v1.111H639.426z"/>
	<path fill="#231F20" d="M642.315,88.075h4.174v1.096h-2.768v1.022h2.583v1.072h-2.583v1.342h3.016v1.111h-4.422V88.075z"/>
	<path fill="#231F20" d="M651.971,93.721l-2-3.373v3.373h-1.358v-5.646h1.384l2.007,3.438v-3.438h1.352v5.646H651.971z"/>
	<path fill="#231F20" d="M655.588,88.075h4.174v1.096h-2.767v1.022h2.583v1.072h-2.583v1.342h3.015v1.111h-4.422V88.075z"/>
	<path fill="#231F20" d="M664.554,88.075c0.84,0,2.167,0.216,2.167,1.831c0,0.96-0.544,1.343-1.159,1.56l1.305,2.255h-1.552
		l-1.128-2.015h-0.88v2.015h-1.424v-5.646H664.554z M663.299,90.657h1.167c0.809,0,0.849-0.607,0.849-0.783
		c0-0.735-0.593-0.752-0.84-0.752h-1.176V90.657z"/>
</g>
<g>
	<path fill="#231F20" d="M700.905,89.756c-0.408-0.424-0.872-0.703-1.48-0.703c-0.575,0-0.839,0.336-0.839,0.6
		c0,0.304,0.239,0.447,0.72,0.521l0.623,0.088c1.473,0.207,2.079,0.654,2.079,1.623c0,1.191-0.951,1.968-2.565,1.968
		c-1.319,0-1.999-0.474-2.575-1.146l1.072-0.681c0.375,0.457,1.022,0.713,1.631,0.713c0.416,0,1.039-0.184,1.039-0.655
		c0-0.399-0.479-0.513-0.982-0.576l-0.647-0.088c-0.991-0.135-1.8-0.601-1.8-1.59c0-1.111,0.824-1.888,2.279-1.888
		c1.191,0,1.935,0.543,2.486,1.07L700.905,89.756z"/>
	<path fill="#231F20" d="M707.329,93.721l-2-3.373v3.373h-1.359v-5.645h1.384l2.008,3.438v-3.438h1.352v5.645H707.329z"/>
	<path fill="#231F20" d="M710.938,93.721v-5.645h1.406v5.645H710.938z"/>
	<path fill="#231F20" d="M718.392,89.836c-0.198-0.408-0.672-0.801-1.317-0.801c-0.904,0-1.472,0.672-1.472,1.824
		c0,0.672,0.199,1.854,1.479,1.854c0.512,0,1.184-0.248,1.23-1.057h-1.264v-1.07h2.454v3.134h-1.104V93.2
		c-0.688,0.625-1.344,0.647-1.662,0.647c-1.752,0-2.543-1.52-2.543-2.951c0-1.342,0.782-3.014,2.781-3.014
		c1.495,0,2.247,1,2.487,1.303L718.392,89.836z"/>
	<path fill="#231F20" d="M721.554,93.721v-5.645h1.407v4.453h2.207v1.191H721.554L721.554,93.721z"/>
	<path fill="#231F20" d="M726.69,88.076h4.174v1.096h-2.768v1.023h2.583v1.072h-2.583v1.342h3.016v1.111h-4.422V88.076z"/>
	<path fill="#231F20" d="M735.064,89.188v4.533h-1.424v-4.533h-1.471v-1.11h4.357v1.11H735.064z"/>
</g>
<g>
	<path fill="#231F20" d="M808.631,89.966v1.087h-2.926v1.184h2.694v1.096h-2.694v2.279h-1.408v-5.646H808.631z"/>
	<path fill="#231F20" d="M812.854,89.79c2.056,0,2.863,1.694,2.863,3.038c0,1.511-1.032,2.949-2.848,2.949
		c-1.862,0-2.807-1.463-2.807-3.014C810.065,91.477,810.816,89.79,812.854,89.79z M812.88,94.579c1.048,0,1.423-0.976,1.423-1.769
		c0-1.022-0.446-1.838-1.446-1.838c-1.071,0-1.398,1.016-1.398,1.774C811.457,93.65,811.864,94.579,812.88,94.579z"/>
	<path fill="#231F20" d="M819.992,89.79c2.055,0,2.862,1.694,2.862,3.038c0,1.511-1.031,2.949-2.848,2.949
		c-1.863,0-2.807-1.463-2.807-3.014C817.201,91.477,817.953,89.79,819.992,89.79z M820.016,94.579c1.048,0,1.425-0.976,1.425-1.769
		c0-1.022-0.448-1.838-1.447-1.838c-1.072,0-1.399,1.016-1.399,1.774C818.593,93.65,819,94.579,820.016,94.579z"/>
	<path fill="#231F20" d="M826.792,91.077v4.532h-1.423v-4.532h-1.471v-1.111h4.356v1.111H826.792z"/>
	<path fill="#231F20" d="M836.535,95.609l-1.504-2.559l-0.871,0.903v1.655h-1.343v-5.646h1.343v2.304l2.11-2.304h1.703l-1.999,2.095
		l2.15,3.551H836.535L836.535,95.609z"/>
	<path fill="#231F20" d="M839.441,95.609v-5.645h1.405v5.645H839.441z"/>
	<path fill="#231F20" d="M845.16,91.077v4.532h-1.424v-4.532h-1.472v-1.111h4.357v1.111H845.16z"/>
</g>
<g>
	<path fill="#231F20" d="M330.457,94.096c0,1.416-0.903,2.359-2.431,2.359c-1.327,0-2.391-0.703-2.391-2.264v-3.51h1.423v3.67
		c0,0.752,0.384,0.936,1.016,0.936c0.719,0,0.967-0.359,0.967-1.008v-3.598h1.415L330.457,94.096L330.457,94.096z"/>
	<path fill="#231F20" d="M336.001,96.327l-1.999-3.374v3.374h-1.359v-5.646h1.383l2.007,3.438v-3.438h1.352v5.646H336.001z"/>
	<path fill="#231F20" d="M339.611,96.327v-5.646h1.407v5.646H339.611z"/>
	<path fill="#231F20" d="M345.33,91.793v4.534h-1.423v-4.534h-1.471v-1.111h4.357v1.111H345.33z"/>
	<path fill="#231F20" d="M351.786,92.361c-0.408-0.424-0.872-0.703-1.479-0.703c-0.576,0-0.839,0.336-0.839,0.6
		c0,0.303,0.24,0.447,0.72,0.52l0.624,0.089c1.471,0.207,2.079,0.655,2.079,1.622c0,1.191-0.952,1.968-2.567,1.968
		c-1.319,0-1.999-0.472-2.575-1.144l1.072-0.681c0.375,0.456,1.023,0.712,1.631,0.712c0.416,0,1.04-0.184,1.04-0.656
		c0-0.398-0.48-0.512-0.983-0.574l-0.648-0.088c-0.991-0.137-1.799-0.601-1.799-1.592c0-1.11,0.824-1.887,2.279-1.887
		c1.191,0,1.935,0.543,2.486,1.07L351.786,92.361z"/>
</g>
<g>
	<path fill="#231F20" d="M330.561,116.202c0,0,0-3.118,0.032-4.222l-1.175,4.222h-1.224l-1.167-4.222
		c0.024,0.791,0.032,4.222,0.032,4.222h-1.375v-5.646h2.063l1.063,3.949l1.047-3.949h2.063v5.646H330.561z"/>
	<path fill="#231F20" d="M339.033,116.202c0,0,0-3.118,0.032-4.222l-1.175,4.222h-1.224l-1.167-4.222
		c0.024,0.791,0.032,4.222,0.032,4.222h-1.375v-5.646h2.063l1.063,3.949l1.047-3.949h2.063v5.646H339.033z"/>
</g>
<g>
	<path fill="#231F20" d="M354.426,116.202v-5.646h1.407v5.646H354.426z"/>
	<path fill="#231F20" d="M361.424,116.202l-1.999-3.374v3.374h-1.359v-5.646h1.383l2.007,3.438v-3.438h1.352v5.646H361.424z"/>
	<path fill="#231F20" d="M369.774,114.915c-0.448,0.783-1.255,1.455-2.431,1.455c-1.495,0-2.702-1.087-2.702-2.999
		c0-1.67,1.135-2.99,2.734-2.99c1.04,0,1.983,0.616,2.383,1.465l-1.12,0.559c-0.12-0.424-0.624-0.862-1.199-0.862
		c-0.912,0-1.391,0.849-1.391,1.791c0,1.239,0.631,1.854,1.391,1.854c0.735,0,1.031-0.513,1.223-0.84L369.774,114.915z"/>
	<path fill="#231F20" d="M374.774,116.202v-2.407h-2.063v2.407h-1.423v-5.646h1.423v2.039h2.063v-2.039h1.415v5.646H374.774z"/>
</g>
<g>
	<path fill="#231F20" d="M181.941,60.27h-1.455l-1.016-3.614l-1.023,3.614h-1.455l-1.431-5.645h1.415l0.832,3.886l1.023-3.886h1.255
		l1.056,3.886l0.823-3.886h1.407L181.941,60.27z"/>
	<path fill="#231F20" d="M184.745,60.27v-5.645h1.407v5.645H184.745z"/>
	<path fill="#231F20" d="M188.4,54.625h1.935c2.183,0,3.118,0.968,3.118,2.823c0,1.343-0.583,2.822-2.831,2.822H188.4V54.625z
		 M189.824,59.134h0.456c1.215,0,1.759-0.424,1.759-1.703c0-0.879-0.288-1.615-1.52-1.615h-0.695V59.134L189.824,59.134z"/>
	<path fill="#231F20" d="M197.303,55.736v4.534h-1.423v-4.534h-1.471v-1.111h4.357v1.111H197.303z"/>
	<path fill="#231F20" d="M203.694,60.27v-2.407h-2.063v2.407h-1.423v-5.645h1.423v2.039h2.063v-2.039h1.415v5.645H203.694z"/>
</g>
<g>
	<path fill="#231F20" d="M177.237,31.617v-5.645h1.407v4.454h2.207v1.191H177.237z"/>
	<path fill="#231F20" d="M182.388,25.972h4.174v1.096h-2.767v1.023h2.583v1.071h-2.583v1.343h3.015v1.111h-4.422V25.972z"/>
	<path fill="#231F20" d="M192.059,31.617l-1.999-3.374v3.374h-1.36v-5.645h1.383l2.007,3.438v-3.438h1.352v5.645H192.059z"/>
	<path fill="#231F20" d="M199.498,27.731c-0.2-0.408-0.672-0.8-1.319-0.8c-0.903,0-1.471,0.672-1.471,1.823
		c0,0.671,0.2,1.855,1.479,1.855c0.512,0,1.184-0.248,1.231-1.056h-1.263v-1.071h2.455v3.134h-1.104v-0.52
		c-0.688,0.624-1.343,0.647-1.663,0.647c-1.751,0-2.542-1.519-2.542-2.95c0-1.343,0.784-3.015,2.782-3.015
		c1.496,0,2.247,1,2.487,1.303L199.498,27.731z"/>
	<path fill="#231F20" d="M204.747,27.083v4.534h-1.423v-4.534h-1.471v-1.111h4.357v1.111H204.747z"/>
	<path fill="#231F20" d="M211.138,31.617V29.21h-2.063v2.407h-1.423v-5.645h1.423v2.039h2.063v-2.039h1.415v5.645H211.138z"/>
</g>
</svg>
