<?xml version="1.0" encoding="utf-8"?>
<!-- Generator: Adobe Illustrator 16.0.0, SVG Export Plug-In . SVG Version: 6.00 Build 0)  -->
<!DOCTYPE svg PUBLIC "-//W3C//DTD SVG 1.1//EN" "http://www.w3.org/Graphics/SVG/1.1/DTD/svg11.dtd">
<svg version="1.1"
	 id="Layer_1" xmlns:inkscape="http://www.inkscape.org/namespaces/inkscape" xmlns:sodipodi="http://sodipodi.sourceforge.net/DTD/sodipodi-0.dtd" xmlns:svg="http://www.w3.org/2000/svg" xmlns:rdf="http://www.w3.org/1999/02/22-rdf-syntax-ns#" xmlns:dc="http://purl.org/dc/elements/1.1/" xmlns:cc="http://creativecommons.org/ns#" sodipodi:docname="control.svg" inkscape:version="0.48.2 r9819"
	 xmlns="http://www.w3.org/2000/svg" xmlns:xlink="http://www.w3.org/1999/xlink" x="0px" y="0px" width="916px" height="130px"
	 viewBox="0 0 916 130" enable-background="new 0 0 916 130" xml:space="preserve">
<sodipodi:namedview  id="namedview585" pagecolor="#ffffff" showgrid="false" bordercolor="#666666" inkscape:zoom="5.6568543" inkscape:cx="249.95821" inkscape:cy="59.354467" borderopacity="1" objecttolerance="10" gridtolerance="10" guidetolerance="10" inkscape:pageopacity="0" inkscape:pageshadow="2" inkscape:window-x="-8" inkscape:current-layer="Layer_1" inkscape:window-y="-8" inkscape:window-width="1920" inkscape:window-height="1018" inkscape:window-maximized="1">
	</sodipodi:namedview>
<g>
	<path fill="#231F20" d="M620.956,111.889c1.734,0,1.918,2.055,1.918,2.822c0,1.23-0.407,2.807-1.967,2.807
		c-1.279,0-1.879-1.119-1.879-2.871C619.028,113.119,619.628,111.889,620.956,111.889z M620.956,116.525
		c0.607,0,0.719-0.928,0.719-1.799c0-0.879-0.144-1.842-0.732-1.842c-0.568,0-0.723,0.795-0.729,2.023
		C620.212,115.534,620.308,116.525,620.956,116.525z"/>
	<path fill="#231F20" d="M626.251,111.889c1.736,0,1.92,2.055,1.92,2.822c0,1.23-0.408,2.807-1.967,2.807
		c-1.279,0-1.879-1.119-1.879-2.871C624.325,113.119,624.925,111.889,626.251,111.889z M626.251,116.525
		c0.608,0,0.721-0.928,0.721-1.799c0-0.879-0.145-1.842-0.734-1.842c-0.567,0-0.721,0.795-0.729,2.023
		C625.508,115.534,625.604,116.525,626.251,116.525z"/>
</g>
<g>
	<path fill="#231F20" d="M637.102,111.889c1.734,0,1.919,2.055,1.919,2.822c0,1.23-0.407,2.807-1.968,2.807
		c-1.277,0-1.879-1.119-1.879-2.871C635.174,113.119,635.773,111.889,637.102,111.889z M637.102,116.525
		c0.607,0,0.721-0.928,0.721-1.799c0-0.879-0.146-1.842-0.734-1.842c-0.568,0-0.721,0.795-0.729,2.023
		C636.357,115.535,636.453,116.525,637.102,116.525z"/>
	<path fill="#231F20" d="M640.502,113.52c0.127-1.303,1.023-1.639,1.896-1.639c1.463,0,1.768,0.936,1.768,1.455
		c0,0.68-0.393,1.031-0.896,1.207c0.681,0.119,1.032,0.615,1.032,1.238c0,0.512-0.336,1.711-2.057,1.711
		c-1.199,0-1.846-0.719-1.846-1.799v-0.119l1.245-0.104c0,0-0.009,0.15-0.009,0.229c0,0.504,0.297,0.801,0.664,0.801
		c0.424,0,0.711-0.297,0.711-0.801c0-0.615-0.463-0.695-0.799-0.695c-0.063,0-0.176,0.01-0.176,0.01v-0.918
		c0,0,0.119,0.008,0.184,0.008c0.682,0,0.682-0.584,0.682-0.643c0-0.438-0.32-0.613-0.584-0.613c-0.553,0-0.553,0.551-0.553,0.781
		L640.502,113.52z"/>
</g>
<g>
	<path fill="#231F20" d="M656.857,111.887c1.734,0,1.92,2.055,1.92,2.822c0,1.23-0.408,2.807-1.969,2.807
		c-1.277,0-1.879-1.119-1.879-2.871C654.932,113.117,655.531,111.887,656.857,111.887z M656.857,116.523
		c0.607,0,0.721-0.928,0.721-1.799c0-0.879-0.146-1.842-0.736-1.842c-0.564,0-0.719,0.793-0.727,2.023
		C656.115,115.532,656.211,116.523,656.857,116.523z"/>
	<path fill="#231F20" d="M660.676,111.99h3.117l-0.08,1.023h-2.047l-0.127,0.989c0.119-0.088,0.367-0.278,0.854-0.278
		c1.049,0,1.633,0.809,1.633,1.791c0,0.941-0.594,1.981-2.039,1.981c-1.328,0-1.855-0.88-1.855-1.81l1.271-0.047
		c0,0.535,0.168,0.887,0.641,0.887c0.631,0,0.672-0.711,0.672-1.008c0-0.662-0.319-0.936-0.688-0.936
		c-0.398,0-0.514,0.266-0.566,0.424l-1.111-0.184L660.676,111.99z"/>
</g>
<g>
	<path fill="#231F20" d="M676.326,111.887c1.734,0,1.92,2.055,1.92,2.822c0,1.23-0.408,2.807-1.967,2.807
		c-1.279,0-1.879-1.119-1.879-2.871C674.4,113.117,675,111.887,676.326,111.887z M676.326,116.523c0.606,0,0.721-0.928,0.721-1.799
		c0-0.879-0.145-1.842-0.736-1.842c-0.565,0-0.719,0.793-0.728,2.023C675.583,115.532,675.68,116.523,676.326,116.523z"/>
	<path fill="#231F20" d="M679.648,111.975h3.827v0.977c-0.773,0.936-1.175,1.672-1.503,2.688c-0.256,0.799-0.313,1.207-0.376,1.758
		h-1.485c0.168-0.752,0.584-2.631,2.119-4.373h-2.582V111.975L679.648,111.975z"/>
</g>
<g>
	<path fill="#231F20" d="M181.235,110.758h3.117l-0.08,1.023h-2.047l-0.127,0.989c0.119-0.088,0.367-0.278,0.854-0.278
		c1.049,0,1.633,0.809,1.633,1.791c0,0.941-0.594,1.981-2.039,1.981c-1.328,0-1.855-0.88-1.855-1.81l1.271-0.047
		c0,0.535,0.168,0.887,0.641,0.887c0.631,0,0.672-0.711,0.672-1.008c0-0.662-0.319-0.936-0.688-0.936
		c-0.398,0-0.514,0.266-0.566,0.424l-1.111-0.184L181.235,110.758z"/>
	<path fill="#231F20" d="M187.573,110.654c1.734,0,1.92,2.055,1.92,2.822c0,1.23-0.408,2.807-1.967,2.807
		c-1.279,0-1.879-1.119-1.879-2.871C185.647,111.885,186.247,110.654,187.573,110.654z M187.573,115.291
		c0.606,0,0.721-0.928,0.721-1.799c0-0.879-0.145-1.842-0.736-1.842c-0.565,0-0.719,0.793-0.728,2.023
		C186.83,114.3,186.926,115.291,187.573,115.291z"/>
	<path fill="#231F20" d="M175.895,110.742h3.827v0.977c-0.773,0.936-1.175,1.672-1.503,2.688c-0.256,0.799-0.313,1.207-0.376,1.758
		h-1.485c0.168-0.752,0.584-2.631,2.119-4.373h-2.582V110.742L175.895,110.742z"/>
</g>
<g>
	<path fill="#231F20" d="M699.39,111.889c1.734,0,1.918,2.055,1.918,2.822c0,1.23-0.405,2.807-1.967,2.807
		c-1.277,0-1.879-1.119-1.879-2.871C697.462,113.119,698.062,111.889,699.39,111.889z M699.39,116.525
		c0.607,0,0.721-0.928,0.721-1.799c0-0.879-0.146-1.842-0.734-1.842c-0.568,0-0.721,0.795-0.729,2.023
		C698.646,115.534,698.741,116.525,699.39,116.525z"/>
	<path fill="#231F20" d="M704.685,111.889c1.736,0,1.92,2.055,1.92,2.822c0,1.23-0.406,2.807-1.967,2.807
		c-1.277,0-1.879-1.119-1.879-2.871C702.759,113.119,703.358,111.889,704.685,111.889z M704.685,116.525
		c0.608,0,0.723-0.928,0.723-1.799c0-0.879-0.146-1.842-0.736-1.842c-0.567,0-0.719,0.795-0.728,2.023
		C703.941,115.534,704.038,116.525,704.685,116.525z"/>
</g>
<g>
	<path fill="#231F20" d="M715.535,111.889c1.732,0,1.918,2.055,1.918,2.822c0,1.23-0.408,2.807-1.967,2.807
		c-1.279,0-1.879-1.119-1.879-2.871C713.607,113.119,714.207,111.889,715.535,111.889z M715.535,116.525
		c0.605,0,0.719-0.928,0.719-1.799c0-0.879-0.145-1.842-0.734-1.842c-0.566,0-0.721,0.795-0.729,2.023
		C714.791,115.535,714.887,116.525,715.535,116.525z"/>
	<path fill="#231F20" d="M718.936,113.52c0.128-1.303,1.023-1.639,1.896-1.639c1.463,0,1.768,0.936,1.768,1.455
		c0,0.68-0.393,1.031-0.896,1.207c0.68,0.119,1.033,0.615,1.033,1.238c0,0.512-0.336,1.711-2.059,1.711
		c-1.197,0-1.846-0.719-1.846-1.799v-0.119l1.246-0.104c0,0-0.008,0.15-0.008,0.229c0,0.504,0.297,0.801,0.664,0.801
		c0.424,0,0.711-0.297,0.711-0.801c0-0.615-0.463-0.695-0.799-0.695c-0.064,0-0.178,0.01-0.178,0.01v-0.918
		c0,0,0.119,0.008,0.186,0.008c0.68,0,0.68-0.584,0.68-0.643c0-0.438-0.32-0.613-0.584-0.613c-0.551,0-0.551,0.551-0.551,0.781
		L718.936,113.52z"/>
</g>
<g>
	<path fill="#231F20" d="M735.291,111.887c1.736,0,1.92,2.055,1.92,2.822c0,1.23-0.408,2.807-1.967,2.807
		c-1.279,0-1.879-1.119-1.879-2.871C733.365,113.117,733.965,111.887,735.291,111.887z M735.291,116.523
		c0.609,0,0.721-0.928,0.721-1.799c0-0.879-0.145-1.842-0.734-1.842c-0.566,0-0.721,0.793-0.729,2.023
		C734.549,115.532,734.646,116.523,735.291,116.523z"/>
	<path fill="#231F20" d="M739.109,111.99h3.115l-0.079,1.023H740.1l-0.127,0.989c0.119-0.088,0.367-0.278,0.855-0.278
		c1.047,0,1.631,0.809,1.631,1.791c0,0.941-0.592,1.981-2.039,1.981c-1.328,0-1.854-0.88-1.854-1.81l1.271-0.047
		c0,0.535,0.168,0.887,0.641,0.887c0.633,0,0.674-0.711,0.674-1.008c0-0.662-0.32-0.936-0.689-0.936
		c-0.398,0-0.512,0.266-0.566,0.424l-1.109-0.184L739.109,111.99z"/>
</g>
<g>
	<path fill="#231F20" d="M754.76,111.887c1.736,0,1.92,2.055,1.92,2.822c0,1.23-0.406,2.807-1.967,2.807
		c-1.279,0-1.879-1.119-1.879-2.871C752.834,113.117,753.434,111.887,754.76,111.887z M754.76,116.523
		c0.608,0,0.723-0.928,0.723-1.799c0-0.879-0.146-1.842-0.736-1.842c-0.567,0-0.719,0.793-0.729,2.023
		C754.017,115.532,754.113,116.523,754.76,116.523z"/>
	<path fill="#231F20" d="M758.082,111.975h3.829v0.977c-0.775,0.936-1.175,1.672-1.503,2.688c-0.256,0.799-0.313,1.207-0.376,1.758
		h-1.487c0.168-0.752,0.584-2.631,2.119-4.373h-2.582V111.975L758.082,111.975z"/>
</g>
<g>
	<path fill="#231F20" d="M618.435,67.104c0.327-0.021,0.602-0.049,0.896-0.199c0.353-0.184,0.456-0.393,0.561-0.605h0.977v5.42
		h-1.287V67.76c-0.295,0.127-0.367,0.16-1.145,0.176L618.435,67.104L618.435,67.104z"/>
	<path fill="#231F20" d="M625.272,66.209c1.734,0,1.92,2.055,1.92,2.822c0,1.229-0.408,2.807-1.969,2.807
		c-1.277,0-1.879-1.121-1.879-2.871C623.347,67.439,623.946,66.209,625.272,66.209z M625.272,70.846
		c0.606,0,0.721-0.928,0.721-1.799c0-0.879-0.146-1.84-0.736-1.84c-0.565,0-0.719,0.793-0.728,2.023
		C624.529,69.854,624.626,70.846,625.272,70.846z"/>
</g>
<g>
	<path fill="#231F20" d="M651.807,67.066c0.328-0.022,0.602-0.047,0.896-0.198c0.354-0.185,0.457-0.394,0.561-0.607h0.977v5.421
		h-1.287v-3.957c-0.295,0.127-0.367,0.159-1.145,0.176L651.807,67.066L651.807,67.066z"/>
	<path fill="#231F20" d="M657.166,66.275h3.119l-0.08,1.022h-2.047l-0.129,0.991c0.121-0.088,0.369-0.28,0.854-0.28
		c1.049,0,1.631,0.81,1.631,1.791c0,0.943-0.592,1.983-2.037,1.983c-1.326,0-1.854-0.881-1.854-1.809l1.271-0.047
		c0,0.534,0.168,0.887,0.641,0.887c0.633,0,0.672-0.711,0.672-1.008c0-0.664-0.32-0.937-0.688-0.937
		c-0.398,0-0.512,0.265-0.566,0.424l-1.111-0.185L657.166,66.275z"/>
</g>
<g>
	<path fill="#231F20" d="M685.131,68.243v-0.192c0-1.279,0.824-1.847,1.902-1.847c1.109,0,1.84,0.608,1.84,1.655
		c0,0.941-0.512,1.662-2.096,2.871c0,0,1.888-0.033,2.109-0.033v1.023h-3.718v-0.943c0.415-0.328,0.695-0.543,1.255-1.023
		c0.643-0.559,1.104-1.016,1.104-1.871c0-0.215,0-0.742-0.553-0.742c-0.217,0-0.592,0.096-0.592,0.662
		c0,0.137,0.018,0.344,0.031,0.512L685.131,68.243z"/>
	<path fill="#231F20" d="M692.418,66.213c1.734,0,1.918,2.055,1.918,2.822c0,1.23-0.407,2.807-1.967,2.807
		c-1.279,0-1.879-1.119-1.879-2.871C690.49,67.443,691.09,66.213,692.418,66.213z M692.418,70.85c0.607,0,0.719-0.928,0.719-1.799
		c0-0.879-0.144-1.84-0.732-1.84c-0.568,0-0.723,0.793-0.729,2.023C691.674,69.857,691.771,70.85,692.418,70.85z"/>
</g>
<g>
	<path fill="#231F20" d="M752.827,67.844c0.128-1.304,1.021-1.64,1.896-1.64c1.464,0,1.769,0.937,1.769,1.456
		c0,0.679-0.394,1.031-0.896,1.207c0.682,0.119,1.031,0.615,1.031,1.238c0,0.512-0.336,1.711-2.055,1.711
		c-1.199,0-1.849-0.719-1.849-1.799v-0.119l1.247-0.104c0,0-0.008,0.151-0.008,0.229c0,0.504,0.296,0.802,0.664,0.802
		c0.424,0,0.711-0.298,0.711-0.802c0-0.614-0.464-0.694-0.799-0.694c-0.064,0-0.177,0.008-0.177,0.008v-0.919
		c0,0,0.12,0.009,0.185,0.009c0.68,0,0.68-0.584,0.68-0.641c0-0.438-0.318-0.615-0.584-0.615c-0.552,0-0.552,0.552-0.552,0.783
		L752.827,67.844z"/>
	<path fill="#231F20" d="M760.018,66.213c1.736,0,1.922,2.055,1.922,2.822c0,1.23-0.408,2.807-1.969,2.807
		c-1.277,0-1.879-1.119-1.879-2.871C758.092,67.443,758.691,66.213,760.018,66.213z M760.018,70.85c0.608,0,0.723-0.928,0.723-1.799
		c0-0.879-0.146-1.84-0.736-1.84c-0.567,0-0.719,0.793-0.728,2.023C759.274,69.857,759.371,70.85,760.018,70.85z"/>
</g>
<g>
	<path fill="#231F20" d="M718.951,68.252v-0.193c0-1.279,0.824-1.846,1.9-1.846c1.111,0,1.842,0.607,1.842,1.654
		c0,0.943-0.514,1.664-2.098,2.871c0,0,1.889-0.033,2.111-0.033v1.023h-3.719v-0.943c0.416-0.328,0.693-0.543,1.256-1.023
		c0.641-0.559,1.104-1.016,1.104-1.871c0-0.215,0-0.742-0.551-0.742c-0.217,0-0.592,0.098-0.592,0.662
		c0,0.139,0.016,0.344,0.031,0.514L718.951,68.252z"/>
	<path fill="#231F20" d="M724.758,66.324h3.119l-0.08,1.023h-2.047l-0.129,0.99c0.121-0.088,0.369-0.279,0.855-0.279
		c1.049,0,1.633,0.809,1.633,1.791c0,0.941-0.594,1.982-2.039,1.982c-1.328,0-1.855-0.881-1.855-1.811l1.271-0.047
		c0,0.535,0.168,0.889,0.639,0.889c0.633,0,0.672-0.713,0.672-1.01c0-0.662-0.317-0.936-0.688-0.936
		c-0.398,0-0.514,0.266-0.566,0.424l-1.111-0.184L724.758,66.324z"/>
</g>
<g>
	<path fill="#231F20" d="M180.02,44.163c0,1.239-1.087,1.631-1.919,1.631c-1.215,0-1.919-0.68-1.919-1.639
		c0-0.912,0.655-1.175,0.967-1.295c-0.216-0.128-0.744-0.447-0.744-1.223c0-0.664,0.456-1.447,1.711-1.447
		c0.944,0,1.679,0.512,1.679,1.487c0,0.808-0.504,1.047-0.768,1.175C179.372,42.979,180.02,43.275,180.02,44.163z M178.109,43.275
		c-0.32,0-0.632,0.256-0.632,0.775c0,0.568,0.312,0.784,0.616,0.784c0.384,0,0.632-0.24,0.632-0.784
		C178.725,43.691,178.557,43.275,178.109,43.275z M178.125,41.133c-0.368,0-0.528,0.295-0.528,0.631c0,0.408,0.176,0.688,0.52,0.688
		c0.36,0,0.504-0.288,0.504-0.616C178.621,41.413,178.437,41.133,178.125,41.133z"/>
	<path fill="#231F20" d="M183.413,40.197c1.735,0,1.919,2.055,1.919,2.822c0,1.231-0.408,2.807-1.967,2.807
		c-1.279,0-1.879-1.12-1.879-2.871C181.486,41.428,182.085,40.197,183.413,40.197z M183.413,44.834c0.608,0,0.72-0.927,0.72-1.799
		c0-0.879-0.144-1.839-0.735-1.839c-0.568,0-0.72,0.792-0.728,2.023C182.669,43.843,182.765,44.834,183.413,44.834z"/>
	<path fill="#231F20" d="M188.708,40.197c1.735,0,1.919,2.055,1.919,2.822c0,1.231-0.408,2.807-1.967,2.807
		c-1.279,0-1.879-1.12-1.879-2.871C186.782,41.428,187.381,40.197,188.708,40.197z M188.708,44.834c0.608,0,0.72-0.927,0.72-1.799
		c0-0.879-0.144-1.839-0.735-1.839c-0.568,0-0.72,0.792-0.728,2.023C187.965,43.843,188.061,44.834,188.708,44.834z"/>
</g>
<g>
	<path fill="#231F20" d="M252.363,41.093c0.328-0.024,0.6-0.048,0.896-0.2c0.352-0.184,0.456-0.392,0.56-0.607h0.976v5.421h-1.287
		v-3.958c-0.296,0.128-0.368,0.16-1.144,0.176L252.363,41.093L252.363,41.093z"/>
	<path fill="#231F20" d="M257.211,42.228v-0.192c0-1.279,0.824-1.847,1.903-1.847c1.111,0,1.839,0.608,1.839,1.655
		c0,0.943-0.512,1.663-2.095,2.871c0,0,1.887-0.032,2.111-0.032v1.023h-3.718v-0.943c0.416-0.328,0.695-0.544,1.255-1.023
		c0.64-0.56,1.103-1.016,1.103-1.871c0-0.216,0-0.744-0.551-0.744c-0.216,0-0.592,0.096-0.592,0.664
		c0,0.136,0.016,0.344,0.032,0.512L257.211,42.228z"/>
	<path fill="#231F20" d="M264.498,40.197c1.735,0,1.919,2.055,1.919,2.822c0,1.231-0.408,2.807-1.967,2.807
		c-1.279,0-1.879-1.12-1.879-2.871C262.571,41.428,263.171,40.197,264.498,40.197z M264.498,44.834c0.608,0,0.72-0.927,0.72-1.799
		c0-0.879-0.144-1.839-0.735-1.839c-0.568,0-0.72,0.792-0.728,2.023C263.754,43.843,263.851,44.834,264.498,44.834z"/>
	<path fill="#231F20" d="M269.794,40.197c1.735,0,1.919,2.055,1.919,2.822c0,1.231-0.408,2.807-1.967,2.807
		c-1.279,0-1.879-1.12-1.879-2.871C267.867,41.428,268.467,40.197,269.794,40.197z M269.794,44.834c0.608,0,0.72-0.927,0.72-1.799
		c0-0.879-0.144-1.839-0.735-1.839c-0.568,0-0.72,0.792-0.728,2.023C269.05,43.843,269.146,44.834,269.794,44.834z"/>
</g>
<path fill="#231F20" d="M278.559,111.469c0.328-0.023,0.6-0.048,0.896-0.199c0.352-0.185,0.456-0.393,0.56-0.606h0.976v5.421h-1.287
	v-3.958c-0.296,0.128-0.368,0.16-1.144,0.176L278.559,111.469L278.559,111.469z"/>
<path fill="#231F20" d="M282.99,111.469c0.328-0.023,0.6-0.048,0.896-0.199c0.352-0.185,0.456-0.393,0.56-0.606h0.976v5.421h-1.287
	v-3.958c-0.296,0.128-0.368,0.16-1.144,0.176L282.99,111.469L282.99,111.469z"/>
<path fill="#231F20" d="M289.348,110.573c1.735,0,1.919,2.055,1.919,2.821c0,1.23-0.408,2.808-1.967,2.808
	c-1.279,0-1.879-1.12-1.879-2.871C287.421,111.805,288.021,110.573,289.348,110.573z M289.348,115.21c0.608,0,0.72-0.927,0.72-1.799
	c0-0.879-0.144-1.839-0.735-1.839c-0.568,0-0.72,0.791-0.728,2.021C288.604,114.219,288.701,115.21,289.348,115.21z"/>
<path fill="#231F20" d="M294.521,110.573c1.735,0,1.919,2.055,1.919,2.821c0,1.23-0.408,2.808-1.967,2.808
	c-1.279,0-1.879-1.12-1.879-2.871C292.594,111.805,293.194,110.573,294.521,110.573z M294.521,115.21c0.608,0,0.72-0.927,0.72-1.799
	c0-0.879-0.144-1.839-0.735-1.839c-0.568,0-0.72,0.791-0.728,2.021C293.777,114.219,293.873,115.21,294.521,115.21z"/>
<g>
	<path fill="#231F20" d="M333.449,41.093c0.328-0.024,0.6-0.048,0.896-0.2c0.352-0.184,0.456-0.392,0.56-0.607h0.976v5.421h-1.287
		v-3.958c-0.296,0.128-0.368,0.16-1.144,0.176L333.449,41.093L333.449,41.093z"/>
	<path fill="#231F20" d="M340.88,41.796v-0.104c0-0.32-0.208-0.544-0.496-0.544c-0.696,0-0.768,1.032-0.792,1.711
		c0.136-0.295,0.56-0.631,1.175-0.631c0.656,0,1.495,0.464,1.495,1.663c0,1.208-0.8,1.903-1.943,1.903
		c-0.952,0-1.943-0.607-1.943-2.67c0-1.471,0.344-2.942,2.111-2.942c1.375,0,1.599,1.071,1.671,1.471L340.88,41.796z
		 M340.376,44.851c0.664,0,0.664-0.72,0.664-0.872c0-0.208-0.032-0.832-0.648-0.832c-0.368,0-0.64,0.288-0.64,0.832
		C339.752,44.275,339.825,44.851,340.376,44.851z"/>
	<path fill="#231F20" d="M345.584,40.197c1.735,0,1.919,2.055,1.919,2.822c0,1.231-0.408,2.807-1.967,2.807
		c-1.279,0-1.879-1.12-1.879-2.871C343.657,41.428,344.257,40.197,345.584,40.197z M345.584,44.834c0.608,0,0.72-0.927,0.72-1.799
		c0-0.879-0.144-1.839-0.735-1.839c-0.568,0-0.72,0.792-0.728,2.023C344.84,43.843,344.937,44.834,345.584,44.834z"/>
	<path fill="#231F20" d="M350.88,40.197c1.735,0,1.919,2.055,1.919,2.822c0,1.231-0.408,2.807-1.967,2.807
		c-1.279,0-1.879-1.12-1.879-2.871C348.953,41.428,349.553,40.197,350.88,40.197z M350.88,44.834c0.608,0,0.72-0.927,0.72-1.799
		c0-0.879-0.144-1.839-0.735-1.839c-0.568,0-0.72,0.792-0.728,2.023C350.136,43.843,350.232,44.834,350.88,44.834z"/>
</g>
<g>
	<path fill="#231F20" d="M414.535,42.228v-0.192c0-1.279,0.824-1.847,1.903-1.847c1.109,0,1.839,0.608,1.839,1.655
		c0,0.943-0.514,1.663-2.097,2.871c0,0,1.889-0.032,2.111-0.032v1.023h-3.718v-0.943c0.416-0.328,0.694-0.544,1.255-1.023
		c0.64-0.56,1.103-1.016,1.103-1.871c0-0.216,0-0.744-0.551-0.744c-0.216,0-0.592,0.096-0.592,0.664
		c0,0.136,0.016,0.344,0.032,0.512L414.535,42.228z"/>
	<path fill="#231F20" d="M421.821,40.197c1.733,0,1.919,2.055,1.919,2.822c0,1.231-0.408,2.807-1.967,2.807
		c-1.279,0-1.881-1.12-1.881-2.871C419.895,41.428,420.494,40.197,421.821,40.197z M421.821,44.834c0.606,0,0.72-0.927,0.72-1.799
		c0-0.879-0.144-1.839-0.735-1.839c-0.566,0-0.72,0.792-0.728,2.023C421.078,43.843,421.174,44.834,421.821,44.834z"/>
	<path fill="#231F20" d="M427.117,40.197c1.733,0,1.919,2.055,1.919,2.822c0,1.231-0.408,2.807-1.967,2.807
		c-1.279,0-1.879-1.12-1.879-2.871C425.19,41.428,425.79,40.197,427.117,40.197z M427.117,44.834c0.606,0,0.72-0.927,0.72-1.799
		c0-0.879-0.144-1.839-0.735-1.839c-0.566,0-0.72,0.792-0.728,2.023C426.374,43.843,426.47,44.834,427.117,44.834z"/>
	<path fill="#231F20" d="M432.413,40.197c1.735,0,1.919,2.055,1.919,2.822c0,1.231-0.408,2.807-1.967,2.807
		c-1.279,0-1.879-1.12-1.879-2.871C430.486,41.428,431.086,40.197,432.413,40.197z M432.413,44.834c0.606,0,0.72-0.927,0.72-1.799
		c0-0.879-0.144-1.839-0.733-1.839c-0.568,0-0.722,0.792-0.729,2.023C431.669,43.843,431.766,44.834,432.413,44.834z"/>
</g>
</svg>
