<?xml version="1.0" encoding="utf-8"?>
<!-- Generator: Adobe Illustrator 16.0.0, SVG Export Plug-In . SVG Version: 6.00 Build 0)  -->
<!DOCTYPE svg PUBLIC "-//W3C//DTD SVG 1.1//EN" "http://www.w3.org/Graphics/SVG/1.1/DTD/svg11.dtd">
<svg version="1.1"
	 id="Layer_1" xmlns:inkscape="http://www.inkscape.org/namespaces/inkscape" xmlns:sodipodi="http://sodipodi.sourceforge.net/DTD/sodipodi-0.dtd" xmlns:svg="http://www.w3.org/2000/svg" xmlns:rdf="http://www.w3.org/1999/02/22-rdf-syntax-ns#" xmlns:dc="http://purl.org/dc/elements/1.1/" xmlns:cc="http://creativecommons.org/ns#" sodipodi:docname="control.svg" inkscape:version="0.48.2 r9819"
	 xmlns="http://www.w3.org/2000/svg" xmlns:xlink="http://www.w3.org/1999/xlink" x="0px" y="0px" width="916px" height="130px"
	 viewBox="0 0 916 130" enable-background="new 0 0 916 130" xml:space="preserve">
<sodipodi:namedview  id="namedview585" pagecolor="#ffffff" showgrid="false" bordercolor="#666666" inkscape:zoom="5.6568543" inkscape:cx="249.95821" inkscape:cy="59.354467" borderopacity="1" objecttolerance="10" gridtolerance="10" guidetolerance="10" inkscape:pageopacity="0" inkscape:pageshadow="2" inkscape:window-x="-8" inkscape:current-layer="Layer_1" inkscape:window-y="-8" inkscape:window-width="1920" inkscape:window-height="1018" inkscape:window-maximized="1">
	</sodipodi:namedview>
<g>
	<path fill="#231F20" d="M620.956,111.889c1.734,0,1.918,2.055,1.918,2.822c0,1.23-0.407,2.807-1.967,2.807
		c-1.279,0-1.879-1.119-1.879-2.871C619.028,113.119,619.628,111.889,620.956,111.889z M620.956,116.525
		c0.607,0,0.719-0.928,0.719-1.799c0-0.879-0.144-1.842-0.732-1.842c-0.568,0-0.723,0.795-0.729,2.023
		C620.212,115.534,620.308,116.525,620.956,116.525z"/>
	<path fill="#231F20" d="M626.251,111.889c1.736,0,1.92,2.055,1.92,2.822c0,1.23-0.408,2.807-1.967,2.807
		c-1.279,0-1.879-1.119-1.879-2.871C624.325,113.119,624.925,111.889,626.251,111.889z M626.251,116.525
		c0.608,0,0.721-0.928,0.721-1.799c0-0.879-0.145-1.842-0.734-1.842c-0.567,0-0.721,0.795-0.729,2.023
		C625.508,115.534,625.604,116.525,626.251,116.525z"/>
</g>
<g>
	<path fill="#231F20" d="M699.39,111.889c1.734,0,1.918,2.055,1.918,2.822c0,1.23-0.405,2.807-1.967,2.807
		c-1.277,0-1.879-1.119-1.879-2.871C697.462,113.119,698.062,111.889,699.39,111.889z M699.39,116.525
		c0.607,0,0.721-0.928,0.721-1.799c0-0.879-0.146-1.842-0.734-1.842c-0.568,0-0.721,0.795-0.729,2.023
		C698.646,115.534,698.741,116.525,699.39,116.525z"/>
	<path fill="#231F20" d="M704.685,111.889c1.736,0,1.92,2.055,1.92,2.822c0,1.23-0.406,2.807-1.967,2.807
		c-1.277,0-1.879-1.119-1.879-2.871C702.759,113.119,703.358,111.889,704.685,111.889z M704.685,116.525
		c0.608,0,0.723-0.928,0.723-1.799c0-0.879-0.146-1.842-0.736-1.842c-0.567,0-0.719,0.795-0.728,2.023
		C703.941,115.534,704.038,116.525,704.685,116.525z"/>
</g>
<g>
	<path fill="#231F20" d="M176.182,42.556v-0.191c0-1.279,0.824-1.848,1.903-1.848c1.111,0,1.839,0.608,1.839,1.655
		c0,0.943-0.512,1.663-2.095,2.871c0,0,1.887-0.032,2.111-0.032v1.023h-3.718v-0.943c0.416-0.328,0.695-0.544,1.255-1.023
		c0.64-0.56,1.103-1.016,1.103-1.871c0-0.216,0-0.744-0.551-0.744c-0.216,0-0.592,0.097-0.592,0.664
		c0,0.136,0.016,0.344,0.032,0.512L176.182,42.556z"/>
	<path fill="#231F20" d="M183.469,40.525c1.735,0,1.919,2.055,1.919,2.822c0,1.231-0.408,2.807-1.967,2.807
		c-1.279,0-1.879-1.12-1.879-2.871C181.542,41.756,182.142,40.525,183.469,40.525z M183.469,45.162c0.608,0,0.72-0.927,0.72-1.799
		c0-0.879-0.144-1.839-0.735-1.839c-0.568,0-0.72,0.792-0.728,2.022C182.725,44.171,182.821,45.162,183.469,45.162z"/>
</g>
<path fill="#231F20" d="M429.021,44.491c0,1.239-1.087,1.631-1.919,1.631c-1.215,0-1.919-0.68-1.919-1.64
	c0-0.911,0.655-1.175,0.969-1.295c-0.218-0.128-0.744-0.447-0.744-1.224c0-0.663,0.456-1.447,1.711-1.447
	c0.942,0,1.679,0.512,1.679,1.487c0,0.808-0.504,1.048-0.768,1.176C428.373,43.308,429.021,43.604,429.021,44.491z M427.109,43.604
	c-0.32,0-0.634,0.256-0.634,0.775c0,0.567,0.313,0.783,0.616,0.783c0.384,0,0.632-0.239,0.632-0.783
	C427.725,44.02,427.557,43.604,427.109,43.604z M427.125,41.461c-0.368,0-0.528,0.295-0.528,0.631c0,0.408,0.178,0.688,0.521,0.688
	c0.358,0,0.504-0.287,0.504-0.615C427.621,41.74,427.437,41.461,427.125,41.461z"/>
<path fill="#231F20" d="M432.413,40.525c1.735,0,1.919,2.055,1.919,2.822c0,1.231-0.408,2.807-1.967,2.807
	c-1.279,0-1.879-1.12-1.879-2.871C430.486,41.756,431.086,40.525,432.413,40.525z M432.413,45.162c0.606,0,0.72-0.927,0.72-1.799
	c0-0.879-0.144-1.839-0.733-1.839c-0.568,0-0.722,0.792-0.729,2.022C431.669,44.171,431.766,45.162,432.413,45.162z"/>
<g>
	<path fill="#231F20" d="M344.794,42.128v-0.104c0-0.32-0.208-0.544-0.496-0.544c-0.696,0-0.768,1.031-0.792,1.711
		c0.136-0.296,0.56-0.632,1.175-0.632c0.656,0,1.495,0.464,1.495,1.663c0,1.208-0.8,1.903-1.943,1.903
		c-0.952,0-1.943-0.607-1.943-2.671c0-1.471,0.344-2.942,2.111-2.942c1.375,0,1.599,1.071,1.671,1.472L344.794,42.128z
		 M344.291,45.183c0.664,0,0.664-0.72,0.664-0.872c0-0.208-0.032-0.831-0.648-0.831c-0.368,0-0.64,0.288-0.64,0.831
		C343.667,44.606,343.739,45.183,344.291,45.183z"/>
	<path fill="#231F20" d="M349.499,40.529c1.735,0,1.919,2.055,1.919,2.822c0,1.231-0.408,2.807-1.967,2.807
		c-1.279,0-1.879-1.12-1.879-2.871C347.572,41.76,348.171,40.529,349.499,40.529z M349.499,45.166c0.608,0,0.72-0.927,0.72-1.799
		c0-0.879-0.144-1.839-0.735-1.839c-0.568,0-0.72,0.792-0.728,2.022C348.755,44.175,348.851,45.166,349.499,45.166z"/>
</g>
<path fill="#231F20" d="M262.615,44.774v1.255h-1.263v-1.247h-2.199c0-0.184,0.016-0.976,0.016-0.976l2.239-3.198h1.207v3.286h0.72
	v0.879L262.615,44.774L262.615,44.774z M261.36,41.984l-1.288,1.911h1.288V41.984z"/>
<path fill="#231F20" d="M292.5,114.959v1.255h-1.263v-1.247h-2.199c0-0.184,0.016-0.976,0.016-0.976l2.239-3.198h1.207v3.286h0.72
	v0.879L292.5,114.959L292.5,114.959z M291.245,112.169l-1.288,1.911h1.288V112.169z"/>
<path fill="#231F20" d="M297.521,114.959v1.255h-1.263v-1.247h-2.199c0-0.184,0.016-0.976,0.016-0.976l2.239-3.198h1.207v3.286h0.72
	v0.879L297.521,114.959L297.521,114.959z M296.266,112.169l-1.288,1.911h1.288V112.169z"/>
<path fill="#231F20" d="M266.607,40.521c1.735,0,1.919,2.055,1.919,2.822c0,1.231-0.408,2.807-1.967,2.807
	c-1.279,0-1.879-1.12-1.879-2.871C264.681,41.752,265.28,40.521,266.607,40.521z M266.607,45.158c0.608,0,0.72-0.927,0.72-1.799
	c0-0.879-0.144-1.839-0.735-1.839c-0.568,0-0.72,0.792-0.728,2.023C265.864,44.167,265.96,45.158,266.607,45.158z"/>
<g>
	<path fill="#231F20" d="M636.209,111.881c1.734,0,1.918,2.055,1.918,2.822c0,1.23-0.406,2.807-1.967,2.807
		c-1.279,0-1.879-1.119-1.879-2.869C634.281,113.111,634.881,111.881,636.209,111.881z M636.209,116.52
		c0.607,0,0.719-0.929,0.719-1.799c0-0.881-0.143-1.841-0.732-1.841c-0.568,0-0.723,0.792-0.729,2.022
		C635.465,115.525,635.561,116.52,636.209,116.52z"/>
	<path fill="#231F20" d="M639.617,117.391v-1.336h1.264v1.336H639.617z"/>
	<path fill="#231F20" d="M642.762,112.775c0.328-0.023,0.602-0.049,0.896-0.199c0.352-0.184,0.455-0.393,0.559-0.607h0.979v5.422
		h-1.287v-3.959c-0.297,0.129-0.369,0.16-1.146,0.178V112.775L642.762,112.775z"/>
</g>
<g>
	<path fill="#231F20" d="M655.511,111.896c1.734,0,1.918,2.055,1.918,2.82c0,1.231-0.405,2.809-1.967,2.809
		c-1.279,0-1.879-1.121-1.879-2.871C653.583,113.127,654.183,111.896,655.511,111.896z M655.511,116.533
		c0.607,0,0.719-0.928,0.719-1.799c0-0.881-0.144-1.84-0.732-1.84c-0.568,0-0.721,0.791-0.729,2.021
		C654.767,115.541,654.862,116.533,655.511,116.533z"/>
	<path fill="#231F20" d="M658.919,117.404v-1.336h1.264v1.336H658.919z"/>
	<path fill="#231F20" d="M661.616,113.926v-0.191c0-1.277,0.823-1.848,1.9-1.848c1.111,0,1.841,0.608,1.841,1.656
		c0,0.943-0.514,1.662-2.097,2.87c0,0,1.889-0.032,2.111-0.032v1.023h-3.719v-0.943c0.416-0.328,0.694-0.544,1.256-1.023
		c0.64-0.56,1.104-1.016,1.104-1.871c0-0.215,0-0.742-0.552-0.742c-0.216,0-0.592,0.097-0.592,0.662
		c0,0.139,0.017,0.346,0.032,0.514L661.616,113.926z"/>
</g>
<g>
	<path fill="#231F20" d="M674.903,111.896c1.732,0,1.918,2.055,1.918,2.82c0,1.231-0.407,2.809-1.967,2.809
		c-1.279,0-1.881-1.121-1.881-2.871C672.976,113.127,673.575,111.896,674.903,111.896z M674.903,116.533
		c0.605,0,0.719-0.928,0.719-1.799c0-0.881-0.146-1.84-0.734-1.84c-0.566,0-0.721,0.791-0.729,2.021
		C674.159,115.541,674.255,116.533,674.903,116.533z"/>
	<path fill="#231F20" d="M678.312,117.404v-1.336h1.266v1.336H678.312z"/>
	<path fill="#231F20" d="M681.104,113.525c0.128-1.303,1.021-1.641,1.895-1.641c1.463,0,1.768,0.938,1.768,1.456
		c0,0.681-0.393,1.031-0.896,1.207c0.68,0.12,1.032,0.616,1.032,1.239c0,0.512-0.336,1.711-2.058,1.711
		c-1.197,0-1.846-0.721-1.846-1.799v-0.12l1.246-0.104c0,0-0.008,0.15-0.008,0.23c0,0.504,0.297,0.8,0.664,0.8
		c0.424,0,0.711-0.296,0.711-0.8c0-0.615-0.463-0.695-0.8-0.695c-0.063,0-0.177,0.008-0.177,0.008v-0.92c0,0,0.119,0.01,0.186,0.01
		c0.68,0,0.68-0.584,0.68-0.641c0-0.439-0.32-0.615-0.584-0.615c-0.551,0-0.551,0.553-0.551,0.783L681.104,113.525z"/>
</g>
<g>
	<path fill="#231F20" d="M182.666,110.641c1.732,0,1.918,2.055,1.918,2.82c0,1.231-0.407,2.809-1.967,2.809
		c-1.279,0-1.881-1.121-1.881-2.871C180.738,111.871,181.338,110.641,182.666,110.641z M182.666,115.277
		c0.605,0,0.719-0.928,0.719-1.799c0-0.881-0.146-1.84-0.734-1.84c-0.566,0-0.721,0.791-0.729,2.021
		C181.922,114.285,182.018,115.277,182.666,115.277z"/>
	<path fill="#231F20" d="M175.938,112.289c0.128-1.303,1.021-1.641,1.895-1.641c1.463,0,1.768,0.938,1.768,1.456
		c0,0.681-0.393,1.031-0.896,1.207c0.68,0.12,1.032,0.616,1.032,1.239c0,0.512-0.336,1.711-2.058,1.711
		c-1.197,0-1.846-0.721-1.846-1.799v-0.12l1.246-0.104c0,0-0.008,0.15-0.008,0.23c0,0.504,0.297,0.8,0.664,0.8
		c0.424,0,0.711-0.296,0.711-0.8c0-0.615-0.463-0.695-0.8-0.695c-0.063,0-0.177,0.008-0.177,0.008v-0.92c0,0,0.119,0.01,0.186,0.01
		c0.68,0,0.68-0.584,0.68-0.641c0-0.439-0.32-0.615-0.584-0.615c-0.551,0-0.551,0.553-0.551,0.783L175.938,112.289z"/>
</g>
<g>
	<path fill="#231F20" d="M714.273,111.881c1.732,0,1.918,2.055,1.918,2.822c0,1.23-0.406,2.807-1.969,2.807
		c-1.277,0-1.879-1.119-1.879-2.869C712.346,113.111,712.945,111.881,714.273,111.881z M714.273,116.52
		c0.605,0,0.719-0.929,0.719-1.799c0-0.881-0.145-1.841-0.734-1.841c-0.566,0-0.721,0.792-0.729,2.022
		C713.529,115.525,713.625,116.52,714.273,116.52z"/>
	<path fill="#231F20" d="M717.682,117.391v-1.336h1.266v1.336H717.682z"/>
	<path fill="#231F20" d="M720.826,112.775c0.328-0.023,0.6-0.049,0.896-0.199c0.354-0.184,0.455-0.393,0.561-0.607h0.977v5.422
		h-1.287v-3.959c-0.297,0.129-0.369,0.16-1.145,0.178L720.826,112.775L720.826,112.775z"/>
</g>
<g>
	<path fill="#231F20" d="M733.575,111.896c1.732,0,1.918,2.055,1.918,2.82c0,1.231-0.407,2.809-1.967,2.809
		c-1.279,0-1.879-1.121-1.879-2.871C731.647,113.127,732.247,111.896,733.575,111.896z M733.575,116.533
		c0.605,0,0.719-0.928,0.719-1.799c0-0.881-0.144-1.84-0.734-1.84c-0.566,0-0.721,0.791-0.729,2.021
		C732.831,115.541,732.927,116.533,733.575,116.533z"/>
	<path fill="#231F20" d="M736.983,117.404v-1.336h1.264v1.336H736.983z"/>
	<path fill="#231F20" d="M739.681,113.926v-0.191c0-1.277,0.823-1.848,1.902-1.848c1.111,0,1.839,0.608,1.839,1.656
		c0,0.943-0.512,1.662-2.095,2.87c0,0,1.887-0.032,2.111-0.032v1.023h-3.721v-0.943c0.416-0.328,0.696-0.544,1.256-1.023
		c0.642-0.56,1.104-1.016,1.104-1.871c0-0.215,0-0.742-0.552-0.742c-0.217,0-0.594,0.097-0.594,0.662
		c0,0.139,0.019,0.346,0.032,0.514L739.681,113.926z"/>
</g>
<g>
	<path fill="#231F20" d="M752.968,111.896c1.734,0,1.918,2.055,1.918,2.82c0,1.231-0.405,2.809-1.967,2.809
		c-1.279,0-1.879-1.121-1.879-2.871C751.04,113.127,751.64,111.896,752.968,111.896z M752.968,116.533
		c0.607,0,0.719-0.928,0.719-1.799c0-0.881-0.144-1.84-0.732-1.84c-0.568,0-0.721,0.791-0.729,2.021
		C752.224,115.541,752.319,116.533,752.968,116.533z"/>
	<path fill="#231F20" d="M756.376,117.404v-1.336h1.264v1.336H756.376z"/>
	<path fill="#231F20" d="M759.169,113.525c0.128-1.303,1.023-1.641,1.896-1.641c1.463,0,1.768,0.938,1.768,1.456
		c0,0.681-0.393,1.031-0.896,1.207c0.681,0.12,1.031,0.616,1.031,1.239c0,0.512-0.336,1.711-2.056,1.711
		c-1.199,0-1.846-0.721-1.846-1.799v-0.12l1.244-0.104c0,0-0.008,0.15-0.008,0.23c0,0.504,0.297,0.8,0.664,0.8
		c0.424,0,0.711-0.296,0.711-0.8c0-0.615-0.463-0.695-0.799-0.695c-0.063,0-0.176,0.008-0.176,0.008v-0.92
		c0,0,0.119,0.01,0.184,0.01c0.682,0,0.682-0.584,0.682-0.641c0-0.439-0.32-0.615-0.584-0.615c-0.553,0-0.553,0.553-0.553,0.783
		L759.169,113.525z"/>
</g>
<g>
	<path fill="#231F20" d="M620.36,66.204c1.734,0,1.92,2.055,1.92,2.821c0,1.23-0.408,2.808-1.967,2.808
		c-1.279,0-1.881-1.12-1.881-2.87C618.435,67.436,619.034,66.204,620.36,66.204z M620.36,70.842c0.606,0,0.721-0.928,0.721-1.799
		c0-0.88-0.146-1.84-0.736-1.84c-0.565,0-0.719,0.792-0.728,2.023C619.617,69.85,619.714,70.842,620.36,70.842z"/>
	<path fill="#231F20" d="M623.771,71.713v-1.336h1.265v1.336H623.771z"/>
	<path fill="#231F20" d="M629.761,70.457v1.256h-1.264v-1.247h-2.199c0-0.185,0.019-0.976,0.019-0.976l2.237-3.198h1.207v3.286
		h0.721v0.879H629.761z M628.505,67.667l-1.287,1.911h1.287V67.667z"/>
</g>
<g>
	<path fill="#231F20" d="M750.531,67.107c0.328-0.023,0.6-0.049,0.896-0.199c0.354-0.184,0.455-0.393,0.561-0.607h0.977v5.422
		h-1.287v-3.959c-0.297,0.129-0.369,0.16-1.145,0.178L750.531,67.107L750.531,67.107z"/>
	<path fill="#231F20" d="M755.484,71.723v-1.337h1.263v1.337H755.484z"/>
	<path fill="#231F20" d="M758.18,68.243v-0.191c0-1.278,0.824-1.848,1.903-1.848c1.111,0,1.839,0.608,1.839,1.655
		c0,0.942-0.512,1.662-2.095,2.871c0,0,1.888-0.032,2.109-0.032v1.022h-3.718v-0.943c0.415-0.327,0.695-0.543,1.255-1.022
		c0.642-0.56,1.104-1.016,1.104-1.871c0-0.216,0-0.743-0.552-0.743c-0.217,0-0.594,0.096-0.594,0.664
		c0,0.137,0.018,0.344,0.031,0.512L758.18,68.243z"/>
</g>
<g>
	<path fill="#231F20" d="M653.548,66.221c1.736,0,1.92,2.055,1.92,2.822c0,1.23-0.408,2.807-1.967,2.807
		c-1.279,0-1.879-1.119-1.879-2.869C651.622,67.452,652.222,66.221,653.548,66.221z M653.548,70.857
		c0.608,0,0.721-0.928,0.721-1.799c0-0.879-0.145-1.841-0.734-1.841c-0.567,0-0.72,0.792-0.729,2.023
		C652.805,69.866,652.901,70.857,653.548,70.857z"/>
	<path fill="#231F20" d="M656.958,71.729v-1.336h1.263v1.336H656.958z"/>
	<path fill="#231F20" d="M662.236,67.818v-0.104c0-0.319-0.208-0.544-0.495-0.544c-0.696,0-0.77,1.032-0.792,1.711
		c0.136-0.296,0.56-0.632,1.175-0.632c0.656,0,1.496,0.465,1.496,1.664c0,1.207-0.8,1.901-1.943,1.901
		c-0.951,0-1.941-0.606-1.941-2.67c0-1.473,0.344-2.942,2.109-2.942c1.375,0,1.602,1.071,1.671,1.472L662.236,67.818z
		 M661.732,70.874c0.663,0,0.663-0.72,0.663-0.871c0-0.209-0.031-0.832-0.646-0.832c-0.368,0-0.641,0.288-0.641,0.832
		C661.108,70.298,661.181,70.874,661.732,70.874z"/>
</g>
<g>
	<path fill="#231F20" d="M686.689,66.213c1.732,0,1.918,2.055,1.918,2.822c0,1.23-0.406,2.807-1.969,2.807
		c-1.277,0-1.879-1.119-1.879-2.869C684.762,67.443,685.361,66.213,686.689,66.213z M686.689,70.852c0.605,0,0.719-0.929,0.719-1.8
		c0-0.88-0.145-1.84-0.734-1.84c-0.566,0-0.721,0.792-0.729,2.022C685.945,69.857,686.041,70.852,686.689,70.852z"/>
	<path fill="#231F20" d="M690.098,71.723v-1.337h1.266v1.337H690.098z"/>
	<path fill="#231F20" d="M696.689,70.18c0,1.238-1.09,1.631-1.922,1.631c-1.215,0-1.918-0.681-1.918-1.64
		c0-0.912,0.654-1.176,0.969-1.296c-0.219-0.128-0.744-0.447-0.744-1.225c0-0.662,0.457-1.446,1.711-1.446
		c0.941,0,1.68,0.512,1.68,1.487c0,0.808-0.504,1.048-0.768,1.176C696.041,68.995,696.689,69.291,696.689,70.18z M694.777,69.291
		c-0.32,0-0.633,0.256-0.633,0.775c0,0.565,0.313,0.783,0.615,0.783c0.383,0,0.631-0.24,0.631-0.783
		C695.393,69.707,695.225,69.291,694.777,69.291z M694.793,67.148c-0.367,0-0.527,0.295-0.527,0.631
		c0,0.408,0.178,0.688,0.521,0.688c0.359,0,0.504-0.287,0.504-0.615C695.289,67.43,695.104,67.148,694.793,67.148z"/>
</g>
<g>
	<path fill="#231F20" d="M717.831,67.1c0.327-0.022,0.6-0.049,0.895-0.199c0.354-0.185,0.456-0.393,0.563-0.606h0.975v5.421h-1.287
		v-3.958c-0.295,0.128-0.365,0.16-1.143,0.179L717.831,67.1L717.831,67.1z"/>
	<path fill="#231F20" d="M722.782,71.713v-1.336h1.264v1.336H722.782z"/>
	<path fill="#231F20" d="M727.47,66.204c1.735,0,1.919,2.055,1.919,2.821c0,1.23-0.405,2.808-1.967,2.808
		c-1.279,0-1.879-1.12-1.879-2.87C725.543,67.436,726.143,66.204,727.47,66.204z M727.47,70.842c0.607,0,0.722-0.928,0.722-1.799
		c0-0.88-0.146-1.84-0.735-1.84c-0.568,0-0.72,0.792-0.729,2.023C726.727,69.85,726.822,70.842,727.47,70.842z"/>
</g>
</svg>
