  0
SECTION
  2
HEADER
  9
$ACADVER
  1
AC1009
  9
$DWGCODEPAGE
  3
ansi_1252
  9
$INSBASE
 10
0.0
 20
0.0
 30
0.0
  9
$EXTMIN
 10
-270.5418781029592
 20
-276.6449378612766
 30
0.0
  9
$EXTMAX
 10
-24.33038334884705
 20
-20.90941180506888
 30
0.0
  9
$LIMMIN
 10
0.0
 20
0.0
  9
$LIMMAX
 10
12.0
 20
9.0
  9
$ORTHOMODE
 70
     0
  9
$REGENMODE
 70
     1
  9
$FILLMODE
 70
     1
  9
$QTEXTMODE
 70
     0
  9
$MIRRTEXT
 70
     1
  9
$DRAGMODE
 70
     2
  9
$LTSCALE
 40
1.0
  9
$OSMODE
 70
    37
  9
$ATTMODE
 70
     1
  9
$TEXTSIZE
 40
0.2
  9
$TRACEWID
 40
0.05
  9
$TEXTSTYLE
  7
STANDARD
  9
$CLAYER
  8
0
  9
$CELTYPE
  6
BYLAYER
  9
$CECOLOR
 62
   256
  9
$DIMSCALE
 40
1.0
  9
$DIMASZ
 40
0.18
  9
$DIMEXO
 40
0.0625
  9
$DIMDLI
 40
0.38
  9
$DIMRND
 40
0.0
  9
$DIMDLE
 40
0.0
  9
$DIMEXE
 40
0.18
  9
$DIMTP
 40
0.0
  9
$DIMTM
 40
0.0
  9
$DIMTXT
 40
0.18
  9
$DIMCEN
 40
0.09
  9
$DIMTSZ
 40
0.0
  9
$DIMTOL
 70
     0
  9
$DIMLIM
 70
     0
  9
$DIMTIH
 70
     1
  9
$DIMTOH
 70
     1
  9
$DIMSE1
 70
     0
  9
$DIMSE2
 70
     0
  9
$DIMTAD
 70
     0
  9
$DIMZIN
 70
     0
  9
$DIMBLK
  1

  9
$DIMASO
 70
     1
  9
$DIMSHO
 70
     1
  9
$DIMPOST
  1

  9
$DIMAPOST
  1

  9
$DIMALT
 70
     0
  9
$DIMALTD
 70
     2
  9
$DIMALTF
 40
25.4
  9
$DIMLFAC
 40
1.0
  9
$DIMTOFL
 70
     0
  9
$DIMTVP
 40
0.0
  9
$DIMTIX
 70
     0
  9
$DIMSOXD
 70
     0
  9
$DIMSAH
 70
     0
  9
$DIMBLK1
  1

  9
$DIMBLK2
  1

  9
$DIMSTYLE
  2
STANDARD
  9
$DIMCLRD
 70
     0
  9
$DIMCLRE
 70
     0
  9
$DIMCLRT
 70
     0
  9
$DIMTFAC
 40
1.0
  9
$DIMGAP
 40
0.09
  9
$LUNITS
 70
     2
  9
$LUPREC
 70
     4
  9
$SKETCHINC
 40
0.1
  9
$FILLETRAD
 40
0.5
  9
$AUNITS
 70
     0
  9
$AUPREC
 70
     0
  9
$MENU
  1
.
  9
$ELEVATION
 40
0.0
  9
$PELEVATION
 40
0.0
  9
$THICKNESS
 40
0.0
  9
$LIMCHECK
 70
     0
  9
$CHAMFERA
 40
0.5
  9
$CHAMFERB
 40
0.5
  9
$SKPOLY
 70
     0
  9
$TDCREATE
 40
2454910.5
  9
$TDUPDATE
 40
2456732.606232986
  9
$TDINDWG
 40
0.0000000116
  9
$TDUSRTIMER
 40
0.0000000116
  9
$USRTIMER
 70
     1
  9
$ANGBASE
 50
0.0
  9
$ANGDIR
 70
     0
  9
$PDMODE
 70
     0
  9
$PDSIZE
 40
0.0
  9
$PLINEWID
 40
0.0
  9
$COORDS
 70
     1
  9
$SPLFRAME
 70
     0
  9
$SPLINETYPE
 70
     6
  9
$SPLINESEGS
 70
     8
  9
$ATTDIA
 70
     0
  9
$ATTREQ
 70
     1
  9
$HANDLING
 70
     1
  9
$HANDSEED
  5
63F
  9
$SURFTAB1
 70
     6
  9
$SURFTAB2
 70
     6
  9
$SURFTYPE
 70
     6
  9
$SURFU
 70
     6
  9
$SURFV
 70
     6
  9
$UCSNAME
  2

  9
$UCSORG
 10
0.0
 20
0.0
 30
0.0
  9
$UCSXDIR
 10
1.0
 20
0.0
 30
0.0
  9
$UCSYDIR
 10
0.0
 20
1.0
 30
0.0
  9
$PUCSNAME
  2

  9
$PUCSORG
 10
0.0
 20
0.0
 30
0.0
  9
$PUCSXDIR
 10
1.0
 20
0.0
 30
0.0
  9
$PUCSYDIR
 10
0.0
 20
1.0
 30
0.0
  9
$USERI1
 70
     0
  9
$USERI2
 70
     0
  9
$USERI3
 70
     0
  9
$USERI4
 70
     0
  9
$USERI5
 70
     0
  9
$USERR1
 40
0.0
  9
$USERR2
 40
0.0
  9
$USERR3
 40
0.0
  9
$USERR4
 40
0.0
  9
$USERR5
 40
0.0
  9
$WORLDVIEW
 70
     1
  9
$SHADEDGE
 70
     3
  9
$SHADEDIF
 70
    70
  9
$TILEMODE
 70
     1
  9
$MAXACTVP
 70
    64
  9
$PLIMCHECK
 70
     0
  9
$PEXTMIN
 10
1.000000000000000E+20
 20
1.000000000000000E+20
 30
1.000000000000000E+20
  9
$PEXTMAX
 10
-1.000000000000000E+20
 20
-1.000000000000000E+20
 30
-1.000000000000000E+20
  9
$PLIMMIN
 10
0.0
 20
0.0
  9
$PLIMMAX
 10
12.0
 20
9.0
  9
$UNITMODE
 70
     0
  9
$VISRETAIN
 70
     1
  9
$PLINEGEN
 70
     0
  9
$PSLTSCALE
 70
     1
  0
ENDSEC
  0
SECTION
  2
TABLES
  0
TABLE
  2
VPORT
 70
     1
  0
VPORT
  2
*ACTIVE
 70
     0
 10
0.0
 20
0.0
 11
1.0
 21
1.0
 12
10.42990654205607
 22
4.5
 13
0.0
 23
0.0
 14
0.5
 24
0.5
 15
0.5
 25
0.5
 16
0.0
 26
0.0
 36
1.0
 17
0.0
 27
0.0
 37
0.0
 40
9.0
 41
1.972972972850329
 42
50.0
 43
0.0
 44
0.0
 50
0.0
 51
0.0
 71
     0
 72
   100
 73
     1
 74
     3
 75
     0
 76
     0
 77
     0
 78
     0
  0
ENDTAB
  0
TABLE
  2
LTYPE
 70
     2
  0
LTYPE
  2
CONTINUOUS
 70
     0
  3
Solid line
 72
    65
 73
     0
 40
0.0
  0
LTYPE
  2
CONTINUOUS2
 70
     0
  3
Solid Line
 72
    65
 73
     0
 40
0.0
  0
ENDTAB
  0
TABLE
  2
LAYER
 70
     2
  0
LAYER
  2
0
 70
     0
 62
     7
  6
CONTINUOUS
  0
LAYER
  2
LAYER_1
 70
     0
 62
    18
  6
CONTINUOUS
  0
ENDTAB
  0
TABLE
  2
STYLE
 70
     1
  0
STYLE
  2
STANDARD
 70
     0
 40
0.0
 41
1.0
 50
0.0
 71
     0
 42
0.2
  3
txt
  4

  0
ENDTAB
  0
TABLE
  2
VIEW
 70
     0
  0
ENDTAB
  0
TABLE
  2
UCS
 70
     0
  0
ENDTAB
  0
TABLE
  2
APPID
 70
     1
  0
APPID
  2
ACAD
 70
     0
  0
ENDTAB
  0
TABLE
  2
DIMSTYLE
 70
     1
  0
DIMSTYLE
  2
STANDARD
 70
     0
  3

  4

  5

  6

  7

 40
1.0
 41
0.18
 42
0.0625
 43
0.38
 44
0.18
 45
0.0
 46
0.0
 47
0.0
 48
0.0
140
0.18
141
0.09
142
0.0
143
25.4
144
1.0
145
0.0
146
1.0
147
0.09
 71
     0
 72
     0
 73
     1
 74
     1
 75
     0
 76
     0
 77
     0
 78
     0
170
     0
171
     2
172
     0
173
     0
174
     0
175
     0
176
     0
177
     0
178
     0
  0
ENDTAB
  0
ENDSEC
  0
SECTION
  2
BLOCKS
  0
BLOCK
  8
0
  2
$MODEL_SPACE
 70
     0
 10
0.0
 20
0.0
 30
0.0
  3
$MODEL_SPACE
  1

  0
ENDBLK
  5
21
  8
0
  0
BLOCK
 67
     1
  8
0
  2
$PAPER_SPACE
 70
     0
 10
0.0
 20
0.0
 30
0.0
  3
$PAPER_SPACE
  1

  0
ENDBLK
  5
1D
 67
     1
  8
0
  0
ENDSEC
  0
SECTION
  2
ENTITIES
  0
POLYLINE
  5
41
  8
LAYER_1
 66
     1
 10
0.0
 20
0.0
 30
0.0
 70
     1
  0
VERTEX
  5
56
  8
LAYER_1
 10
-80.20316530241772
 20
-98.08901362499068
 30
0.0
  0
VERTEX
  5
57
  8
LAYER_1
 10
-80.20316530241772
 20
-129.6003644328753
 30
0.0
  0
VERTEX
  5
58
  8
LAYER_1
 10
-111.481071677879
 20
-129.6003644328753
 30
0.0
  0
VERTEX
  5
59
  8
LAYER_1
 10
-111.502144304918
 20
-128.6803208980076
 30
0.0
  0
VERTEX
  5
5A
  8
LAYER_1
 10
-111.5461027134784
 20
-127.7661126309136
 30
0.0
  0
VERTEX
  5
5B
  8
LAYER_1
 10
-111.612670097122
 20
-126.858016552825
 30
0.0
  0
VERTEX
  5
5C
  8
LAYER_1
 10
-111.7015696494106
 20
-125.9563095849738
 30
0.0
  0
VERTEX
  5
5D
  8
LAYER_1
 10
-111.8125245639055
 20
-125.0612686485919
 30
0.0
  0
VERTEX
  5
5E
  8
LAYER_1
 10
-111.9452580341684
 20
-124.1731706649114
 30
0.0
  0
VERTEX
  5
5F
  8
LAYER_1
 10
-112.0994932537611
 20
-123.2922925551642
 30
0.0
  0
VERTEX
  5
60
  8
LAYER_1
 10
-112.2749534162451
 20
-122.4189112405821
 30
0.0
  0
VERTEX
  5
61
  8
LAYER_1
 10
-112.471361715182
 20
-121.5533036423971
 30
0.0
  0
VERTEX
  5
62
  8
LAYER_1
 10
-112.6884413441335
 20
-120.6957466818413
 30
0.0
  0
VERTEX
  5
63
  8
LAYER_1
 10
-112.9259154966612
 20
-119.8465172801463
 30
0.0
  0
VERTEX
  5
64
  8
LAYER_1
 10
-113.1835073663268
 20
-119.0058923585444
 30
0.0
  0
VERTEX
  5
65
  8
LAYER_1
 10
-113.4609401466918
 20
-118.1741488382673
 30
0.0
  0
VERTEX
  5
66
  8
LAYER_1
 10
-113.7579370313181
 20
-117.3515636405471
 30
0.0
  0
VERTEX
  5
67
  8
LAYER_1
 10
-114.0742212137671
 20
-116.5384136866157
 30
0.0
  0
VERTEX
  5
68
  8
LAYER_1
 10
-114.4095158876003
 20
-115.734975897705
 30
0.0
  0
VERTEX
  5
69
  8
LAYER_1
 10
-114.7635442463797
 20
-114.9415271950469
 30
0.0
  0
VERTEX
  5
6A
  8
LAYER_1
 10
-115.1360294836666
 20
-114.1583444998734
 30
0.0
  0
VERTEX
  5
6B
  8
LAYER_1
 10
-115.526694793023
 20
-113.3857047334164
 30
0.0
  0
VERTEX
  5
6C
  8
LAYER_1
 10
-115.9352633680101
 20
-112.6238848169079
 30
0.0
  0
VERTEX
  5
6D
  8
LAYER_1
 10
-116.3614584021898
 20
-111.8731616715798
 30
0.0
  0
VERTEX
  5
6E
  8
LAYER_1
 10
-116.8050030891238
 20
-111.1338122186641
 30
0.0
  0
VERTEX
  5
6F
  8
LAYER_1
 10
-117.2656206223735
 20
-110.4061133793927
 30
0.0
  0
VERTEX
  5
70
  8
LAYER_1
 10
-117.7430341955006
 20
-109.6903420749975
 30
0.0
  0
VERTEX
  5
71
  8
LAYER_1
 10
-118.2369670020667
 20
-108.9867752267105
 30
0.0
  0
VERTEX
  5
72
  8
LAYER_1
 10
-118.7471422356337
 20
-108.2956897557636
 30
0.0
  0
VERTEX
  5
73
  8
LAYER_1
 10
-119.273283089763
 20
-107.6173625833888
 30
0.0
  0
VERTEX
  5
74
  8
LAYER_1
 10
-119.8151127580161
 20
-106.952070630818
 30
0.0
  0
VERTEX
  5
75
  8
LAYER_1
 10
-120.372354433955
 20
-106.3000908192831
 30
0.0
  0
VERTEX
  5
76
  8
LAYER_1
 10
-120.944731311141
 20
-105.661700070016
 30
0.0
  0
VERTEX
  5
77
  8
LAYER_1
 10
-121.531966583136
 20
-105.0371753042488
 30
0.0
  0
VERTEX
  5
78
  8
LAYER_1
 10
-122.1337834435014
 20
-104.4267934432135
 30
0.0
  0
VERTEX
  5
79
  8
LAYER_1
 10
-122.749905085799
 20
-103.8308314081418
 30
0.0
  0
VERTEX
  5
7A
  8
LAYER_1
 10
-123.3800547035902
 20
-103.2495661202657
 30
0.0
  0
VERTEX
  5
7B
  8
LAYER_1
 10
-124.023955490437
 20
-102.6832745008172
 30
0.0
  0
VERTEX
  5
7C
  8
LAYER_1
 10
-124.6813306399006
 20
-102.1322334710282
 30
0.0
  0
VERTEX
  5
7D
  8
LAYER_1
 10
-125.3519033455429
 20
-101.5967199521307
 30
0.0
  0
VERTEX
  5
7E
  8
LAYER_1
 10
-126.0353968009255
 20
-101.0770108653566
 30
0.0
  0
VERTEX
  5
7F
  8
LAYER_1
 10
-126.7315341996101
 20
-100.5733831319379
 30
0.0
  0
VERTEX
  5
80
  8
LAYER_1
 10
-127.4400387351582
 20
-100.0861136731065
 30
0.0
  0
VERTEX
  5
81
  8
LAYER_1
 10
-128.1606336011316
 20
-99.61547941009417
 30
0.0
  0
VERTEX
  5
82
  8
LAYER_1
 10
-128.8930419910917
 20
-99.16175726413317
 30
0.0
  0
VERTEX
  5
83
  8
LAYER_1
 10
-129.6369870986003
 20
-98.72522415645528
 30
0.0
  0
VERTEX
  5
84
  8
LAYER_1
 10
-130.3921921172189
 20
-98.30615700829239
 30
0.0
  0
VERTEX
  5
85
  8
LAYER_1
 10
-131.1583802405094
 20
-97.90483274087649
 30
0.0
  0
VERTEX
  5
86
  8
LAYER_1
 10
-131.9352746620326
 20
-97.52152827543947
 30
0.0
  0
VERTEX
  5
87
  8
LAYER_1
 10
-132.7225985753516
 20
-97.15652053321347
 30
0.0
  0
VERTEX
  5
88
  8
LAYER_1
 10
-133.5200751740267
 20
-96.81008643543018
 30
0.0
  0
VERTEX
  5
89
  8
LAYER_1
 10
-134.3274276516206
 20
-96.48250290332177
 30
0.0
  0
VERTEX
  5
8A
  8
LAYER_1
 10
-135.1443792016937
 20
-96.17404685811997
 30
0.0
  0
VERTEX
  5
8B
  8
LAYER_1
 10
-135.9706530178086
 20
-95.88499522105678
 30
0.0
  0
VERTEX
  5
8C
  8
LAYER_1
 10
-136.8059722935266
 20
-95.61562491336417
 30
0.0
  0
VERTEX
  5
8D
  8
LAYER_1
 10
-137.6500602224096
 20
-95.36621285627407
 30
0.0
  0
VERTEX
  5
8E
  8
LAYER_1
 10
-138.5026399980187
 20
-95.13703597101846
 30
0.0
  0
VERTEX
  5
8F
  8
LAYER_1
 10
-139.3634348139166
 20
-94.92837117882928
 30
0.0
  0
VERTEX
  5
90
  8
LAYER_1
 10
-140.2321678636636
 20
-94.74049540093847
 30
0.0
  0
VERTEX
  5
91
  8
LAYER_1
 10
-141.1085623408216
 20
-94.57368555857786
 30
0.0
  0
VERTEX
  5
92
  8
LAYER_1
 10
-141.9923414389526
 20
-94.42821857297949
 30
0.0
  0
VERTEX
  5
93
  8
LAYER_1
 10
-142.8832283516186
 20
-94.30437136537537
 30
0.0
  0
VERTEX
  5
94
  8
LAYER_1
 10
-143.7809462723806
 20
-94.20242085699726
 30
0.0
  0
VERTEX
  5
95
  8
LAYER_1
 10
-144.6852183947996
 20
-94.12264396907719
 30
0.0
  0
VERTEX
  5
96
  8
LAYER_1
 10
-145.5957679124386
 20
-94.06531762284718
 30
0.0
  0
VERTEX
  5
97
  8
LAYER_1
 10
-146.5123180188596
 20
-94.03071873953908
 30
0.0
  0
VERTEX
  5
98
  8
LAYER_1
 10
-147.4345919076226
 20
-94.01912424038477
 30
0.0
  0
VERTEX
  5
99
  8
LAYER_1
 10
-148.3568658790016
 20
-94.03071873953908
 30
0.0
  0
VERTEX
  5
9A
  8
LAYER_1
 10
-149.2734162297936
 20
-94.06531762284718
 30
0.0
  0
VERTEX
  5
9B
  8
LAYER_1
 10
-150.1839661483406
 20
-94.12264396907719
 30
0.0
  0
VERTEX
  5
9C
  8
LAYER_1
 10
-151.0882388229866
 20
-94.20242085699726
 30
0.0
  0
VERTEX
  5
9D
  8
LAYER_1
 10
-151.9859574420767
 20
-94.30437136537537
 30
0.0
  0
VERTEX
  5
9E
  8
LAYER_1
 10
-152.8768451939526
 20
-94.42821857297949
 30
0.0
  0
VERTEX
  5
9F
  8
LAYER_1
 10
-153.7606252669596
 20
-94.57368555857786
 30
0.0
  0
VERTEX
  5
A0
  8
LAYER_1
 10
-154.6370208494406
 20
-94.74049540093847
 30
0.0
  0
VERTEX
  5
A1
  8
LAYER_1
 10
-155.5057551297396
 20
-94.92837117882928
 30
0.0
  0
VERTEX
  5
A2
  8
LAYER_1
 10
-156.3665512962005
 20
-95.13703597101846
 30
0.0
  0
VERTEX
  5
A3
  8
LAYER_1
 10
-157.2191325371676
 20
-95.36621285627407
 30
0.0
  0
VERTEX
  5
A4
  8
LAYER_1
 10
-158.0632220409837
 20
-95.61562491336417
 30
0.0
  0
VERTEX
  5
A5
  8
LAYER_1
 10
-158.8985429959917
 20
-95.88499522105678
 30
0.0
  0
VERTEX
  5
A6
  8
LAYER_1
 10
-159.7248185905376
 20
-96.17404685811997
 30
0.0
  0
VERTEX
  5
A7
  8
LAYER_1
 10
-160.5417720129636
 20
-96.48250290332177
 30
0.0
  0
VERTEX
  5
A8
  8
LAYER_1
 10
-161.3491264516145
 20
-96.81008643543018
 30
0.0
  0
VERTEX
  5
A9
  8
LAYER_1
 10
-162.1466050948325
 20
-97.15652053321347
 30
0.0
  0
VERTEX
  5
AA
  8
LAYER_1
 10
-162.9339311309625
 20
-97.52152827543947
 30
0.0
  0
VERTEX
  5
AB
  8
LAYER_1
 10
-163.7108277483485
 20
-97.90483274087649
 30
0.0
  0
VERTEX
  5
AC
  8
LAYER_1
 10
-164.4770181353336
 20
-98.30615700829239
 30
0.0
  0
VERTEX
  5
AD
  8
LAYER_1
 10
-165.2322254802617
 20
-98.72522415645528
 30
0.0
  0
VERTEX
  5
AE
  8
LAYER_1
 10
-165.9761729714756
 20
-99.16175726413317
 30
0.0
  0
VERTEX
  5
AF
  8
LAYER_1
 10
-166.7085837973205
 20
-99.61547941009417
 30
0.0
  0
VERTEX
  5
B0
  8
LAYER_1
 10
-167.4291811461406
 20
-100.0861136731065
 30
0.0
  0
VERTEX
  5
B1
  8
LAYER_1
 10
-168.1376882062776
 20
-100.5733831319379
 30
0.0
  0
VERTEX
  5
B2
  8
LAYER_1
 10
-168.8338281660756
 20
-101.0770108653566
 30
0.0
  0
VERTEX
  5
B3
  8
LAYER_1
 10
-169.5173242138797
 20
-101.5967199521307
 30
0.0
  0
VERTEX
  5
B4
  8
LAYER_1
 10
-170.1878995380337
 20
-102.1322334710282
 30
0.0
  0
VERTEX
  5
B5
  8
LAYER_1
 10
-170.8452773268796
 20
-102.6832745008172
 30
0.0
  0
VERTEX
  5
B6
  8
LAYER_1
 10
-171.4891807687625
 20
-103.2495661202657
 30
0.0
  0
VERTEX
  5
B7
  8
LAYER_1
 10
-172.1193330520255
 20
-103.8308314081418
 30
0.0
  0
VERTEX
  5
B8
  8
LAYER_1
 10
-172.7354573650137
 20
-104.4267934432135
 30
0.0
  0
VERTEX
  5
B9
  8
LAYER_1
 10
-173.3372768960685
 20
-105.0371753042488
 30
0.0
  0
VERTEX
  5
BA
  8
LAYER_1
 10
-173.9245148335356
 20
-105.661700070016
 30
0.0
  0
VERTEX
  5
BB
  8
LAYER_1
 10
-174.4968943657576
 20
-106.3000908192831
 30
0.0
  0
VERTEX
  5
BC
  8
LAYER_1
 10
-175.0541386810797
 20
-106.952070630818
 30
0.0
  0
VERTEX
  5
BD
  8
LAYER_1
 10
-175.5959709678437
 20
-107.6173625833888
 30
0.0
  0
VERTEX
  5
BE
  8
LAYER_1
 10
-176.1221144143936
 20
-108.2956897557636
 30
0.0
  0
VERTEX
  5
BF
  8
LAYER_1
 10
-176.6322922090756
 20
-108.9867752267105
 30
0.0
  0
VERTEX
  5
C0
  8
LAYER_1
 10
-177.1262275402306
 20
-109.6903420749975
 30
0.0
  0
VERTEX
  5
C1
  8
LAYER_1
 10
-177.6036435962035
 20
-110.4061133793927
 30
0.0
  0
VERTEX
  5
C2
  8
LAYER_1
 10
-178.0642635653376
 20
-111.1338122186641
 30
0.0
  0
VERTEX
  5
C3
  8
LAYER_1
 10
-178.5078106359777
 20
-111.8731616715798
 30
0.0
  0
VERTEX
  5
C4
  8
LAYER_1
 10
-178.9340079964666
 20
-112.6238848169079
 30
0.0
  0
VERTEX
  5
C5
  8
LAYER_1
 10
-179.3425788351486
 20
-113.3857047334164
 30
0.0
  0
VERTEX
  5
C6
  8
LAYER_1
 10
-179.7332463403666
 20
-114.1583444998734
 30
0.0
  0
VERTEX
  5
C7
  8
LAYER_1
 10
-180.1057337004646
 20
-114.9415271950469
 30
0.0
  0
VERTEX
  5
C8
  8
LAYER_1
 10
-180.4597641037877
 20
-115.734975897705
 30
0.0
  0
VERTEX
  5
C9
  8
LAYER_1
 10
-180.7950607386777
 20
-116.5384136866157
 30
0.0
  0
VERTEX
  5
CA
  8
LAYER_1
 10
-181.1113467934786
 20
-117.3515636405471
 30
0.0
  0
VERTEX
  5
CB
  8
LAYER_1
 10
-181.4083454565355
 20
-118.1741488382673
 30
0.0
  0
VERTEX
  5
CC
  8
LAYER_1
 10
-181.6857799161915
 20
-119.0058923585444
 30
0.0
  0
VERTEX
  5
CD
  8
LAYER_1
 10
-181.9433733607905
 20
-119.8465172801463
 30
0.0
  0
VERTEX
  5
CE
  8
LAYER_1
 10
-182.1808489786757
 20
-120.6957466818413
 30
0.0
  0
VERTEX
  5
CF
  8
LAYER_1
 10
-182.3979299581907
 20
-121.5533036423971
 30
0.0
  0
VERTEX
  5
D0
  8
LAYER_1
 10
-182.5943394876807
 20
-122.4189112405821
 30
0.0
  0
VERTEX
  5
D1
  8
LAYER_1
 10
-182.7698007554866
 20
-123.2922925551642
 30
0.0
  0
VERTEX
  5
D2
  8
LAYER_1
 10
-182.9240369499556
 20
-124.1731706649114
 30
0.0
  0
VERTEX
  5
D3
  8
LAYER_1
 10
-183.0567712594296
 20
-125.0612686485919
 30
0.0
  0
VERTEX
  5
D4
  8
LAYER_1
 10
-183.1677268722515
 20
-125.9563095849738
 30
0.0
  0
VERTEX
  5
D5
  8
LAYER_1
 10
-183.2566269767665
 20
-126.858016552825
 30
0.0
  0
VERTEX
  5
D6
  8
LAYER_1
 10
-183.3231947613177
 20
-127.7661126309136
 30
0.0
  0
VERTEX
  5
D7
  8
LAYER_1
 10
-183.3671534142496
 20
-128.6803208980076
 30
0.0
  0
VERTEX
  5
D8
  8
LAYER_1
 10
-183.3882261239056
 20
-129.6003644328753
 30
0.0
  0
VERTEX
  5
D9
  8
LAYER_1
 10
-214.7284831363473
 20
-129.6003644328753
 30
0.0
  0
VERTEX
  5
DA
  8
LAYER_1
 10
-214.7284831363473
 20
-98.08901362499068
 30
0.0
  0
VERTEX
  5
DB
  8
LAYER_1
 10
-214.7226245124294
 20
-97.62615264833457
 30
0.0
  0
VERTEX
  5
DC
  8
LAYER_1
 10
-214.7051425696494
 20
-97.16616967699758
 30
0.0
  0
VERTEX
  5
DD
  8
LAYER_1
 10
-214.6761782014615
 20
-96.70920587054908
 30
0.0
  0
VERTEX
  5
DE
  8
LAYER_1
 10
-214.6358723013255
 20
-96.25540238855857
 30
0.0
  0
VERTEX
  5
DF
  8
LAYER_1
 10
-214.5843657626964
 20
-95.80490039059546
 30
0.0
  0
VERTEX
  5
E0
  8
LAYER_1
 10
-214.5217994790324
 20
-95.35784103622919
 30
0.0
  0
VERTEX
  5
E1
  8
LAYER_1
 10
-214.4483143437905
 20
-94.91436548502898
 30
0.0
  0
VERTEX
  5
E2
  8
LAYER_1
 10
-214.3640512504265
 20
-94.47461489656439
 30
0.0
  0
VERTEX
  5
E3
  8
LAYER_1
 10
-214.2691510923984
 20
-94.03873043040477
 30
0.0
  0
VERTEX
  5
E4
  8
LAYER_1
 10
-214.1637547631645
 20
-93.60685324611958
 30
0.0
  0
VERTEX
  5
E5
  8
LAYER_1
 10
-214.0480031561793
 20
-93.17912450327819
 30
0.0
  0
VERTEX
  5
E6
  8
LAYER_1
 10
-213.9220371649013
 20
-92.75568536145008
 30
0.0
  0
VERTEX
  5
E7
  8
LAYER_1
 10
-213.7859976827875
 20
-92.33667698020449
 30
0.0
  0
VERTEX
  5
E8
  8
LAYER_1
 10
-213.6400256032945
 20
-91.92224051911089
 30
0.0
  0
VERTEX
  5
E9
  8
LAYER_1
 10
-213.4842618198785
 20
-91.51251713773877
 30
0.0
  0
VERTEX
  5
EA
  8
LAYER_1
 10
-213.3188472259984
 20
-91.10764799565749
 30
0.0
  0
VERTEX
  5
EB
  8
LAYER_1
 10
-213.1439227151114
 20
-90.70777425243637
 30
0.0
  0
VERTEX
  5
EC
  8
LAYER_1
 10
-212.9596291806723
 20
-90.31303706764498
 30
0.0
  0
VERTEX
  5
ED
  8
LAYER_1
 10
-212.7661075161394
 20
-89.92357760085247
 30
0.0
  0
VERTEX
  5
EE
  8
LAYER_1
 10
-212.5634986149704
 20
-89.53953701162857
 30
0.0
  0
VERTEX
  5
EF
  8
LAYER_1
 10
-212.3519433706205
 20
-89.16105645954246
 30
0.0
  0
VERTEX
  5
F0
  8
LAYER_1
 10
-212.1315826765484
 20
-88.78827710416368
 30
0.0
  0
VERTEX
  5
F1
  8
LAYER_1
 10
-211.9025574262104
 20
-88.42134010506149
 30
0.0
  0
VERTEX
  5
F2
  8
LAYER_1
 10
-211.6650085130636
 20
-88.06038662180538
 30
0.0
  0
VERTEX
  5
F3
  8
LAYER_1
 10
-211.4190768305654
 20
-87.70555781396479
 30
0.0
  0
VERTEX
  5
F4
  8
LAYER_1
 10
-211.1649032721725
 20
-87.35699484110907
 30
0.0
  0
VERTEX
  5
F5
  8
LAYER_1
 10
-210.9026287313424
 20
-87.01483886280758
 30
0.0
  0
VERTEX
  5
F6
  8
LAYER_1
 10
-210.6323941015316
 20
-86.67923103862978
 30
0.0
  0
VERTEX
  5
F7
  8
LAYER_1
 10
-210.3543402761965
 20
-86.35031252814517
 30
0.0
  0
VERTEX
  5
F8
  8
LAYER_1
 10
-210.0686081487956
 20
-86.02822449092298
 30
0.0
  0
VERTEX
  5
F9
  8
LAYER_1
 10
-209.7753386127844
 20
-85.71310808653269
 30
0.0
  0
VERTEX
  5
FA
  8
LAYER_1
 10
-209.4746725616225
 20
-85.40510447454379
 30
0.0
  0
VERTEX
  5
FB
  8
LAYER_1
 10
-209.1667508887635
 20
-85.10435481452548
 30
0.0
  0
VERTEX
  5
FC
  8
LAYER_1
 10
-208.8517144876666
 20
-84.8110002660474
 30
0.0
  0
VERTEX
  5
FD
  8
LAYER_1
 10
-208.5297042517886
 20
-84.52518198867888
 30
0.0
  0
VERTEX
  5
FE
  8
LAYER_1
 10
-208.2008610745865
 20
-84.24704114198919
 30
0.0
  0
VERTEX
  5
FF
  8
LAYER_1
 10
-207.8653258495164
 20
-83.9767188855479
 30
0.0
  0
VERTEX
  5
100
  8
LAYER_1
 10
-207.5232394700365
 20
-83.71435637892428
 30
0.0
  0
VERTEX
  5
101
  8
LAYER_1
 10
-207.1747428296035
 20
-83.46009478168789
 30
0.0
  0
VERTEX
  5
102
  8
LAYER_1
 10
-206.8199768216734
 20
-83.21407525340811
 30
0.0
  0
VERTEX
  5
103
  8
LAYER_1
 10
-206.4590823397054
 20
-82.9764389536542
 30
0.0
  0
VERTEX
  5
104
  8
LAYER_1
 10
-206.0922002771545
 20
-82.74732704199562
 30
0.0
  0
VERTEX
  5
105
  8
LAYER_1
 10
-205.7194715274786
 20
-82.5268806780019
 30
0.0
  0
VERTEX
  5
106
  8
LAYER_1
 10
-205.3410369841345
 20
-82.31524102124231
 30
0.0
  0
VERTEX
  5
107
  8
LAYER_1
 10
-204.9570375405794
 20
-82.1125492312863
 30
0.0
  0
VERTEX
  5
108
  8
LAYER_1
 10
-204.5676140902706
 20
-81.91894646770331
 30
0.0
  0
VERTEX
  5
109
  8
LAYER_1
 10
-204.1729075266655
 20
-81.73457389006259
 30
0.0
  0
VERTEX
  5
10A
  8
LAYER_1
 10
-203.7730587432195
 20
-81.55957265793381
 30
0.0
  0
VERTEX
  5
10B
  8
LAYER_1
 10
-203.3682086333906
 20
-81.39408393088621
 30
0.0
  0
VERTEX
  5
10C
  8
LAYER_1
 10
-202.9584980906366
 20
-81.2382488684892
 30
0.0
  0
VERTEX
  5
10D
  8
LAYER_1
 10
-202.5440680084125
 20
-81.0922086303122
 30
0.0
  0
VERTEX
  5
10E
  8
LAYER_1
 10
-202.1250592801776
 20
-80.95610437592462
 30
0.0
  0
VERTEX
  5
10F
  8
LAYER_1
 10
-201.7016127993875
 20
-80.8300772648959
 30
0.0
  0
VERTEX
  5
110
  8
LAYER_1
 10
-201.2738694594996
 20
-80.71426845679532
 30
0.0
  0
VERTEX
  5
111
  8
LAYER_1
 10
-200.8419701539715
 20
-80.60881911119243
 30
0.0
  0
VERTEX
  5
112
  8
LAYER_1
 10
-200.4060557762587
 20
-80.51387038765661
 30
0.0
  0
VERTEX
  5
113
  8
LAYER_1
 10
-199.9662672198206
 20
-80.42956344575721
 30
0.0
  0
VERTEX
  5
114
  8
LAYER_1
 10
-199.5227453781116
 20
-80.35603944506362
 30
0.0
  0
VERTEX
  5
115
  8
LAYER_1
 10
-199.0756311445905
 20
-80.29343954514532
 30
0.0
  0
VERTEX
  5
116
  8
LAYER_1
 10
-198.6250654127146
 20
-80.24190490557173
 30
0.0
  0
VERTEX
  5
117
  8
LAYER_1
 10
-198.1711890759387
 20
-80.20157668591212
 30
0.0
  0
VERTEX
  5
118
  8
LAYER_1
 10
-197.7141430277225
 20
-80.17259604573603
 30
0.0
  0
VERTEX
  5
119
  8
LAYER_1
 10
-197.2540681615215
 20
-80.15510414461271
 30
0.0
  0
VERTEX
  5
11A
  8
LAYER_1
 10
-196.7911053707926
 20
-80.14924214211182
 30
0.0
  0
VERTEX
  5
11B
  8
LAYER_1
 10
-98.1290304275058
 20
-80.14924214211182
 30
0.0
  0
VERTEX
  5
11C
  8
LAYER_1
 10
-97.66586370556024
 20
-80.15510414461271
 30
0.0
  0
VERTEX
  5
11D
  8
LAYER_1
 10
-97.20561461619707
 20
-80.17259604573603
 30
0.0
  0
VERTEX
  5
11E
  8
LAYER_1
 10
-96.748423204966
 20
-80.20157668591212
 30
0.0
  0
VERTEX
  5
11F
  8
LAYER_1
 10
-96.29442951741726
 20
-80.24190490557173
 30
0.0
  0
VERTEX
  5
120
  8
LAYER_1
 10
-95.84377359910081
 20
-80.29343954514532
 30
0.0
  0
VERTEX
  5
121
  8
LAYER_1
 10
-95.39659549556632
 20
-80.35603944506362
 30
0.0
  0
VERTEX
  5
122
  8
LAYER_1
 10
-94.95303525236409
 20
-80.42956344575721
 30
0.0
  0
VERTEX
  5
123
  8
LAYER_1
 10
-94.51323291504377
 20
-80.51387038765661
 30
0.0
  0
VERTEX
  5
124
  8
LAYER_1
 10
-94.07732852915547
 20
-80.60881911119243
 30
0.0
  0
VERTEX
  5
125
  8
LAYER_1
 10
-93.64546214024926
 20
-80.71426845679532
 30
0.0
  0
VERTEX
  5
126
  8
LAYER_1
 10
-93.21777379387481
 20
-80.8300772648959
 30
0.0
  0
VERTEX
  5
127
  8
LAYER_1
 10
-92.7944035355824
 20
-80.95610437592462
 30
0.0
  0
VERTEX
  5
128
  8
LAYER_1
 10
-92.37549141092185
 20
-81.0922086303122
 30
0.0
  0
VERTEX
  5
129
  8
LAYER_1
 10
-91.96117746544311
 20
-81.2382488684892
 30
0.0
  0
VERTEX
  5
12A
  8
LAYER_1
 10
-91.55160174469606
 20
-81.39408393088621
 30
0.0
  0
VERTEX
  5
12B
  8
LAYER_1
 10
-91.14690429423078
 20
-81.55957265793381
 30
0.0
  0
VERTEX
  5
12C
  8
LAYER_1
 10
-90.74722515959726
 20
-81.73457389006259
 30
0.0
  0
VERTEX
  5
12D
  8
LAYER_1
 10
-90.35270438634527
 20
-81.91894646770331
 30
0.0
  0
VERTEX
  5
12E
  8
LAYER_1
 10
-89.963482020025
 20
-82.1125492312863
 30
0.0
  0
VERTEX
  5
12F
  8
LAYER_1
 10
-89.57969810618621
 20
-82.31524102124231
 30
0.0
  0
VERTEX
  5
130
  8
LAYER_1
 10
-89.2014926903789
 20
-82.5268806780019
 30
0.0
  0
VERTEX
  5
131
  8
LAYER_1
 10
-88.82900581815304
 20
-82.74732704199562
 30
0.0
  0
VERTEX
  5
132
  8
LAYER_1
 10
-88.46237753505869
 20
-82.9764389536542
 30
0.0
  0
VERTEX
  5
133
  8
LAYER_1
 10
-88.1017478866458
 20
-83.21407525340811
 30
0.0
  0
VERTEX
  5
134
  8
LAYER_1
 10
-87.7472569184643
 20
-83.46009478168789
 30
0.0
  0
VERTEX
  5
135
  8
LAYER_1
 10
-87.3990446760642
 20
-83.71435637892428
 30
0.0
  0
VERTEX
  5
136
  8
LAYER_1
 10
-87.05725120499523
 20
-83.9767188855479
 30
0.0
  0
VERTEX
  5
137
  8
LAYER_1
 10
-86.7220165508075
 20
-84.24704114198919
 30
0.0
  0
VERTEX
  5
138
  8
LAYER_1
 10
-86.39348075905099
 20
-84.52518198867888
 30
0.0
  0
VERTEX
  5
139
  8
LAYER_1
 10
-86.0717838752758
 20
-84.8110002660474
 30
0.0
  0
VERTEX
  5
13A
  8
LAYER_1
 10
-85.75706594503157
 20
-85.10435481452548
 30
0.0
  0
VERTEX
  5
13B
  8
LAYER_1
 10
-85.44946701386851
 20
-85.40510447454379
 30
0.0
  0
VERTEX
  5
13C
  8
LAYER_1
 10
-85.14912712733639
 20
-85.71310808653269
 30
0.0
  0
VERTEX
  5
13D
  8
LAYER_1
 10
-84.85618633098528
 20
-86.02822449092298
 30
0.0
  0
VERTEX
  5
13E
  8
LAYER_1
 10
-84.5707846703653
 20
-86.35031252814517
 30
0.0
  0
VERTEX
  5
13F
  8
LAYER_1
 10
-84.29306219102608
 20
-86.67923103862978
 30
0.0
  0
VERTEX
  5
140
  8
LAYER_1
 10
-84.02315893851772
 20
-87.01483886280758
 30
0.0
  0
VERTEX
  5
141
  8
LAYER_1
 10
-83.7612149583903
 20
-87.35699484110907
 30
0.0
  0
VERTEX
  5
142
  8
LAYER_1
 10
-83.50737029619361
 20
-87.70555781396479
 30
0.0
  0
VERTEX
  5
143
  8
LAYER_1
 10
-83.26176499747763
 20
-88.06038662180538
 30
0.0
  0
VERTEX
  5
144
  8
LAYER_1
 10
-83.02453910779244
 20
-88.42134010506149
 30
0.0
  0
VERTEX
  5
145
  8
LAYER_1
 10
-82.79583267268791
 20
-88.78827710416368
 30
0.0
  0
VERTEX
  5
146
  8
LAYER_1
 10
-82.57578573771403
 20
-89.16105645954246
 30
0.0
  0
VERTEX
  5
147
  8
LAYER_1
 10
-82.36453834842078
 20
-89.53953701162857
 30
0.0
  0
VERTEX
  5
148
  8
LAYER_1
 10
-82.16223055035803
 20
-89.92357760085247
 30
0.0
  0
VERTEX
  5
149
  8
LAYER_1
 10
-81.96900238907577
 20
-90.31303706764498
 30
0.0
  0
VERTEX
  5
14A
  8
LAYER_1
 10
-81.78499391012409
 20
-90.70777425243637
 30
0.0
  0
VERTEX
  5
14B
  8
LAYER_1
 10
-81.61034515905274
 20
-91.10764799565749
 30
0.0
  0
VERTEX
  5
14C
  8
LAYER_1
 10
-81.44519618141183
 20
-91.51251713773877
 30
0.0
  0
VERTEX
  5
14D
  8
LAYER_1
 10
-81.28968702275134
 20
-91.92224051911089
 30
0.0
  0
VERTEX
  5
14E
  8
LAYER_1
 10
-81.14395772862113
 20
-92.33667698020449
 30
0.0
  0
VERTEX
  5
14F
  8
LAYER_1
 10
-81.00814834457108
 20
-92.75568536145008
 30
0.0
  0
VERTEX
  5
150
  8
LAYER_1
 10
-80.88239891615129
 20
-93.17912450327819
 30
0.0
  0
VERTEX
  5
151
  8
LAYER_1
 10
-80.76684948891173
 20
-93.60685324611958
 30
0.0
  0
VERTEX
  5
152
  8
LAYER_1
 10
-80.66164010840228
 20
-94.03873043040477
 30
0.0
  0
VERTEX
  5
153
  8
LAYER_1
 10
-80.56691082017304
 20
-94.47461489656439
 30
0.0
  0
VERTEX
  5
154
  8
LAYER_1
 10
-80.48280166977375
 20
-94.91436548502898
 30
0.0
  0
VERTEX
  5
155
  8
LAYER_1
 10
-80.40945270275452
 20
-95.35784103622919
 30
0.0
  0
VERTEX
  5
156
  8
LAYER_1
 10
-80.34700396466533
 20
-95.80490039059546
 30
0.0
  0
VERTEX
  5
157
  8
LAYER_1
 10
-80.29559550105606
 20
-96.25540238855857
 30
0.0
  0
VERTEX
  5
158
  8
LAYER_1
 10
-80.25536735747667
 20
-96.70920587054908
 30
0.0
  0
VERTEX
  5
159
  8
LAYER_1
 10
-80.22645957947717
 20
-97.16616967699758
 30
0.0
  0
VERTEX
  5
15A
  8
LAYER_1
 10
-80.20901221260752
 20
-97.62615264833457
 30
0.0
  0
SEQEND
  5
15B
  8
LAYER_1
  0
POLYLINE
  5
42
  8
LAYER_1
 66
     1
 10
0.0
 20
0.0
 30
0.0
 70
     1
  0
VERTEX
  5
15C
  8
LAYER_1
 10
-80.20316530241772
 20
-133.5362056473006
 30
0.0
  0
VERTEX
  5
15D
  8
LAYER_1
 10
-80.20316530241772
 20
-161.874969107706
 30
0.0
  0
VERTEX
  5
15E
  8
LAYER_1
 10
-80.20901221260752
 20
-162.3377248830098
 30
0.0
  0
VERTEX
  5
15F
  8
LAYER_1
 10
-80.22645957947717
 20
-162.797605940265
 30
0.0
  0
VERTEX
  5
160
  8
LAYER_1
 10
-80.25536735747667
 20
-163.2544710677232
 30
0.0
  0
VERTEX
  5
161
  8
LAYER_1
 10
-80.29559550105606
 20
-163.7081790536361
 30
0.0
  0
VERTEX
  5
162
  8
LAYER_1
 10
-80.34700396466533
 20
-164.1585886862555
 30
0.0
  0
VERTEX
  5
163
  8
LAYER_1
 10
-80.40945270275452
 20
-164.6055587538329
 30
0.0
  0
VERTEX
  5
164
  8
LAYER_1
 10
-80.48280166977375
 20
-165.0489480446203
 30
0.0
  0
VERTEX
  5
165
  8
LAYER_1
 10
-80.56691082017304
 20
-165.4886153468691
 30
0.0
  0
VERTEX
  5
166
  8
LAYER_1
 10
-80.66164010840228
 20
-165.9244194488312
 30
0.0
  0
VERTEX
  5
167
  8
LAYER_1
 10
-80.76684948891173
 20
-166.3562191387582
 30
0.0
  0
VERTEX
  5
168
  8
LAYER_1
 10
-80.88239891615129
 20
-166.7838732049019
 30
0.0
  0
VERTEX
  5
169
  8
LAYER_1
 10
-81.00814834457108
 20
-167.2072404355138
 30
0.0
  0
VERTEX
  5
16A
  8
LAYER_1
 10
-81.14395772862113
 20
-167.6261796188458
 30
0.0
  0
VERTEX
  5
16B
  8
LAYER_1
 10
-81.28968702275134
 20
-168.0405495431495
 30
0.0
  0
VERTEX
  5
16C
  8
LAYER_1
 10
-81.44519618141183
 20
-168.4502089966766
 30
0.0
  0
VERTEX
  5
16D
  8
LAYER_1
 10
-81.61034515905274
 20
-168.8550167676789
 30
0.0
  0
VERTEX
  5
16E
  8
LAYER_1
 10
-81.78499391012409
 20
-169.2548316444079
 30
0.0
  0
VERTEX
  5
16F
  8
LAYER_1
 10
-81.96900238907577
 20
-169.6495124151155
 30
0.0
  0
VERTEX
  5
170
  8
LAYER_1
 10
-82.16223055035803
 20
-170.0389178680533
 30
0.0
  0
VERTEX
  5
171
  8
LAYER_1
 10
-82.36453834842078
 20
-170.422906791473
 30
0.0
  0
VERTEX
  5
172
  8
LAYER_1
 10
-82.57578573771403
 20
-170.8013379736262
 30
0.0
  0
VERTEX
  5
173
  8
LAYER_1
 10
-82.79583267268791
 20
-171.1740702027648
 30
0.0
  0
VERTEX
  5
174
  8
LAYER_1
 10
-83.02453910779244
 20
-171.5409622671404
 30
0.0
  0
VERTEX
  5
175
  8
LAYER_1
 10
-83.26176499747763
 20
-171.9018729550047
 30
0.0
  0
VERTEX
  5
176
  8
LAYER_1
 10
-83.50737029619361
 20
-172.2566610546093
 30
0.0
  0
VERTEX
  5
177
  8
LAYER_1
 10
-83.7612149583903
 20
-172.6051853542061
 30
0.0
  0
VERTEX
  5
178
  8
LAYER_1
 10
-84.02315893851772
 20
-172.9473046420466
 30
0.0
  0
VERTEX
  5
179
  8
LAYER_1
 10
-84.29306219102608
 20
-173.2828777063827
 30
0.0
  0
VERTEX
  5
17A
  8
LAYER_1
 10
-84.5707846703653
 20
-173.6117633354659
 30
0.0
  0
VERTEX
  5
17B
  8
LAYER_1
 10
-84.85618633098528
 20
-173.933820317548
 30
0.0
  0
VERTEX
  5
17C
  8
LAYER_1
 10
-85.14912712733639
 20
-174.2489074408807
 30
0.0
  0
VERTEX
  5
17D
  8
LAYER_1
 10
-85.44946701386851
 20
-174.5568834937157
 30
0.0
  0
VERTEX
  5
17E
  8
LAYER_1
 10
-85.75706594503157
 20
-174.8576072643046
 30
0.0
  0
VERTEX
  5
17F
  8
LAYER_1
 10
-86.0717838752758
 20
-175.1509375408993
 30
0.0
  0
VERTEX
  5
180
  8
LAYER_1
 10
-86.39348075905099
 20
-175.4367331117513
 30
0.0
  0
VERTEX
  5
181
  8
LAYER_1
 10
-86.7220165508075
 20
-175.7148527651123
 30
0.0
  0
VERTEX
  5
182
  8
LAYER_1
 10
-87.05725120499523
 20
-175.9851552892342
 30
0.0
  0
VERTEX
  5
183
  8
LAYER_1
 10
-87.3990446760642
 20
-176.2474994723685
 30
0.0
  0
VERTEX
  5
184
  8
LAYER_1
 10
-87.7472569184643
 20
-176.501744102767
 30
0.0
  0
VERTEX
  5
185
  8
LAYER_1
 10
-88.1017478866458
 20
-176.7477479686813
 30
0.0
  0
VERTEX
  5
186
  8
LAYER_1
 10
-88.46237753505869
 20
-176.9853698583632
 30
0.0
  0
VERTEX
  5
187
  8
LAYER_1
 10
-88.82900581815304
 20
-177.2144685600644
 30
0.0
  0
VERTEX
  5
188
  8
LAYER_1
 10
-89.2014926903789
 20
-177.4349028620365
 30
0.0
  0
VERTEX
  5
189
  8
LAYER_1
 10
-89.57969810618621
 20
-177.6465315525313
 30
0.0
  0
VERTEX
  5
18A
  8
LAYER_1
 10
-89.963482020025
 20
-177.8492134198004
 30
0.0
  0
VERTEX
  5
18B
  8
LAYER_1
 10
-90.35270438634527
 20
-178.0428072520956
 30
0.0
  0
VERTEX
  5
18C
  8
LAYER_1
 10
-90.74722515959726
 20
-178.2271718376685
 30
0.0
  0
VERTEX
  5
18D
  8
LAYER_1
 10
-91.14690429423078
 20
-178.4021659647709
 30
0.0
  0
VERTEX
  5
18E
  8
LAYER_1
 10
-91.55160174469606
 20
-178.5676484216545
 30
0.0
  0
VERTEX
  5
18F
  8
LAYER_1
 10
-91.96117746544311
 20
-178.7234779965709
 30
0.0
  0
VERTEX
  5
190
  8
LAYER_1
 10
-92.37549141092185
 20
-178.8695134777718
 30
0.0
  0
VERTEX
  5
191
  8
LAYER_1
 10
-92.7944035355824
 20
-179.0056136535089
 30
0.0
  0
VERTEX
  5
192
  8
LAYER_1
 10
-93.21777379387481
 20
-179.131637312034
 30
0.0
  0
VERTEX
  5
193
  8
LAYER_1
 10
-93.64546214024926
 20
-179.2474432415987
 30
0.0
  0
VERTEX
  5
194
  8
LAYER_1
 10
-94.07732852915547
 20
-179.3528902304548
 30
0.0
  0
VERTEX
  5
195
  8
LAYER_1
 10
-94.51323291504377
 20
-179.4478370668539
 30
0.0
  0
VERTEX
  5
196
  8
LAYER_1
 10
-94.95303525236409
 20
-179.5321425390477
 30
0.0
  0
VERTEX
  5
197
  8
LAYER_1
 10
-95.39659549556632
 20
-179.6056654352879
 30
0.0
  0
VERTEX
  5
198
  8
LAYER_1
 10
-95.84377359910081
 20
-179.6682645438263
 30
0.0
  0
VERTEX
  5
199
  8
LAYER_1
 10
-96.29442951741726
 20
-179.7197986529145
 30
0.0
  0
VERTEX
  5
19A
  8
LAYER_1
 10
-96.748423204966
 20
-179.7601265508042
 30
0.0
  0
VERTEX
  5
19B
  8
LAYER_1
 10
-97.20561461619707
 20
-179.7891070257471
 30
0.0
  0
VERTEX
  5
19C
  8
LAYER_1
 10
-97.66586370556024
 20
-179.806598865995
 30
0.0
  0
VERTEX
  5
19D
  8
LAYER_1
 10
-98.1290304275058
 20
-179.8124608597995
 30
0.0
  0
VERTEX
  5
19E
  8
LAYER_1
 10
-125.5359539293859
 20
-179.8124608597995
 30
0.0
  0
VERTEX
  5
19F
  8
LAYER_1
 10
-169.3748349726926
 20
-179.8124608597995
 30
0.0
  0
VERTEX
  5
1A0
  8
LAYER_1
 10
-196.7911053707926
 20
-179.8124608597995
 30
0.0
  0
VERTEX
  5
1A1
  8
LAYER_1
 10
-197.2540681615215
 20
-179.806598865995
 30
0.0
  0
VERTEX
  5
1A2
  8
LAYER_1
 10
-197.7141430277225
 20
-179.7891070257471
 30
0.0
  0
VERTEX
  5
1A3
  8
LAYER_1
 10
-198.1711890759387
 20
-179.7601265508042
 30
0.0
  0
VERTEX
  5
1A4
  8
LAYER_1
 10
-198.6250654127146
 20
-179.7197986529145
 30
0.0
  0
VERTEX
  5
1A5
  8
LAYER_1
 10
-199.0756311445905
 20
-179.6682645438263
 30
0.0
  0
VERTEX
  5
1A6
  8
LAYER_1
 10
-199.5227453781116
 20
-179.6056654352879
 30
0.0
  0
VERTEX
  5
1A7
  8
LAYER_1
 10
-199.9662672198206
 20
-179.5321425390477
 30
0.0
  0
VERTEX
  5
1A8
  8
LAYER_1
 10
-200.4060557762587
 20
-179.4478370668539
 30
0.0
  0
VERTEX
  5
1A9
  8
LAYER_1
 10
-200.8419701539715
 20
-179.3528902304548
 30
0.0
  0
VERTEX
  5
1AA
  8
LAYER_1
 10
-201.2738694594996
 20
-179.2474432415987
 30
0.0
  0
VERTEX
  5
1AB
  8
LAYER_1
 10
-201.7016127993875
 20
-179.131637312034
 30
0.0
  0
VERTEX
  5
1AC
  8
LAYER_1
 10
-202.1250592801776
 20
-179.0056136535089
 30
0.0
  0
VERTEX
  5
1AD
  8
LAYER_1
 10
-202.5440680084125
 20
-178.8695134777718
 30
0.0
  0
VERTEX
  5
1AE
  8
LAYER_1
 10
-202.9584980906366
 20
-178.7234779965709
 30
0.0
  0
VERTEX
  5
1AF
  8
LAYER_1
 10
-203.3682086333906
 20
-178.5676484216545
 30
0.0
  0
VERTEX
  5
1B0
  8
LAYER_1
 10
-203.7730587432195
 20
-178.4021659647709
 30
0.0
  0
VERTEX
  5
1B1
  8
LAYER_1
 10
-204.1729075266655
 20
-178.2271718376685
 30
0.0
  0
VERTEX
  5
1B2
  8
LAYER_1
 10
-204.5676140902706
 20
-178.0428072520956
 30
0.0
  0
VERTEX
  5
1B3
  8
LAYER_1
 10
-204.9570375405794
 20
-177.8492134198004
 30
0.0
  0
VERTEX
  5
1B4
  8
LAYER_1
 10
-205.3410369841345
 20
-177.6465315525313
 30
0.0
  0
VERTEX
  5
1B5
  8
LAYER_1
 10
-205.7194715274786
 20
-177.4349028620365
 30
0.0
  0
VERTEX
  5
1B6
  8
LAYER_1
 10
-206.0922002771545
 20
-177.2144685600644
 30
0.0
  0
VERTEX
  5
1B7
  8
LAYER_1
 10
-206.4590823397054
 20
-176.9853698583632
 30
0.0
  0
VERTEX
  5
1B8
  8
LAYER_1
 10
-206.8199768216734
 20
-176.7477479686813
 30
0.0
  0
VERTEX
  5
1B9
  8
LAYER_1
 10
-207.1747428296035
 20
-176.501744102767
 30
0.0
  0
VERTEX
  5
1BA
  8
LAYER_1
 10
-207.5232394700365
 20
-176.2474994723685
 30
0.0
  0
VERTEX
  5
1BB
  8
LAYER_1
 10
-207.8653258495164
 20
-175.9851552892342
 30
0.0
  0
VERTEX
  5
1BC
  8
LAYER_1
 10
-208.2008610745865
 20
-175.7148527651123
 30
0.0
  0
VERTEX
  5
1BD
  8
LAYER_1
 10
-208.5297042517886
 20
-175.4367331117513
 30
0.0
  0
VERTEX
  5
1BE
  8
LAYER_1
 10
-208.8517144876666
 20
-175.1509375408993
 30
0.0
  0
VERTEX
  5
1BF
  8
LAYER_1
 10
-209.1667508887635
 20
-174.8576072643046
 30
0.0
  0
VERTEX
  5
1C0
  8
LAYER_1
 10
-209.4746725616225
 20
-174.5568834937157
 30
0.0
  0
VERTEX
  5
1C1
  8
LAYER_1
 10
-209.7753386127844
 20
-174.2489074408807
 30
0.0
  0
VERTEX
  5
1C2
  8
LAYER_1
 10
-210.0686081487956
 20
-173.933820317548
 30
0.0
  0
VERTEX
  5
1C3
  8
LAYER_1
 10
-210.3543402761965
 20
-173.6117633354659
 30
0.0
  0
VERTEX
  5
1C4
  8
LAYER_1
 10
-210.6323941015316
 20
-173.2828777063827
 30
0.0
  0
VERTEX
  5
1C5
  8
LAYER_1
 10
-210.9026287313424
 20
-172.9473046420466
 30
0.0
  0
VERTEX
  5
1C6
  8
LAYER_1
 10
-211.1649032721725
 20
-172.6051853542061
 30
0.0
  0
VERTEX
  5
1C7
  8
LAYER_1
 10
-211.4190768305654
 20
-172.2566610546093
 30
0.0
  0
VERTEX
  5
1C8
  8
LAYER_1
 10
-211.6650085130636
 20
-171.9018729550047
 30
0.0
  0
VERTEX
  5
1C9
  8
LAYER_1
 10
-211.9025574262104
 20
-171.5409622671404
 30
0.0
  0
VERTEX
  5
1CA
  8
LAYER_1
 10
-212.1315826765484
 20
-171.1740702027648
 30
0.0
  0
VERTEX
  5
1CB
  8
LAYER_1
 10
-212.3519433706205
 20
-170.8013379736262
 30
0.0
  0
VERTEX
  5
1CC
  8
LAYER_1
 10
-212.5634986149704
 20
-170.422906791473
 30
0.0
  0
VERTEX
  5
1CD
  8
LAYER_1
 10
-212.7661075161394
 20
-170.0389178680533
 30
0.0
  0
VERTEX
  5
1CE
  8
LAYER_1
 10
-212.9596291806723
 20
-169.6495124151155
 30
0.0
  0
VERTEX
  5
1CF
  8
LAYER_1
 10
-213.1439227151114
 20
-169.2548316444079
 30
0.0
  0
VERTEX
  5
1D0
  8
LAYER_1
 10
-213.3188472259984
 20
-168.8550167676789
 30
0.0
  0
VERTEX
  5
1D1
  8
LAYER_1
 10
-213.4842618198785
 20
-168.4502089966766
 30
0.0
  0
VERTEX
  5
1D2
  8
LAYER_1
 10
-213.6400256032945
 20
-168.0405495431495
 30
0.0
  0
VERTEX
  5
1D3
  8
LAYER_1
 10
-213.7859976827875
 20
-167.6261796188458
 30
0.0
  0
VERTEX
  5
1D4
  8
LAYER_1
 10
-213.9220371649013
 20
-167.2072404355138
 30
0.0
  0
VERTEX
  5
1D5
  8
LAYER_1
 10
-214.0480031561793
 20
-166.7838732049019
 30
0.0
  0
VERTEX
  5
1D6
  8
LAYER_1
 10
-214.1637547631645
 20
-166.3562191387582
 30
0.0
  0
VERTEX
  5
1D7
  8
LAYER_1
 10
-214.2691510923984
 20
-165.9244194488312
 30
0.0
  0
VERTEX
  5
1D8
  8
LAYER_1
 10
-214.3640512504265
 20
-165.4886153468691
 30
0.0
  0
VERTEX
  5
1D9
  8
LAYER_1
 10
-214.4483143437905
 20
-165.0489480446203
 30
0.0
  0
VERTEX
  5
1DA
  8
LAYER_1
 10
-214.5217994790324
 20
-164.6055587538329
 30
0.0
  0
VERTEX
  5
1DB
  8
LAYER_1
 10
-214.5843657626964
 20
-164.1585886862555
 30
0.0
  0
VERTEX
  5
1DC
  8
LAYER_1
 10
-214.6358723013255
 20
-163.7081790536361
 30
0.0
  0
VERTEX
  5
1DD
  8
LAYER_1
 10
-214.6761782014615
 20
-163.2544710677232
 30
0.0
  0
VERTEX
  5
1DE
  8
LAYER_1
 10
-214.7051425696494
 20
-162.797605940265
 30
0.0
  0
VERTEX
  5
1DF
  8
LAYER_1
 10
-214.7226245124294
 20
-162.3377248830098
 30
0.0
  0
VERTEX
  5
1E0
  8
LAYER_1
 10
-214.7284831363473
 20
-161.874969107706
 30
0.0
  0
VERTEX
  5
1E1
  8
LAYER_1
 10
-214.7284831363473
 20
-133.5362056473006
 30
0.0
  0
VERTEX
  5
1E2
  8
LAYER_1
 10
-183.2216917900326
 20
-133.5362056473006
 30
0.0
  0
VERTEX
  5
1E3
  8
LAYER_1
 10
-183.1281255394095
 20
-134.3859956699328
 30
0.0
  0
VERTEX
  5
1E4
  8
LAYER_1
 10
-183.0149400288227
 20
-135.2297286096925
 30
0.0
  0
VERTEX
  5
1E5
  8
LAYER_1
 10
-182.8823693588916
 20
-136.067170047668
 30
0.0
  0
VERTEX
  5
1E6
  8
LAYER_1
 10
-182.7306476302377
 20
-136.8980855649476
 30
0.0
  0
VERTEX
  5
1E7
  8
LAYER_1
 10
-182.5600089434795
 20
-137.72224074262
 30
0.0
  0
VERTEX
  5
1E8
  8
LAYER_1
 10
-182.3706873992406
 20
-138.5394011617733
 30
0.0
  0
VERTEX
  5
1E9
  8
LAYER_1
 10
-182.1629170981376
 20
-139.3493324034961
 30
0.0
  0
VERTEX
  5
1EA
  8
LAYER_1
 10
-181.9369321407935
 20
-140.1518000488768
 30
0.0
  0
VERTEX
  5
1EB
  8
LAYER_1
 10
-181.6929666278275
 20
-140.9465696790039
 30
0.0
  0
VERTEX
  5
1EC
  8
LAYER_1
 10
-181.4312546598597
 20
-141.7334068749656
 30
0.0
  0
VERTEX
  5
1ED
  8
LAYER_1
 10
-181.1520303375117
 20
-142.5120772178504
 30
0.0
  0
VERTEX
  5
1EE
  8
LAYER_1
 10
-180.8555277614017
 20
-143.2823462887468
 30
0.0
  0
VERTEX
  5
1EF
  8
LAYER_1
 10
-180.5419810321526
 20
-144.0439796687431
 30
0.0
  0
VERTEX
  5
1F0
  8
LAYER_1
 10
-180.2116242503817
 20
-144.7967429389278
 30
0.0
  0
VERTEX
  5
1F1
  8
LAYER_1
 10
-179.8646915167126
 20
-145.5404016803893
 30
0.0
  0
VERTEX
  5
1F2
  8
LAYER_1
 10
-179.5014169317627
 20
-146.274721474216
 30
0.0
  0
VERTEX
  5
1F3
  8
LAYER_1
 10
-179.1220345961536
 20
-146.9994679014963
 30
0.0
  0
VERTEX
  5
1F4
  8
LAYER_1
 10
-178.7267786105065
 20
-147.7144065433187
 30
0.0
  0
VERTEX
  5
1F5
  8
LAYER_1
 10
-178.3158830754406
 20
-148.4193029807714
 30
0.0
  0
VERTEX
  5
1F6
  8
LAYER_1
 10
-177.8895820915755
 20
-149.1139227949431
 30
0.0
  0
VERTEX
  5
1F7
  8
LAYER_1
 10
-177.4481097595336
 20
-149.798031566922
 30
0.0
  0
VERTEX
  5
1F8
  8
LAYER_1
 10
-176.9917001799336
 20
-150.4713948777967
 30
0.0
  0
VERTEX
  5
1F9
  8
LAYER_1
 10
-176.5205874533956
 20
-151.1337783086554
 30
0.0
  0
VERTEX
  5
1FA
  8
LAYER_1
 10
-176.0350056805417
 20
-151.7849474405866
 30
0.0
  0
VERTEX
  5
1FB
  8
LAYER_1
 10
-175.5351889619906
 20
-152.4246678546788
 30
0.0
  0
VERTEX
  5
1FC
  8
LAYER_1
 10
-175.0213713983626
 20
-153.0527051320203
 30
0.0
  0
VERTEX
  5
1FD
  8
LAYER_1
 10
-174.4937870902796
 20
-153.6688248536997
 30
0.0
  0
VERTEX
  5
1FE
  8
LAYER_1
 10
-173.9526701383607
 20
-154.2727926008052
 30
0.0
  0
VERTEX
  5
1FF
  8
LAYER_1
 10
-173.3982546432256
 20
-154.8643739544252
 30
0.0
  0
VERTEX
  5
200
  8
LAYER_1
 10
-172.8307747054956
 20
-155.4433344956484
 30
0.0
  0
VERTEX
  5
201
  8
LAYER_1
 10
-172.2504644257907
 20
-156.0094398055629
 30
0.0
  0
VERTEX
  5
202
  8
LAYER_1
 10
-171.6575579047315
 20
-156.5624554652573
 30
0.0
  0
VERTEX
  5
203
  8
LAYER_1
 10
-171.0522892429386
 20
-157.1021470558199
 30
0.0
  0
VERTEX
  5
204
  8
LAYER_1
 10
-170.4348925410316
 20
-157.6282801583392
 30
0.0
  0
VERTEX
  5
205
  8
LAYER_1
 10
-169.8056018996306
 20
-158.1406203539036
 30
0.0
  0
VERTEX
  5
206
  8
LAYER_1
 10
-169.1646514193556
 20
-158.6389332236015
 30
0.0
  0
VERTEX
  5
207
  8
LAYER_1
 10
-168.5122752008286
 20
-159.1229843485214
 30
0.0
  0
VERTEX
  5
208
  8
LAYER_1
 10
-167.8487073446695
 20
-159.5925393097515
 30
0.0
  0
VERTEX
  5
209
  8
LAYER_1
 10
-167.1741819514976
 20
-160.0473636883804
 30
0.0
  0
VERTEX
  5
20A
  8
LAYER_1
 10
-166.4889331219336
 20
-160.4872230654965
 30
0.0
  0
VERTEX
  5
20B
  8
LAYER_1
 10
-165.7931949565976
 20
-160.9118830221882
 30
0.0
  0
VERTEX
  5
20C
  8
LAYER_1
 10
-165.0872015561106
 20
-161.3211091395438
 30
0.0
  0
VERTEX
  5
20D
  8
LAYER_1
 10
-164.3711870210926
 20
-161.7146669986519
 30
0.0
  0
VERTEX
  5
20E
  8
LAYER_1
 10
-163.6453854521647
 20
-162.0923221806008
 30
0.0
  0
VERTEX
  5
20F
  8
LAYER_1
 10
-162.9100309499457
 20
-162.4538402664789
 30
0.0
  0
VERTEX
  5
210
  8
LAYER_1
 10
-162.1653576150566
 20
-162.7989868373747
 30
0.0
  0
VERTEX
  5
211
  8
LAYER_1
 10
-161.4115995481166
 20
-163.1275274743766
 30
0.0
  0
VERTEX
  5
212
  8
LAYER_1
 10
-160.6489908497486
 20
-163.439227758573
 30
0.0
  0
VERTEX
  5
213
  8
LAYER_1
 10
-159.8777656205705
 20
-163.7338532710522
 30
0.0
  0
VERTEX
  5
214
  8
LAYER_1
 10
-159.0981579612047
 20
-164.0111695929028
 30
0.0
  0
VERTEX
  5
215
  8
LAYER_1
 10
-158.3104019722696
 20
-164.2709423052131
 30
0.0
  0
VERTEX
  5
216
  8
LAYER_1
 10
-157.5147317543866
 20
-164.5129369890716
 30
0.0
  0
VERTEX
  5
217
  8
LAYER_1
 10
-156.7113814081757
 20
-164.7369192255666
 30
0.0
  0
VERTEX
  5
218
  8
LAYER_1
 10
-155.9005850342565
 20
-164.9426545957866
 30
0.0
  0
VERTEX
  5
219
  8
LAYER_1
 10
-155.0825767332506
 20
-165.12990868082
 30
0.0
  0
VERTEX
  5
21A
  8
LAYER_1
 10
-154.2575906057776
 20
-165.2984470617552
 30
0.0
  0
VERTEX
  5
21B
  8
LAYER_1
 10
-153.4258607524586
 20
-165.4480353196807
 30
0.0
  0
VERTEX
  5
21C
  8
LAYER_1
 10
-152.5876212739126
 20
-165.5784390356847
 30
0.0
  0
VERTEX
  5
21D
  8
LAYER_1
 10
-151.7431062707606
 20
-165.6894237908559
 30
0.0
  0
VERTEX
  5
21E
  8
LAYER_1
 10
-150.8925498436236
 20
-165.7807551662825
 30
0.0
  0
VERTEX
  5
21F
  8
LAYER_1
 10
-150.0361860931206
 20
-165.8521987430529
 30
0.0
  0
VERTEX
  5
220
  8
LAYER_1
 10
-149.1742491198726
 20
-165.9035201022557
 30
0.0
  0
VERTEX
  5
221
  8
LAYER_1
 10
-148.3069730244997
 20
-165.9344848249792
 30
0.0
  0
VERTEX
  5
222
  8
LAYER_1
 10
-147.4345919076226
 20
-165.9448584923118
 30
0.0
  0
VERTEX
  5
223
  8
LAYER_1
 10
-146.5623177092176
 20
-165.9344848249792
 30
0.0
  0
VERTEX
  5
224
  8
LAYER_1
 10
-145.6951485349276
 20
-165.9035201022557
 30
0.0
  0
VERTEX
  5
225
  8
LAYER_1
 10
-144.8333183210066
 20
-165.8521987430529
 30
0.0
  0
VERTEX
  5
226
  8
LAYER_1
 10
-143.9770610037125
 20
-165.7807551662825
 30
0.0
  0
VERTEX
  5
227
  8
LAYER_1
 10
-143.1266105193026
 20
-165.6894237908559
 30
0.0
  0
VERTEX
  5
228
  8
LAYER_1
 10
-142.2822008040336
 20
-165.5784390356847
 30
0.0
  0
VERTEX
  5
229
  8
LAYER_1
 10
-141.4440657941606
 20
-165.4480353196807
 30
0.0
  0
VERTEX
  5
22A
  8
LAYER_1
 10
-140.6124394259426
 20
-165.2984470617552
 30
0.0
  0
VERTEX
  5
22B
  8
LAYER_1
 10
-139.7875556356356
 20
-165.12990868082
 30
0.0
  0
VERTEX
  5
22C
  8
LAYER_1
 10
-138.9696483594966
 20
-164.9426545957866
 30
0.0
  0
VERTEX
  5
22D
  8
LAYER_1
 10
-138.1589515337816
 20
-164.7369192255666
 30
0.0
  0
VERTEX
  5
22E
  8
LAYER_1
 10
-137.3556990947476
 20
-164.5129369890716
 30
0.0
  0
VERTEX
  5
22F
  8
LAYER_1
 10
-136.5601249786526
 20
-164.2709423052131
 30
0.0
  0
VERTEX
  5
230
  8
LAYER_1
 10
-135.7724631217516
 20
-164.0111695929028
 30
0.0
  0
VERTEX
  5
231
  8
LAYER_1
 10
-134.9929474603026
 20
-163.7338532710522
 30
0.0
  0
VERTEX
  5
232
  8
LAYER_1
 10
-134.2218119305616
 20
-163.439227758573
 30
0.0
  0
VERTEX
  5
233
  8
LAYER_1
 10
-133.4592904687866
 20
-163.1275274743766
 30
0.0
  0
VERTEX
  5
234
  8
LAYER_1
 10
-132.7056170112326
 20
-162.7989868373747
 30
0.0
  0
VERTEX
  5
235
  8
LAYER_1
 10
-131.9610254941586
 20
-162.4538402664789
 30
0.0
  0
VERTEX
  5
236
  8
LAYER_1
 10
-131.2257498538193
 20
-162.0923221806008
 30
0.0
  0
VERTEX
  5
237
  8
LAYER_1
 10
-130.5000240264727
 20
-161.7146669986519
 30
0.0
  0
VERTEX
  5
238
  8
LAYER_1
 10
-129.7840819483752
 20
-161.3211091395438
 30
0.0
  0
VERTEX
  5
239
  8
LAYER_1
 10
-129.0781575557838
 20
-160.9118830221882
 30
0.0
  0
VERTEX
  5
23A
  8
LAYER_1
 10
-128.382484784955
 20
-160.4872230654965
 30
0.0
  0
VERTEX
  5
23B
  8
LAYER_1
 10
-127.6972975721459
 20
-160.0473636883804
 30
0.0
  0
VERTEX
  5
23C
  8
LAYER_1
 10
-127.022829853613
 20
-159.5925393097515
 30
0.0
  0
VERTEX
  5
23D
  8
LAYER_1
 10
-126.3593155656134
 20
-159.1229843485214
 30
0.0
  0
VERTEX
  5
23E
  8
LAYER_1
 10
-125.7069886444035
 20
-158.6389332236015
 30
0.0
  0
VERTEX
  5
23F
  8
LAYER_1
 10
-125.0660830262403
 20
-158.1406203539036
 30
0.0
  0
VERTEX
  5
240
  8
LAYER_1
 10
-124.4368326473808
 20
-157.6282801583392
 30
0.0
  0
VERTEX
  5
241
  8
LAYER_1
 10
-123.8194714440814
 20
-157.1021470558199
 30
0.0
  0
VERTEX
  5
242
  8
LAYER_1
 10
-123.2142333525991
 20
-156.5624554652573
 30
0.0
  0
VERTEX
  5
243
  8
LAYER_1
 10
-122.6213523091909
 20
-156.0094398055629
 30
0.0
  0
VERTEX
  5
244
  8
LAYER_1
 10
-122.041062250113
 20
-155.4433344956484
 30
0.0
  0
VERTEX
  5
245
  8
LAYER_1
 10
-121.4735971116227
 20
-154.8643739544252
 30
0.0
  0
VERTEX
  5
246
  8
LAYER_1
 10
-120.9191908299767
 20
-154.2727926008052
 30
0.0
  0
VERTEX
  5
247
  8
LAYER_1
 10
-120.3780773414316
 20
-153.6688248536997
 30
0.0
  0
VERTEX
  5
248
  8
LAYER_1
 10
-119.8504905822444
 20
-153.0527051320203
 30
0.0
  0
VERTEX
  5
249
  8
LAYER_1
 10
-119.3366644886717
 20
-152.4246678546788
 30
0.0
  0
VERTEX
  5
24A
  8
LAYER_1
 10
-118.8368329969706
 20
-151.7849474405866
 30
0.0
  0
VERTEX
  5
24B
  8
LAYER_1
 10
-118.3512300433975
 20
-151.1337783086554
 30
0.0
  0
VERTEX
  5
24C
  8
LAYER_1
 10
-117.8800895642094
 20
-150.4713948777967
 30
0.0
  0
VERTEX
  5
24D
  8
LAYER_1
 10
-117.4236454956632
 20
-149.798031566922
 30
0.0
  0
VERTEX
  5
24E
  8
LAYER_1
 10
-116.9821317740154
 20
-149.1139227949431
 30
0.0
  0
VERTEX
  5
24F
  8
LAYER_1
 10
-116.555782335523
 20
-148.4193029807714
 30
0.0
  0
VERTEX
  5
250
  8
LAYER_1
 10
-116.1448311164427
 20
-147.7144065433187
 30
0.0
  0
VERTEX
  5
251
  8
LAYER_1
 10
-115.7495120530313
 20
-146.9994679014963
 30
0.0
  0
VERTEX
  5
252
  8
LAYER_1
 10
-115.3700590815457
 20
-146.274721474216
 30
0.0
  0
VERTEX
  5
253
  8
LAYER_1
 10
-115.0067061382426
 20
-145.5404016803893
 30
0.0
  0
VERTEX
  5
254
  8
LAYER_1
 10
-114.6596871593787
 20
-144.7967429389278
 30
0.0
  0
VERTEX
  5
255
  8
LAYER_1
 10
-114.3292360812109
 20
-144.0439796687431
 30
0.0
  0
VERTEX
  5
256
  8
LAYER_1
 10
-114.0155868399959
 20
-143.2823462887468
 30
0.0
  0
VERTEX
  5
257
  8
LAYER_1
 10
-113.7189733719907
 20
-142.5120772178504
 30
0.0
  0
VERTEX
  5
258
  8
LAYER_1
 10
-113.4396296134519
 20
-141.7334068749656
 30
0.0
  0
VERTEX
  5
259
  8
LAYER_1
 10
-113.1777895006363
 20
-140.9465696790039
 30
0.0
  0
VERTEX
  5
25A
  8
LAYER_1
 10
-112.9336869698007
 20
-140.1518000488768
 30
0.0
  0
VERTEX
  5
25B
  8
LAYER_1
 10
-112.707555957202
 20
-139.3493324034961
 30
0.0
  0
VERTEX
  5
25C
  8
LAYER_1
 10
-112.4996303990969
 20
-138.5394011617733
 30
0.0
  0
VERTEX
  5
25D
  8
LAYER_1
 10
-112.3101442317422
 20
-137.72224074262
 30
0.0
  0
VERTEX
  5
25E
  8
LAYER_1
 10
-112.1393313913947
 20
-136.8980855649476
 30
0.0
  0
VERTEX
  5
25F
  8
LAYER_1
 10
-111.9874258143112
 20
-136.067170047668
 30
0.0
  0
VERTEX
  5
260
  8
LAYER_1
 10
-111.8546614367484
 20
-135.2297286096925
 30
0.0
  0
VERTEX
  5
261
  8
LAYER_1
 10
-111.7412721949632
 20
-134.3859956699328
 30
0.0
  0
VERTEX
  5
262
  8
LAYER_1
 10
-111.6474920252121
 20
-133.5362056473006
 30
0.0
  0
SEQEND
  5
263
  8
LAYER_1
  0
POLYLINE
  5
43
  8
LAYER_1
 66
     1
 10
0.0
 20
0.0
 30
0.0
 70
     1
  0
VERTEX
  5
264
  8
LAYER_1
 10
-218.9833726741863
 20
-150.1370912399236
 30
0.0
  0
VERTEX
  5
265
  8
LAYER_1
 10
-218.9833726741863
 20
-95.45752037942259
 30
0.0
  0
VERTEX
  5
266
  8
LAYER_1
 10
-227.9070368739523
 20
-95.45752037942259
 30
0.0
  0
VERTEX
  5
267
  8
LAYER_1
 10
-228.6140723444043
 20
-95.46274574377986
 30
0.0
  0
VERTEX
  5
268
  8
LAYER_1
 10
-229.3145396762154
 20
-95.47833702549048
 30
0.0
  0
VERTEX
  5
269
  8
LAYER_1
 10
-230.0084550396252
 20
-95.50416700751228
 30
0.0
  0
VERTEX
  5
26A
  8
LAYER_1
 10
-230.6958346048742
 20
-95.54010847280327
 30
0.0
  0
VERTEX
  5
26B
  8
LAYER_1
 10
-231.3766945422022
 20
-95.58603420432127
 30
0.0
  0
VERTEX
  5
26C
  8
LAYER_1
 10
-232.0510510218493
 20
-95.64181698502426
 30
0.0
  0
VERTEX
  5
26D
  8
LAYER_1
 10
-232.7189202140563
 20
-95.70732959787028
 30
0.0
  0
VERTEX
  5
26E
  8
LAYER_1
 10
-233.3803182890623
 20
-95.78244482581698
 30
0.0
  0
VERTEX
  5
26F
  8
LAYER_1
 10
-234.0352614171082
 20
-95.86703545182249
 30
0.0
  0
VERTEX
  5
270
  8
LAYER_1
 10
-234.6837657684333
 20
-95.96097425884477
 30
0.0
  0
VERTEX
  5
271
  8
LAYER_1
 10
-235.3258475132792
 20
-96.06413402984168
 30
0.0
  0
VERTEX
  5
272
  8
LAYER_1
 10
-235.9615228218842
 20
-96.17638754777107
 30
0.0
  0
VERTEX
  5
273
  8
LAYER_1
 10
-236.5908078644892
 20
-96.29760759559099
 30
0.0
  0
VERTEX
  5
274
  8
LAYER_1
 10
-237.2137188113342
 20
-96.42766695625929
 30
0.0
  0
VERTEX
  5
275
  8
LAYER_1
 10
-237.8302718326603
 20
-96.56643841273399
 30
0.0
  0
VERTEX
  5
276
  8
LAYER_1
 10
-238.4404830987063
 20
-96.71379474797288
 30
0.0
  0
VERTEX
  5
277
  8
LAYER_1
 10
-239.0443687797123
 20
-96.86960874493397
 30
0.0
  0
VERTEX
  5
278
  8
LAYER_1
 10
-239.6419450459192
 20
-97.03375318657518
 30
0.0
  0
VERTEX
  5
279
  8
LAYER_1
 10
-240.2332280675663
 20
-97.20610085585449
 30
0.0
  0
VERTEX
  5
27A
  8
LAYER_1
 10
-240.8182340148943
 20
-97.38652453572968
 30
0.0
  0
VERTEX
  5
27B
  8
LAYER_1
 10
-241.3969790581442
 20
-97.57489700915878
 30
0.0
  0
VERTEX
  5
27C
  8
LAYER_1
 10
-241.9694793675543
 20
-97.77109105909977
 30
0.0
  0
VERTEX
  5
27D
  8
LAYER_1
 10
-242.5357511133651
 20
-97.97497946851047
 30
0.0
  0
VERTEX
  5
27E
  8
LAYER_1
 10
-243.0958104658172
 20
-98.18643502034888
 30
0.0
  0
VERTEX
  5
27F
  8
LAYER_1
 10
-243.6496735951513
 20
-98.40533049757286
 30
0.0
  0
VERTEX
  5
280
  8
LAYER_1
 10
-244.1973566716061
 20
-98.63153868314038
 30
0.0
  0
VERTEX
  5
281
  8
LAYER_1
 10
-244.7388758654232
 20
-98.86493236000936
 30
0.0
  0
VERTEX
  5
282
  8
LAYER_1
 10
-245.2742473468412
 20
-99.10538431113767
 30
0.0
  0
VERTEX
  5
283
  8
LAYER_1
 10
-245.8034872861011
 20
-99.35276731948338
 30
0.0
  0
VERTEX
  5
284
  8
LAYER_1
 10
-246.3266118534422
 20
-99.60695416800428
 30
0.0
  0
VERTEX
  5
285
  8
LAYER_1
 10
-246.8436372191062
 20
-99.86781763965828
 30
0.0
  0
VERTEX
  5
286
  8
LAYER_1
 10
-247.3545795533322
 20
-100.1352305174036
 30
0.0
  0
VERTEX
  5
287
  8
LAYER_1
 10
-247.8594550263591
 20
-100.4090655841977
 30
0.0
  0
VERTEX
  5
288
  8
LAYER_1
 10
-248.3582798084293
 20
-100.6891956229989
 30
0.0
  0
VERTEX
  5
289
  8
LAYER_1
 10
-248.8510700697822
 20
-100.9754934167649
 30
0.0
  0
VERTEX
  5
28A
  8
LAYER_1
 10
-249.3378419806562
 20
-101.2678317484537
 30
0.0
  0
VERTEX
  5
28B
  8
LAYER_1
 10
-249.8186117112942
 20
-101.5660834010233
 30
0.0
  0
VERTEX
  5
28C
  8
LAYER_1
 10
-250.2933954319343
 20
-101.8701211574315
 30
0.0
  0
VERTEX
  5
28D
  8
LAYER_1
 10
-250.7622093128172
 20
-102.1798178006364
 30
0.0
  0
VERTEX
  5
28E
  8
LAYER_1
 10
-251.2250695241822
 20
-102.4950461135957
 30
0.0
  0
VERTEX
  5
28F
  8
LAYER_1
 10
-251.6819922362712
 20
-102.8156788792674
 30
0.0
  0
VERTEX
  5
290
  8
LAYER_1
 10
-252.1329936193232
 20
-103.1415888806095
 30
0.0
  0
VERTEX
  5
291
  8
LAYER_1
 10
-252.5780898435781
 20
-103.47264890058
 30
0.0
  0
VERTEX
  5
292
  8
LAYER_1
 10
-253.0172970792763
 20
-103.8087317221366
 30
0.0
  0
VERTEX
  5
293
  8
LAYER_1
 10
-253.8781092659632
 20
-104.4954569018402
 30
0.0
  0
VERTEX
  5
294
  8
LAYER_1
 10
-254.7155595413043
 20
-105.2007466833839
 30
0.0
  0
VERTEX
  5
295
  8
LAYER_1
 10
-255.5297772672212
 20
-105.923583330431
 30
0.0
  0
VERTEX
  5
296
  8
LAYER_1
 10
-256.3208918056342
 20
-106.662949106645
 30
0.0
  0
VERTEX
  5
297
  8
LAYER_1
 10
-257.0890325184631
 20
-107.4178262756891
 30
0.0
  0
VERTEX
  5
298
  8
LAYER_1
 10
-257.8343287676313
 20
-108.187197101227
 30
0.0
  0
VERTEX
  5
299
  8
LAYER_1
 10
-258.5569099150581
 20
-108.9700438469219
 30
0.0
  0
VERTEX
  5
29A
  8
LAYER_1
 10
-259.2569053226631
 20
-109.7653487764374
 30
0.0
  0
VERTEX
  5
29B
  8
LAYER_1
 10
-259.9344443523702
 20
-110.5720941534368
 30
0.0
  0
VERTEX
  5
29C
  8
LAYER_1
 10
-260.5896563660973
 20
-111.3892622415835
 30
0.0
  0
VERTEX
  5
29D
  8
LAYER_1
 10
-261.2226707257672
 20
-112.215835304541
 30
0.0
  0
VERTEX
  5
29E
  8
LAYER_1
 10
-261.8336167933002
 20
-113.0507956059727
 30
0.0
  0
VERTEX
  5
29F
  8
LAYER_1
 10
-262.4226239306162
 20
-113.8931254095419
 30
0.0
  0
VERTEX
  5
2A0
  8
LAYER_1
 10
-262.9898214996373
 20
-114.7418069789122
 30
0.0
  0
VERTEX
  5
2A1
  8
LAYER_1
 10
-263.5353388622842
 20
-115.5958225777469
 30
0.0
  0
VERTEX
  5
2A2
  8
LAYER_1
 10
-264.0593053804772
 20
-116.4541544697094
 30
0.0
  0
VERTEX
  5
2A3
  8
LAYER_1
 10
-264.5618504161372
 20
-117.3157849184632
 30
0.0
  0
VERTEX
  5
2A4
  8
LAYER_1
 10
-265.0431033311853
 20
-118.1796961876716
 30
0.0
  0
VERTEX
  5
2A5
  8
LAYER_1
 10
-265.5031934875432
 20
-119.0448705409982
 30
0.0
  0
VERTEX
  5
2A6
  8
LAYER_1
 10
-265.9422502471292
 20
-119.9102902421063
 30
0.0
  0
VERTEX
  5
2A7
  8
LAYER_1
 10
-266.3604029718673
 20
-120.7749375546593
 30
0.0
  0
VERTEX
  5
2A8
  8
LAYER_1
 10
-266.7577810236752
 20
-121.6377947423207
 30
0.0
  0
VERTEX
  5
2A9
  8
LAYER_1
 10
-267.1345137644772
 20
-122.4978440687538
 30
0.0
  0
VERTEX
  5
2AA
  8
LAYER_1
 10
-267.4907305561911
 20
-123.3540677976221
 30
0.0
  0
VERTEX
  5
2AB
  8
LAYER_1
 10
-267.8265607607392
 20
-124.205448192589
 30
0.0
  0
VERTEX
  5
2AC
  8
LAYER_1
 10
-268.1421337400421
 20
-125.0509675173179
 30
0.0
  0
VERTEX
  5
2AD
  8
LAYER_1
 10
-268.4375788560211
 20
-125.8896080354722
 30
0.0
  0
VERTEX
  5
2AE
  8
LAYER_1
 10
-268.7130254705961
 20
-126.7203520107154
 30
0.0
  0
VERTEX
  5
2AF
  8
LAYER_1
 10
-268.9686029456892
 20
-127.5421817067109
 30
0.0
  0
VERTEX
  5
2B0
  8
LAYER_1
 10
-269.2044406432202
 20
-128.354079387122
 30
0.0
  0
VERTEX
  5
2B1
  8
LAYER_1
 10
-269.4206679251103
 20
-129.1550273156122
 30
0.0
  0
VERTEX
  5
2B2
  8
LAYER_1
 10
-269.6174141532791
 20
-129.9440077558449
 30
0.0
  0
VERTEX
  5
2B3
  8
LAYER_1
 10
-269.7948086896503
 20
-130.7200029714836
 30
0.0
  0
VERTEX
  5
2B4
  8
LAYER_1
 10
-269.9529808961423
 20
-131.4819952261916
 30
0.0
  0
VERTEX
  5
2B5
  8
LAYER_1
 10
-270.0920601346771
 20
-132.2289667836323
 30
0.0
  0
VERTEX
  5
2B6
  8
LAYER_1
 10
-270.2121757671742
 20
-132.9598999074693
 30
0.0
  0
VERTEX
  5
2B7
  8
LAYER_1
 10
-270.3134571555571
 20
-133.6737768613658
 30
0.0
  0
VERTEX
  5
2B8
  8
LAYER_1
 10
-270.3960336617432
 20
-134.3695799089854
 30
0.0
  0
VERTEX
  5
2B9
  8
LAYER_1
 10
-270.4600346476562
 20
-135.0462913139914
 30
0.0
  0
VERTEX
  5
2BA
  8
LAYER_1
 10
-270.5055894752162
 20
-135.7028933400472
 30
0.0
  0
VERTEX
  5
2BB
  8
LAYER_1
 10
-270.5328275063431
 20
-136.3383682508164
 30
0.0
  0
VERTEX
  5
2BC
  8
LAYER_1
 10
-270.5418781029592
 20
-136.9516983099621
 30
0.0
  0
VERTEX
  5
2BD
  8
LAYER_1
 10
-270.5418781029592
 20
-150.1370912399236
 30
0.0
  0
VERTEX
  5
2BE
  8
LAYER_1
 10
-261.2964299028362
 20
-150.1370912399236
 30
0.0
  0
VERTEX
  5
2BF
  8
LAYER_1
 10
-257.0071164301372
 20
-150.1370912399236
 30
0.0
  0
VERTEX
  5
2C0
  8
LAYER_1
 10
-257.0071164301372
 20
-163.4752261325059
 30
0.0
  0
VERTEX
  5
2C1
  8
LAYER_1
 10
-261.0764358820471
 20
-163.4752261325059
 30
0.0
  0
VERTEX
  5
2C2
  8
LAYER_1
 10
-266.6537972484872
 20
-211.2545078518083
 30
0.0
  0
VERTEX
  5
2C3
  8
LAYER_1
 10
-220.4933523598855
 20
-211.2545078518083
 30
0.0
  0
VERTEX
  5
2C4
  8
LAYER_1
 10
-226.0686619686193
 20
-163.4752261325059
 30
0.0
  0
VERTEX
  5
2C5
  8
LAYER_1
 10
-230.1408310840104
 20
-163.4752261325059
 30
0.0
  0
VERTEX
  5
2C6
  8
LAYER_1
 10
-230.1408310840104
 20
-150.1370912399236
 30
0.0
  0
SEQEND
  5
2C7
  8
LAYER_1
  0
POLYLINE
  5
44
  8
LAYER_1
 66
     1
 10
0.0
 20
0.0
 30
0.0
 70
     1
  0
VERTEX
  5
2C8
  8
LAYER_1
 10
-220.4933523598855
 20
-243.8156746863618
 30
0.0
  0
VERTEX
  5
2C9
  8
LAYER_1
 10
-221.4327521415182
 20
-243.8104970790448
 30
0.0
  0
VERTEX
  5
2CA
  8
LAYER_1
 10
-222.3594165845973
 20
-243.7950721381733
 30
0.0
  0
VERTEX
  5
2CB
  8
LAYER_1
 10
-223.2734318926794
 20
-243.7695616853676
 30
0.0
  0
VERTEX
  5
2CC
  8
LAYER_1
 10
-224.1748842693182
 20
-243.734127542248
 30
0.0
  0
VERTEX
  5
2CD
  8
LAYER_1
 10
-225.0638599180693
 20
-243.6889315304339
 30
0.0
  0
VERTEX
  5
2CE
  8
LAYER_1
 10
-225.9404450424892
 20
-243.6341354715461
 30
0.0
  0
VERTEX
  5
2CF
  8
LAYER_1
 10
-226.8047258461322
 20
-243.5699011872043
 30
0.0
  0
VERTEX
  5
2D0
  8
LAYER_1
 10
-227.6567885325523
 20
-243.4963904990283
 30
0.0
  0
VERTEX
  5
2D1
  8
LAYER_1
 10
-228.4967193053073
 20
-243.4137652286386
 30
0.0
  0
VERTEX
  5
2D2
  8
LAYER_1
 10
-229.3246043679503
 20
-243.3221871976551
 30
0.0
  0
VERTEX
  5
2D3
  8
LAYER_1
 10
-230.1405299240373
 20
-243.2218182276977
 30
0.0
  0
VERTEX
  5
2D4
  8
LAYER_1
 10
-230.9445821771243
 20
-243.1128201403866
 30
0.0
  0
VERTEX
  5
2D5
  8
LAYER_1
 10
-231.7368473307653
 20
-242.9953547573419
 30
0.0
  0
VERTEX
  5
2D6
  8
LAYER_1
 10
-232.5174115885153
 20
-242.8695839001837
 30
0.0
  0
VERTEX
  5
2D7
  8
LAYER_1
 10
-233.2863611539311
 20
-242.7356693905318
 30
0.0
  0
VERTEX
  5
2D8
  8
LAYER_1
 10
-234.0437822305663
 20
-242.5937730500065
 30
0.0
  0
VERTEX
  5
2D9
  8
LAYER_1
 10
-234.7897610219771
 20
-242.4440567002276
 30
0.0
  0
VERTEX
  5
2DA
  8
LAYER_1
 10
-235.5243837317192
 20
-242.2866821628156
 30
0.0
  0
VERTEX
  5
2DB
  8
LAYER_1
 10
-236.2477365633462
 20
-242.12181125939
 30
0.0
  0
VERTEX
  5
2DC
  8
LAYER_1
 10
-236.9599057204142
 20
-241.9496058115714
 30
0.0
  0
VERTEX
  5
2DD
  8
LAYER_1
 10
-237.6609774064792
 20
-241.7702276409793
 30
0.0
  0
VERTEX
  5
2DE
  8
LAYER_1
 10
-238.3510378250952
 20
-241.5838385692343
 30
0.0
  0
VERTEX
  5
2DF
  8
LAYER_1
 10
-239.0301731798171
 20
-241.390600417956
 30
0.0
  0
VERTEX
  5
2E0
  8
LAYER_1
 10
-239.6984696742021
 20
-241.1906750087646
 30
0.0
  0
VERTEX
  5
2E1
  8
LAYER_1
 10
-240.3560135118031
 20
-240.9842241632804
 30
0.0
  0
VERTEX
  5
2E2
  8
LAYER_1
 10
-241.0028908961773
 20
-240.7714097031233
 30
0.0
  0
VERTEX
  5
2E3
  8
LAYER_1
 10
-241.6391880308782
 20
-240.552393449913
 30
0.0
  0
VERTEX
  5
2E4
  8
LAYER_1
 10
-242.2649911194632
 20
-240.3273372252701
 30
0.0
  0
VERTEX
  5
2E5
  8
LAYER_1
 10
-242.8803863654852
 20
-240.0964028508145
 30
0.0
  0
VERTEX
  5
2E6
  8
LAYER_1
 10
-243.4854599725012
 20
-239.859752148166
 30
0.0
  0
VERTEX
  5
2E7
  8
LAYER_1
 10
-244.0802981440642
 20
-239.6175469389451
 30
0.0
  0
VERTEX
  5
2E8
  8
LAYER_1
 10
-244.6649870837322
 20
-239.3699490447714
 30
0.0
  0
VERTEX
  5
2E9
  8
LAYER_1
 10
-245.2396129950592
 20
-239.117120287265
 30
0.0
  0
VERTEX
  5
2EA
  8
LAYER_1
 10
-245.8042620815992
 20
-238.8592224880463
 30
0.0
  0
VERTEX
  5
2EB
  8
LAYER_1
 10
-246.3590205469092
 20
-238.5964174687352
 30
0.0
  0
VERTEX
  5
2EC
  8
LAYER_1
 10
-246.9039745945432
 20
-238.3288670509518
 30
0.0
  0
VERTEX
  5
2ED
  8
LAYER_1
 10
-247.4392104280581
 20
-238.0567330563159
 30
0.0
  0
VERTEX
  5
2EE
  8
LAYER_1
 10
-247.9648142510072
 20
-237.7801773064476
 30
0.0
  0
VERTEX
  5
2EF
  8
LAYER_1
 10
-248.4808722669462
 20
-237.4993616229673
 30
0.0
  0
VERTEX
  5
2F0
  8
LAYER_1
 10
-248.9874706794322
 20
-237.2144478274947
 30
0.0
  0
VERTEX
  5
2F1
  8
LAYER_1
 10
-249.4846956920172
 20
-236.9255977416502
 30
0.0
  0
VERTEX
  5
2F2
  8
LAYER_1
 10
-249.9726335082593
 20
-236.6329731870534
 30
0.0
  0
VERTEX
  5
2F3
  8
LAYER_1
 10
-250.4513703317112
 20
-236.3367359853248
 30
0.0
  0
VERTEX
  5
2F4
  8
LAYER_1
 10
-250.9209923659313
 20
-236.037047958084
 30
0.0
  0
VERTEX
  5
2F5
  8
LAYER_1
 10
-251.3815858144711
 20
-235.7340709269516
 30
0.0
  0
VERTEX
  5
2F6
  8
LAYER_1
 10
-251.8332368808891
 20
-235.4279667135472
 30
0.0
  0
VERTEX
  5
2F7
  8
LAYER_1
 10
-252.7100566815751
 20
-234.8070240264033
 30
0.0
  0
VERTEX
  5
2F8
  8
LAYER_1
 10
-253.5521413964312
 20
-234.1755144696126
 30
0.0
  0
VERTEX
  5
2F9
  8
LAYER_1
 10
-254.3601806538992
 20
-233.5347326161357
 30
0.0
  0
VERTEX
  5
2FA
  8
LAYER_1
 10
-255.1348640824193
 20
-232.8859730389331
 30
0.0
  0
VERTEX
  5
2FB
  8
LAYER_1
 10
-255.8768813104363
 20
-232.230530310965
 30
0.0
  0
VERTEX
  5
2FC
  8
LAYER_1
 10
-256.5869219663892
 20
-231.5696990051923
 30
0.0
  0
VERTEX
  5
2FD
  8
LAYER_1
 10
-257.2656756787211
 20
-230.9047736945751
 30
0.0
  0
VERTEX
  5
2FE
  8
LAYER_1
 10
-257.9138320758742
 20
-230.2370489520736
 30
0.0
  0
VERTEX
  5
2FF
  8
LAYER_1
 10
-258.5320807862882
 20
-229.5678193506487
 30
0.0
  0
VERTEX
  5
300
  8
LAYER_1
 10
-259.1211114384072
 20
-228.8983794632608
 30
0.0
  0
VERTEX
  5
301
  8
LAYER_1
 10
-259.6816136606723
 20
-228.2300238628702
 30
0.0
  0
VERTEX
  5
302
  8
LAYER_1
 10
-260.2142770815243
 20
-227.5640471224373
 30
0.0
  0
VERTEX
  5
303
  8
LAYER_1
 10
-260.7197913294061
 20
-226.9017438149227
 30
0.0
  0
VERTEX
  5
304
  8
LAYER_1
 10
-261.1988460327601
 20
-226.2444085132867
 30
0.0
  0
VERTEX
  5
305
  8
LAYER_1
 10
-261.6521308200262
 20
-225.5933357904896
 30
0.0
  0
VERTEX
  5
306
  8
LAYER_1
 10
-262.0803353196471
 20
-224.9498202194923
 30
0.0
  0
VERTEX
  5
307
  8
LAYER_1
 10
-262.4841491600642
 20
-224.3151563732549
 30
0.0
  0
VERTEX
  5
308
  8
LAYER_1
 10
-262.8642619697201
 20
-223.6906388247378
 30
0.0
  0
VERTEX
  5
309
  8
LAYER_1
 10
-263.2213633770572
 20
-223.0775621469018
 30
0.0
  0
VERTEX
  5
30A
  8
LAYER_1
 10
-263.5561430105153
 20
-222.477220912707
 30
0.0
  0
VERTEX
  5
30B
  8
LAYER_1
 10
-263.8692904985372
 20
-221.8909096951139
 30
0.0
  0
VERTEX
  5
30C
  8
LAYER_1
 10
-264.1614954695641
 20
-221.319923067083
 30
0.0
  0
VERTEX
  5
30D
  8
LAYER_1
 10
-264.4334475520392
 20
-220.7655556015749
 30
0.0
  0
VERTEX
  5
30E
  8
LAYER_1
 10
-264.6858363744021
 20
-220.2291018715497
 30
0.0
  0
VERTEX
  5
30F
  8
LAYER_1
 10
-264.9193515650971
 20
-219.7118564499681
 30
0.0
  0
VERTEX
  5
310
  8
LAYER_1
 10
-265.3325195652461
 20
-218.7401688239772
 30
0.0
  0
VERTEX
  5
311
  8
LAYER_1
 10
-265.6784685800193
 20
-217.8608493072858
 30
0.0
  0
VERTEX
  5
312
  8
LAYER_1
 10
-265.9627156369521
 20
-217.0842544835774
 30
0.0
  0
VERTEX
  5
313
  8
LAYER_1
 10
-266.1907777635782
 20
-216.4207409365354
 30
0.0
  0
VERTEX
  5
314
  8
LAYER_1
 10
-266.5004153360481
 20
-215.4743840071849
 30
0.0
  0
VERTEX
  5
315
  8
LAYER_1
 10
-266.5930248369601
 20
-215.2122537922438
 30
0.0
  0
VERTEX
  5
316
  8
LAYER_1
 10
-266.6261909656313
 20
-215.1384817525682
 30
0.0
  0
VERTEX
  5
317
  8
LAYER_1
 10
-266.6515175177022
 20
-215.1046311887031
 30
0.0
  0
VERTEX
  5
318
  8
LAYER_1
 10
-220.4933523598855
 20
-215.1046311887031
 30
0.0
  0
SEQEND
  5
319
  8
LAYER_1
  0
POLYLINE
  5
45
  8
LAYER_1
 66
     1
 10
0.0
 20
0.0
 30
0.0
 70
     1
  0
VERTEX
  5
31A
  8
LAYER_1
 10
-33.57537560281264
 20
-150.1370912399236
 30
0.0
  0
VERTEX
  5
31B
  8
LAYER_1
 10
-24.33038334884705
 20
-150.1370912399236
 30
0.0
  0
VERTEX
  5
31C
  8
LAYER_1
 10
-24.33038334884705
 20
-136.9516983099621
 30
0.0
  0
VERTEX
  5
31D
  8
LAYER_1
 10
-24.33943220790528
 20
-136.3383682508164
 30
0.0
  0
VERTEX
  5
31E
  8
LAYER_1
 10
-24.36666508897534
 20
-135.7028933400472
 30
0.0
  0
VERTEX
  5
31F
  8
LAYER_1
 10
-24.41221144789998
 20
-135.0462913139914
 30
0.0
  0
VERTEX
  5
320
  8
LAYER_1
 10
-24.47620074052216
 20
-134.3695799089854
 30
0.0
  0
VERTEX
  5
321
  8
LAYER_1
 10
-24.55876242268461
 20
-133.6737768613658
 30
0.0
  0
VERTEX
  5
322
  8
LAYER_1
 10
-24.66002595023032
 20
-132.9598999074693
 30
0.0
  0
VERTEX
  5
323
  8
LAYER_1
 10
-24.78012077900202
 20
-132.2289667836323
 30
0.0
  0
VERTEX
  5
324
  8
LAYER_1
 10
-24.91917636484278
 20
-131.4819952261916
 30
0.0
  0
VERTEX
  5
325
  8
LAYER_1
 10
-25.07732216359513
 20
-130.7200029714836
 30
0.0
  0
VERTEX
  5
326
  8
LAYER_1
 10
-25.25468763110236
 20
-129.9440077558449
 30
0.0
  0
VERTEX
  5
327
  8
LAYER_1
 10
-25.4514022232071
 20
-129.1550273156122
 30
0.0
  0
VERTEX
  5
328
  8
LAYER_1
 10
-25.6675953957522
 20
-128.354079387122
 30
0.0
  0
VERTEX
  5
329
  8
LAYER_1
 10
-25.90339660458064
 20
-127.5421817067109
 30
0.0
  0
VERTEX
  5
32A
  8
LAYER_1
 10
-26.15893530553502
 20
-126.7203520107154
 30
0.0
  0
VERTEX
  5
32B
  8
LAYER_1
 10
-26.43434095445834
 20
-125.8896080354722
 30
0.0
  0
VERTEX
  5
32C
  8
LAYER_1
 10
-26.72974300719353
 20
-125.0509675173179
 30
0.0
  0
VERTEX
  5
32D
  8
LAYER_1
 10
-27.04527091958336
 20
-124.205448192589
 30
0.0
  0
VERTEX
  5
32E
  8
LAYER_1
 10
-27.38105414747078
 20
-123.3540677976221
 30
0.0
  0
VERTEX
  5
32F
  8
LAYER_1
 10
-27.73722214669876
 20
-122.4978440687538
 30
0.0
  0
VERTEX
  5
330
  8
LAYER_1
 10
-28.11390437310992
 20
-121.6377947423207
 30
0.0
  0
VERTEX
  5
331
  8
LAYER_1
 10
-28.51123028254723
 20
-120.7749375546593
 30
0.0
  0
VERTEX
  5
332
  8
LAYER_1
 10
-28.92932933085355
 20
-119.9102902421063
 30
0.0
  0
VERTEX
  5
333
  8
LAYER_1
 10
-29.36833097387171
 20
-119.0448705409982
 30
0.0
  0
VERTEX
  5
334
  8
LAYER_1
 10
-29.82836466744459
 20
-118.1796961876716
 30
0.0
  0
VERTEX
  5
335
  8
LAYER_1
 10
-30.30955986741503
 20
-117.3157849184632
 30
0.0
  0
VERTEX
  5
336
  8
LAYER_1
 10
-30.812046029626
 20
-116.4541544697094
 30
0.0
  0
VERTEX
  5
337
  8
LAYER_1
 10
-31.33595260992035
 20
-115.5958225777469
 30
0.0
  0
VERTEX
  5
338
  8
LAYER_1
 10
-31.88140906414071
 20
-114.7418069789122
 30
0.0
  0
VERTEX
  5
339
  8
LAYER_1
 10
-32.44854484813015
 20
-113.8931254095419
 30
0.0
  0
VERTEX
  5
33A
  8
LAYER_1
 10
-33.03748941773154
 20
-113.0507956059727
 30
0.0
  0
VERTEX
  5
33B
  8
LAYER_1
 10
-33.64837222878759
 20
-112.215835304541
 30
0.0
  0
VERTEX
  5
33C
  8
LAYER_1
 10
-34.28132273714139
 20
-111.3892622415835
 30
0.0
  0
VERTEX
  5
33D
  8
LAYER_1
 10
-34.93647039863571
 20
-110.5720941534368
 30
0.0
  0
VERTEX
  5
33E
  8
LAYER_1
 10
-35.61394466911325
 20
-109.7653487764374
 30
0.0
  0
VERTEX
  5
33F
  8
LAYER_1
 10
-36.31387500441689
 20
-108.9700438469219
 30
0.0
  0
VERTEX
  5
340
  8
LAYER_1
 10
-37.0363908603898
 20
-108.187197101227
 30
0.0
  0
VERTEX
  5
341
  8
LAYER_1
 10
-37.78162169287462
 20
-107.4178262756891
 30
0.0
  0
VERTEX
  5
342
  8
LAYER_1
 10
-38.54969695771419
 20
-106.662949106645
 30
0.0
  0
VERTEX
  5
343
  8
LAYER_1
 10
-39.3407461107515
 20
-105.923583330431
 30
0.0
  0
VERTEX
  5
344
  8
LAYER_1
 10
-40.15489860782927
 20
-105.2007466833839
 30
0.0
  0
VERTEX
  5
345
  8
LAYER_1
 10
-40.99228390479047
 20
-104.4954569018402
 30
0.0
  0
VERTEX
  5
346
  8
LAYER_1
 10
-41.85303145747784
 20
-103.8087317221366
 30
0.0
  0
VERTEX
  5
347
  8
LAYER_1
 10
-42.2922065346697
 20
-103.47264890058
 30
0.0
  0
VERTEX
  5
348
  8
LAYER_1
 10
-42.73727072173423
 20
-103.1415888806095
 30
0.0
  0
VERTEX
  5
349
  8
LAYER_1
 10
-43.18824020065173
 20
-102.8156788792674
 30
0.0
  0
VERTEX
  5
34A
  8
LAYER_1
 10
-43.64513115340273
 20
-102.4950461135957
 30
0.0
  0
VERTEX
  5
34B
  8
LAYER_1
 10
-44.10795976196729
 20
-102.1798178006364
 30
0.0
  0
VERTEX
  5
34C
  8
LAYER_1
 10
-44.57674220832607
 20
-101.8701211574315
 30
0.0
  0
VERTEX
  5
34D
  8
LAYER_1
 10
-45.05149467445924
 20
-101.5660834010233
 30
0.0
  0
VERTEX
  5
34E
  8
LAYER_1
 10
-45.5322333423471
 20
-101.2678317484537
 30
0.0
  0
VERTEX
  5
34F
  8
LAYER_1
 10
-46.01897439397007
 20
-100.9754934167649
 30
0.0
  0
VERTEX
  5
350
  8
LAYER_1
 10
-46.51173401130868
 20
-100.6891956229989
 30
0.0
  0
VERTEX
  5
351
  8
LAYER_1
 10
-47.0105283763431
 20
-100.4090655841977
 30
0.0
  0
VERTEX
  5
352
  8
LAYER_1
 10
-47.51537367105354
 20
-100.1352305174036
 30
0.0
  0
VERTEX
  5
353
  8
LAYER_1
 10
-48.02628607742062
 20
-99.86781763965828
 30
0.0
  0
VERTEX
  5
354
  8
LAYER_1
 10
-48.54328177742477
 20
-99.60695416800428
 30
0.0
  0
VERTEX
  5
355
  8
LAYER_1
 10
-49.06637695304616
 20
-99.35276731948338
 30
0.0
  0
VERTEX
  5
356
  8
LAYER_1
 10
-49.5955877862651
 20
-99.10538431113767
 30
0.0
  0
VERTEX
  5
357
  8
LAYER_1
 10
-50.13093045906211
 20
-98.86493236000936
 30
0.0
  0
VERTEX
  5
358
  8
LAYER_1
 10
-50.6724211534175
 20
-98.63153868314038
 30
0.0
  0
VERTEX
  5
359
  8
LAYER_1
 10
-51.22007605131168
 20
-98.40533049757286
 30
0.0
  0
VERTEX
  5
35A
  8
LAYER_1
 10
-51.77391133472483
 20
-98.18643502034888
 30
0.0
  0
VERTEX
  5
35B
  8
LAYER_1
 10
-52.33394318563748
 20
-97.97497946851047
 30
0.0
  0
VERTEX
  5
35C
  8
LAYER_1
 10
-52.90018778602993
 20
-97.77109105909977
 30
0.0
  0
VERTEX
  5
35D
  8
LAYER_1
 10
-53.47266131788237
 20
-97.57489700915878
 30
0.0
  0
VERTEX
  5
35E
  8
LAYER_1
 10
-54.05137996317544
 20
-97.38652453572968
 30
0.0
  0
VERTEX
  5
35F
  8
LAYER_1
 10
-54.6363599038892
 20
-97.20610085585449
 30
0.0
  0
VERTEX
  5
360
  8
LAYER_1
 10
-55.22761732200442
 20
-97.03375318657518
 30
0.0
  0
VERTEX
  5
361
  8
LAYER_1
 10
-55.82516839950094
 20
-96.86960874493397
 30
0.0
  0
VERTEX
  5
362
  8
LAYER_1
 10
-56.42902931835962
 20
-96.71379474797288
 30
0.0
  0
VERTEX
  5
363
  8
LAYER_1
 10
-57.03921626056055
 20
-96.56643841273399
 30
0.0
  0
VERTEX
  5
364
  8
LAYER_1
 10
-57.65574540808413
 20
-96.42766695625929
 30
0.0
  0
VERTEX
  5
365
  8
LAYER_1
 10
-58.27863294291066
 20
-96.29760759559099
 30
0.0
  0
VERTEX
  5
366
  8
LAYER_1
 10
-58.90789504702056
 20
-96.17638754777107
 30
0.0
  0
VERTEX
  5
367
  8
LAYER_1
 10
-59.54354790239424
 20
-96.06413402984168
 30
0.0
  0
VERTEX
  5
368
  8
LAYER_1
 10
-60.185607691012
 20
-95.96097425884477
 30
0.0
  0
VERTEX
  5
369
  8
LAYER_1
 10
-60.83409059485413
 20
-95.86703545182249
 30
0.0
  0
VERTEX
  5
36A
  8
LAYER_1
 10
-61.48901279590117
 20
-95.78244482581698
 30
0.0
  0
VERTEX
  5
36B
  8
LAYER_1
 10
-62.15039047613331
 20
-95.70732959787028
 30
0.0
  0
VERTEX
  5
36C
  8
LAYER_1
 10
-62.81823981753095
 20
-95.64181698502426
 30
0.0
  0
VERTEX
  5
36D
  8
LAYER_1
 10
-63.49257700207463
 20
-95.58603420432127
 30
0.0
  0
VERTEX
  5
36E
  8
LAYER_1
 10
-64.1734182117444
 20
-95.54010847280327
 30
0.0
  0
VERTEX
  5
36F
  8
LAYER_1
 10
-64.86077962852082
 20
-95.50416700751228
 30
0.0
  0
VERTEX
  5
370
  8
LAYER_1
 10
-65.55467743438405
 20
-95.47833702549048
 30
0.0
  0
VERTEX
  5
371
  8
LAYER_1
 10
-66.25512781131462
 20
-95.46274574377986
 30
0.0
  0
VERTEX
  5
372
  8
LAYER_1
 10
-66.96214694129273
 20
-95.45752037942259
 30
0.0
  0
VERTEX
  5
373
  8
LAYER_1
 10
-75.88809087184381
 20
-95.45752037942259
 30
0.0
  0
VERTEX
  5
374
  8
LAYER_1
 10
-75.88809087184381
 20
-150.1370912399236
 30
0.0
  0
VERTEX
  5
375
  8
LAYER_1
 10
-64.72835273123471
 20
-150.1370912399236
 30
0.0
  0
VERTEX
  5
376
  8
LAYER_1
 10
-64.72835273123471
 20
-163.4752261325059
 30
0.0
  0
VERTEX
  5
377
  8
LAYER_1
 10
-68.79824211584057
 20
-163.4752261325059
 30
0.0
  0
VERTEX
  5
378
  8
LAYER_1
 10
-74.37571746882051
 20
-211.2545078518083
 30
0.0
  0
VERTEX
  5
379
  8
LAYER_1
 10
-28.2151585936797
 20
-211.2545078518083
 30
0.0
  0
VERTEX
  5
37A
  8
LAYER_1
 10
-33.79274793319883
 20
-163.4752261325059
 30
0.0
  0
VERTEX
  5
37B
  8
LAYER_1
 10
-37.86252333126548
 20
-163.4752261325059
 30
0.0
  0
VERTEX
  5
37C
  8
LAYER_1
 10
-37.86252333126548
 20
-150.1370912399236
 30
0.0
  0
SEQEND
  5
37D
  8
LAYER_1
  0
POLYLINE
  5
46
  8
LAYER_1
 66
     1
 10
0.0
 20
0.0
 30
0.0
 70
     1
  0
VERTEX
  5
37E
  8
LAYER_1
 10
-74.37571746882051
 20
-243.8156746863618
 30
0.0
  0
VERTEX
  5
37F
  8
LAYER_1
 10
-74.37571746882051
 20
-215.1046311887031
 30
0.0
  0
VERTEX
  5
380
  8
LAYER_1
 10
-28.2151585936797
 20
-215.1046311887031
 30
0.0
  0
VERTEX
  5
381
  8
LAYER_1
 10
-28.24048632432836
 20
-215.1384817525682
 30
0.0
  0
VERTEX
  5
382
  8
LAYER_1
 10
-28.27365377702621
 20
-215.2122537922438
 30
0.0
  0
VERTEX
  5
383
  8
LAYER_1
 10
-28.36626655675549
 20
-215.4743840071849
 30
0.0
  0
VERTEX
  5
384
  8
LAYER_1
 10
-28.67591457084815
 20
-216.4207409365354
 30
0.0
  0
VERTEX
  5
385
  8
LAYER_1
 10
-28.90398463795442
 20
-217.0842544835774
 30
0.0
  0
VERTEX
  5
386
  8
LAYER_1
 10
-29.18824196692914
 20
-217.8608493072858
 30
0.0
  0
VERTEX
  5
387
  8
LAYER_1
 10
-29.53420397414368
 20
-218.7401688239772
 30
0.0
  0
VERTEX
  5
388
  8
LAYER_1
 10
-29.73204842470716
 20
-219.2151139097904
 30
0.0
  0
VERTEX
  5
389
  8
LAYER_1
 10
-29.94738807596968
 20
-219.7118564499681
 30
0.0
  0
VERTEX
  5
38A
  8
LAYER_1
 10
-30.18091260497783
 20
-220.2291018715497
 30
0.0
  0
VERTEX
  5
38B
  8
LAYER_1
 10
-30.4333116887783
 20
-220.7655556015749
 30
0.0
  0
VERTEX
  5
38C
  8
LAYER_1
 10
-30.70527500441722
 20
-221.319923067083
 30
0.0
  0
VERTEX
  5
38D
  8
LAYER_1
 10
-30.99749222894093
 20
-221.8909096951139
 30
0.0
  0
VERTEX
  5
38E
  8
LAYER_1
 10
-31.31065303939602
 20
-222.477220912707
 30
0.0
  0
VERTEX
  5
38F
  8
LAYER_1
 10
-31.64544711282906
 20
-223.0775621469018
 30
0.0
  0
VERTEX
  5
390
  8
LAYER_1
 10
-32.0025641262863
 20
-223.6906388247378
 30
0.0
  0
VERTEX
  5
391
  8
LAYER_1
 10
-32.38269375681409
 20
-224.3151563732549
 30
0.0
  0
VERTEX
  5
392
  8
LAYER_1
 10
-32.78652568145901
 20
-224.9498202194923
 30
0.0
  0
VERTEX
  5
393
  8
LAYER_1
 10
-33.21474957726741
 20
-225.5933357904896
 30
0.0
  0
VERTEX
  5
394
  8
LAYER_1
 10
-33.66805512128576
 20
-226.2444085132867
 30
0.0
  0
VERTEX
  5
395
  8
LAYER_1
 10
-34.14713199056051
 20
-226.9017438149227
 30
0.0
  0
VERTEX
  5
396
  8
LAYER_1
 10
-34.65266986213793
 20
-227.5640471224373
 30
0.0
  0
VERTEX
  5
397
  8
LAYER_1
 10
-35.18535841306458
 20
-228.2300238628702
 30
0.0
  0
VERTEX
  5
398
  8
LAYER_1
 10
-35.74588732038693
 20
-228.8983794632608
 30
0.0
  0
VERTEX
  5
399
  8
LAYER_1
 10
-36.33494626115122
 20
-229.5678193506487
 30
0.0
  0
VERTEX
  5
39A
  8
LAYER_1
 10
-36.95322491240402
 20
-230.2370489520736
 30
0.0
  0
VERTEX
  5
39B
  8
LAYER_1
 10
-37.6014129511917
 20
-230.9047736945751
 30
0.0
  0
VERTEX
  5
39C
  8
LAYER_1
 10
-38.28020005456072
 20
-231.5696990051923
 30
0.0
  0
VERTEX
  5
39D
  8
LAYER_1
 10
-38.99027589955753
 20
-232.230530310965
 30
0.0
  0
VERTEX
  5
39E
  8
LAYER_1
 10
-39.73233016322851
 20
-232.8859730389331
 30
0.0
  0
VERTEX
  5
39F
  8
LAYER_1
 10
-40.50705252262
 20
-233.5347326161357
 30
0.0
  0
VERTEX
  5
3A0
  8
LAYER_1
 10
-41.31513265477858
 20
-234.1755144696126
 30
0.0
  0
VERTEX
  5
3A1
  8
LAYER_1
 10
-42.1572602367506
 20
-234.8070240264033
 30
0.0
  0
VERTEX
  5
3A2
  8
LAYER_1
 10
-43.03412494558242
 20
-235.4279667135472
 30
0.0
  0
VERTEX
  5
3A3
  8
LAYER_1
 10
-43.48579924664782
 20
-235.7340709269516
 30
0.0
  0
VERTEX
  5
3A4
  8
LAYER_1
 10
-43.94641645832061
 20
-236.037047958084
 30
0.0
  0
VERTEX
  5
3A5
  8
LAYER_1
 10
-44.41606279023162
 20
-236.3367359853248
 30
0.0
  0
VERTEX
  5
3A6
  8
LAYER_1
 10
-44.89482445201153
 20
-236.6329731870534
 30
0.0
  0
VERTEX
  5
3A7
  8
LAYER_1
 10
-45.38278765329127
 20
-236.9255977416502
 30
0.0
  0
VERTEX
  5
3A8
  8
LAYER_1
 10
-45.88003860370165
 20
-237.2144478274947
 30
0.0
  0
VERTEX
  5
3A9
  8
LAYER_1
 10
-46.38666351287347
 20
-237.4993616229673
 30
0.0
  0
VERTEX
  5
3AA
  8
LAYER_1
 10
-46.90274859043731
 20
-237.7801773064476
 30
0.0
  0
VERTEX
  5
3AB
  8
LAYER_1
 10
-47.42838004602422
 20
-238.0567330563159
 30
0.0
  0
VERTEX
  5
3AC
  8
LAYER_1
 10
-47.96364408926499
 20
-238.3288670509518
 30
0.0
  0
VERTEX
  5
3AD
  8
LAYER_1
 10
-48.50862692979021
 20
-238.5964174687352
 30
0.0
  0
VERTEX
  5
3AE
  8
LAYER_1
 10
-49.06341477723103
 20
-238.8592224880463
 30
0.0
  0
VERTEX
  5
3AF
  8
LAYER_1
 10
-49.62809384121803
 20
-239.117120287265
 30
0.0
  0
VERTEX
  5
3B0
  8
LAYER_1
 10
-50.20275033138202
 20
-239.3699490447714
 30
0.0
  0
VERTEX
  5
3B1
  8
LAYER_1
 10
-50.78747045735381
 20
-239.6175469389451
 30
0.0
  0
VERTEX
  5
3B2
  8
LAYER_1
 10
-51.38234042876419
 20
-239.859752148166
 30
0.0
  0
VERTEX
  5
3B3
  8
LAYER_1
 10
-51.98744645524411
 20
-240.0964028508145
 30
0.0
  0
VERTEX
  5
3B4
  8
LAYER_1
 10
-52.60287474642413
 20
-240.3273372252701
 30
0.0
  0
VERTEX
  5
3B5
  8
LAYER_1
 10
-53.2287115119353
 20
-240.552393449913
 30
0.0
  0
VERTEX
  5
3B6
  8
LAYER_1
 10
-53.86504296140831
 20
-240.7714097031233
 30
0.0
  0
VERTEX
  5
3B7
  8
LAYER_1
 10
-54.51195530447384
 20
-240.9842241632804
 30
0.0
  0
VERTEX
  5
3B8
  8
LAYER_1
 10
-55.16953475076284
 20
-241.1906750087646
 30
0.0
  0
VERTEX
  5
3B9
  8
LAYER_1
 10
-55.8378675099062
 20
-241.390600417956
 30
0.0
  0
VERTEX
  5
3BA
  8
LAYER_1
 10
-56.51703979153453
 20
-241.5838385692343
 30
0.0
  0
VERTEX
  5
3BB
  8
LAYER_1
 10
-57.20713780527873
 20
-241.7702276409793
 30
0.0
  0
VERTEX
  5
3BC
  8
LAYER_1
 10
-57.90824776076951
 20
-241.9496058115714
 30
0.0
  0
VERTEX
  5
3BD
  8
LAYER_1
 10
-58.62045586763779
 20
-242.12181125939
 30
0.0
  0
VERTEX
  5
3BE
  8
LAYER_1
 10
-59.34384833551437
 20
-242.2866821628156
 30
0.0
  0
VERTEX
  5
3BF
  8
LAYER_1
 10
-60.07851137402994
 20
-242.4440567002276
 30
0.0
  0
VERTEX
  5
3C0
  8
LAYER_1
 10
-60.82453119281544
 20
-242.5937730500065
 30
0.0
  0
VERTEX
  5
3C1
  8
LAYER_1
 10
-61.58199400150156
 20
-242.7356693905318
 30
0.0
  0
VERTEX
  5
3C2
  8
LAYER_1
 10
-62.35098600971921
 20
-242.8695839001837
 30
0.0
  0
VERTEX
  5
3C3
  8
LAYER_1
 10
-63.1315934270992
 20
-242.9953547573419
 30
0.0
  0
VERTEX
  5
3C4
  8
LAYER_1
 10
-63.92390246327213
 20
-243.1128201403866
 30
0.0
  0
VERTEX
  5
3C5
  8
LAYER_1
 10
-64.72799932786901
 20
-243.2218182276977
 30
0.0
  0
VERTEX
  5
3C6
  8
LAYER_1
 10
-65.54397023052056
 20
-243.3221871976551
 30
0.0
  0
VERTEX
  5
3C7
  8
LAYER_1
 10
-66.37190138085757
 20
-243.4137652286386
 30
0.0
  0
VERTEX
  5
3C8
  8
LAYER_1
 10
-67.21187898851085
 20
-243.4963904990283
 30
0.0
  0
VERTEX
  5
3C9
  8
LAYER_1
 10
-68.06398926311132
 20
-243.5699011872043
 30
0.0
  0
VERTEX
  5
3CA
  8
LAYER_1
 10
-68.92831841428969
 20
-243.6341354715461
 30
0.0
  0
VERTEX
  5
3CB
  8
LAYER_1
 10
-69.80495265167664
 20
-243.6889315304339
 30
0.0
  0
VERTEX
  5
3CC
  8
LAYER_1
 10
-70.6939781849031
 20
-243.734127542248
 30
0.0
  0
VERTEX
  5
3CD
  8
LAYER_1
 10
-71.59548122359999
 20
-243.7695616853676
 30
0.0
  0
VERTEX
  5
3CE
  8
LAYER_1
 10
-72.509547977398
 20
-243.7950721381733
 30
0.0
  0
VERTEX
  5
3CF
  8
LAYER_1
 10
-73.43626465592794
 20
-243.8104970790448
 30
0.0
  0
SEQEND
  5
3D0
  8
LAYER_1
  0
POLYLINE
  5
47
  8
LAYER_1
 66
     1
 10
0.0
 20
0.0
 30
0.0
 70
     1
  0
VERTEX
  5
3D1
  8
LAYER_1
 10
-155.6761606564017
 20
-260.3710796498166
 30
0.0
  0
VERTEX
  5
3D2
  8
LAYER_1
 10
-216.9739039734105
 20
-260.3710796498166
 30
0.0
  0
VERTEX
  5
3D3
  8
LAYER_1
 10
-227.4421997668132
 20
-268.3341792831611
 30
0.0
  0
VERTEX
  5
3D4
  8
LAYER_1
 10
-227.4421997668132
 20
-276.6449378612766
 30
0.0
  0
VERTEX
  5
3D5
  8
LAYER_1
 10
-155.6761606564017
 20
-276.6449378612766
 30
0.0
  0
SEQEND
  5
3D6
  8
LAYER_1
  0
POLYLINE
  5
48
  8
LAYER_1
 66
     1
 10
0.0
 20
0.0
 30
0.0
 70
     1
  0
VERTEX
  5
3D7
  8
LAYER_1
 10
-162.1624506869746
 20
-215.111698354138
 30
0.0
  0
VERTEX
  5
3D8
  8
LAYER_1
 10
-207.5044722236245
 20
-215.111698354138
 30
0.0
  0
VERTEX
  5
3D9
  8
LAYER_1
 10
-214.9875745401054
 20
-256.9799801065586
 30
0.0
  0
VERTEX
  5
3DA
  8
LAYER_1
 10
-159.1632368657236
 20
-256.9799801065586
 30
0.0
  0
SEQEND
  5
3DB
  8
LAYER_1
  0
POLYLINE
  5
49
  8
LAYER_1
 66
     1
 10
0.0
 20
0.0
 30
0.0
 70
     1
  0
VERTEX
  5
3DC
  8
LAYER_1
 10
-163.2493123389066
 20
-211.397902918209
 30
0.0
  0
VERTEX
  5
3DD
  8
LAYER_1
 10
-201.4158812285605
 20
-211.397902918209
 30
0.0
  0
VERTEX
  5
3DE
  8
LAYER_1
 10
-201.4158812285605
 20
-183.6626981832336
 30
0.0
  0
VERTEX
  5
3DF
  8
LAYER_1
 10
-163.2493123389066
 20
-183.6626981832336
 30
0.0
  0
SEQEND
  5
3E0
  8
LAYER_1
  0
POLYLINE
  5
4A
  8
LAYER_1
 66
     1
 10
0.0
 20
0.0
 30
0.0
 70
     1
  0
VERTEX
  5
3E1
  8
LAYER_1
 10
-139.2347422322156
 20
-276.6449378612766
 30
0.0
  0
VERTEX
  5
3E2
  8
LAYER_1
 10
-67.48933468541256
 20
-276.6449378612766
 30
0.0
  0
VERTEX
  5
3E3
  8
LAYER_1
 10
-67.48933468541256
 20
-268.3341792831611
 30
0.0
  0
VERTEX
  5
3E4
  8
LAYER_1
 10
-77.94623182488806
 20
-260.3710796498166
 30
0.0
  0
VERTEX
  5
3E5
  8
LAYER_1
 10
-139.2347422322156
 20
-260.3710796498166
 30
0.0
  0
SEQEND
  5
3E6
  8
LAYER_1
  0
POLYLINE
  5
4B
  8
LAYER_1
 66
     1
 10
0.0
 20
0.0
 30
0.0
 70
     1
  0
VERTEX
  5
3E7
  8
LAYER_1
 10
-135.7522254844636
 20
-256.9799801065586
 30
0.0
  0
VERTEX
  5
3E8
  8
LAYER_1
 10
-79.94418788519809
 20
-256.9799801065586
 30
0.0
  0
VERTEX
  5
3E9
  8
LAYER_1
 10
-87.41326985735003
 20
-215.111698354138
 30
0.0
  0
VERTEX
  5
3EA
  8
LAYER_1
 10
-132.7599648421086
 20
-215.111698354138
 30
0.0
  0
SEQEND
  5
3EB
  8
LAYER_1
  0
POLYLINE
  5
4C
  8
LAYER_1
 66
     1
 10
0.0
 20
0.0
 30
0.0
 70
     1
  0
VERTEX
  5
3EC
  8
LAYER_1
 10
-131.6870095479686
 20
-183.6626981832336
 30
0.0
  0
VERTEX
  5
3ED
  8
LAYER_1
 10
-93.49502166005686
 20
-183.6626981832336
 30
0.0
  0
VERTEX
  5
3EE
  8
LAYER_1
 10
-93.49502166005686
 20
-211.397902918209
 30
0.0
  0
VERTEX
  5
3EF
  8
LAYER_1
 10
-131.6870095479686
 20
-211.397902918209
 30
0.0
  0
SEQEND
  5
3F0
  8
LAYER_1
  0
POLYLINE
  5
4D
  8
LAYER_1
 66
     1
 10
0.0
 20
0.0
 30
0.0
 70
     1
  0
VERTEX
  5
3F1
  8
LAYER_1
 10
-117.2157344685111
 20
-68.69576068980597
 30
0.0
  0
VERTEX
  5
3F2
  8
LAYER_1
 10
-117.5248172013954
 20
-68.69185048068147
 30
0.0
  0
VERTEX
  5
3F3
  8
LAYER_1
 10
-117.8319763775131
 20
-68.68018244363397
 30
0.0
  0
VERTEX
  5
3F4
  8
LAYER_1
 10
-118.1371177904751
 20
-68.66085046415226
 30
0.0
  0
VERTEX
  5
3F5
  8
LAYER_1
 10
-118.4401472338926
 20
-68.63394842772536
 30
0.0
  0
VERTEX
  5
3F6
  8
LAYER_1
 10
-118.7409705013759
 20
-68.59957021984226
 30
0.0
  0
VERTEX
  5
3F7
  8
LAYER_1
 10
-119.0394933865362
 20
-68.55780972599186
 30
0.0
  0
VERTEX
  5
3F8
  8
LAYER_1
 10
-119.629261184331
 20
-68.45251742234485
 30
0.0
  0
VERTEX
  5
3F9
  8
LAYER_1
 10
-120.2086969761637
 20
-68.31882260069597
 30
0.0
  0
VERTEX
  5
3FA
  8
LAYER_1
 10
-120.777047110921
 20
-68.15747634495676
 30
0.0
  0
VERTEX
  5
3FB
  8
LAYER_1
 10
-121.3335579374897
 20
-67.96922973903857
 30
0.0
  0
VERTEX
  5
3FC
  8
LAYER_1
 10
-121.8774758047564
 20
-67.75483386685316
 30
0.0
  0
VERTEX
  5
3FD
  8
LAYER_1
 10
-122.408047061608
 20
-67.51503981231185
 30
0.0
  0
VERTEX
  5
3FE
  8
LAYER_1
 10
-122.9245180569312
 20
-67.25059865932636
 30
0.0
  0
VERTEX
  5
3FF
  8
LAYER_1
 10
-123.4261351396127
 20
-66.96226149180796
 30
0.0
  0
VERTEX
  5
400
  8
LAYER_1
 10
-123.9121446585395
 20
-66.65077939366846
 30
0.0
  0
VERTEX
  5
401
  8
LAYER_1
 10
-124.381792962598
 20
-66.31690344881916
 30
0.0
  0
VERTEX
  5
402
  8
LAYER_1
 10
-124.8343264006751
 20
-65.96138474117176
 30
0.0
  0
VERTEX
  5
403
  8
LAYER_1
 10
-125.2689913216578
 20
-65.58497435463757
 30
0.0
  0
VERTEX
  5
404
  8
LAYER_1
 10
-125.6850340744326
 20
-65.18842337312836
 30
0.0
  0
VERTEX
  5
405
  8
LAYER_1
 10
-126.0817010078864
 20
-64.77248288055546
 30
0.0
  0
VERTEX
  5
406
  8
LAYER_1
 10
-126.4582384709057
 20
-64.33790396083046
 30
0.0
  0
VERTEX
  5
407
  8
LAYER_1
 10
-126.8138928123772
 20
-63.88543769786496
 30
0.0
  0
VERTEX
  5
408
  8
LAYER_1
 10
-127.1479103811881
 20
-63.41583517557036
 30
0.0
  0
VERTEX
  5
409
  8
LAYER_1
 10
-127.4595375262248
 20
-62.92984747785836
 30
0.0
  0
VERTEX
  5
40A
  8
LAYER_1
 10
-127.7480205963741
 20
-62.42822568864027
 30
0.0
  0
VERTEX
  5
40B
  8
LAYER_1
 10
-128.0126059405231
 20
-61.91172089182776
 30
0.0
  0
VERTEX
  5
40C
  8
LAYER_1
 10
-128.2525399075582
 20
-61.38108417133226
 30
0.0
  0
VERTEX
  5
40D
  8
LAYER_1
 10
-128.4670688463662
 20
-60.83706661106537
 30
0.0
  0
VERTEX
  5
40E
  8
LAYER_1
 10
-128.6554391058339
 20
-60.28041929493857
 30
0.0
  0
VERTEX
  5
40F
  8
LAYER_1
 10
-128.816897034848
 20
-59.71189330686346
 30
0.0
  0
VERTEX
  5
410
  8
LAYER_1
 10
-128.9506889822952
 20
-59.13223973075146
 30
0.0
  0
VERTEX
  5
411
  8
LAYER_1
 10
-129.0069746969584
 20
-58.83847481090396
 30
0.0
  0
VERTEX
  5
412
  8
LAYER_1
 10
-129.0560612970624
 20
-58.54220965051417
 30
0.0
  0
VERTEX
  5
413
  8
LAYER_1
 10
-129.097854576218
 20
-58.24353813507086
 30
0.0
  0
VERTEX
  5
414
  8
LAYER_1
 10
-129.1322603280364
 20
-57.94255415006306
 30
0.0
  0
VERTEX
  5
415
  8
LAYER_1
 10
-129.1591843461279
 20
-57.63935158097966
 30
0.0
  0
VERTEX
  5
416
  8
LAYER_1
 10
-129.1785324241037
 20
-57.33402431330965
 30
0.0
  0
VERTEX
  5
417
  8
LAYER_1
 10
-129.1902103555746
 20
-57.02666623254196
 30
0.0
  0
VERTEX
  5
418
  8
LAYER_1
 10
-129.1941239341515
 20
-56.71737122416556
 30
0.0
  0
VERTEX
  5
419
  8
LAYER_1
 10
-129.1902103555746
 20
-56.40830058113175
 30
0.0
  0
VERTEX
  5
41A
  8
LAYER_1
 10
-129.1785324241037
 20
-56.10115623947446
 30
0.0
  0
VERTEX
  5
41B
  8
LAYER_1
 10
-129.1591843461279
 20
-55.79603231166067
 30
0.0
  0
VERTEX
  5
41C
  8
LAYER_1
 10
-129.1322603280364
 20
-55.49302291015756
 30
0.0
  0
VERTEX
  5
41D
  8
LAYER_1
 10
-129.097854576218
 20
-55.19222214743236
 30
0.0
  0
VERTEX
  5
41E
  8
LAYER_1
 10
-129.0560612970624
 20
-54.89372413595206
 30
0.0
  0
VERTEX
  5
41F
  8
LAYER_1
 10
-128.9506889822952
 20
-54.30401281659506
 30
0.0
  0
VERTEX
  5
420
  8
LAYER_1
 10
-128.816897034848
 20
-53.72464185182376
 30
0.0
  0
VERTEX
  5
421
  8
LAYER_1
 10
-128.6554391058339
 20
-53.15636414137516
 30
0.0
  0
VERTEX
  5
422
  8
LAYER_1
 10
-128.4670688463662
 20
-52.59993258498646
 30
0.0
  0
VERTEX
  5
423
  8
LAYER_1
 10
-128.2525399075582
 20
-52.05610008239486
 30
0.0
  0
VERTEX
  5
424
  8
LAYER_1
 10
-128.0126059405231
 20
-51.52561953333736
 30
0.0
  0
VERTEX
  5
425
  8
LAYER_1
 10
-127.7480205963741
 20
-51.00924383755117
 30
0.0
  0
VERTEX
  5
426
  8
LAYER_1
 10
-127.4595375262248
 20
-50.50772589477346
 30
0.0
  0
VERTEX
  5
427
  8
LAYER_1
 10
-127.1479103811881
 20
-50.02181860474126
 30
0.0
  0
VERTEX
  5
428
  8
LAYER_1
 10
-126.8138928123772
 20
-49.55227486719185
 30
0.0
  0
VERTEX
  5
429
  8
LAYER_1
 10
-126.4582384709057
 20
-49.09984758186216
 30
0.0
  0
VERTEX
  5
42A
  8
LAYER_1
 10
-126.0817010078864
 20
-48.66528964848946
 30
0.0
  0
VERTEX
  5
42B
  8
LAYER_1
 10
-125.6850340744326
 20
-48.24935396681096
 30
0.0
  0
VERTEX
  5
42C
  8
LAYER_1
 10
-125.2689913216578
 20
-47.85279343656356
 30
0.0
  0
VERTEX
  5
42D
  8
LAYER_1
 10
-124.8343264006751
 20
-47.47636095748456
 30
0.0
  0
VERTEX
  5
42E
  8
LAYER_1
 10
-124.381792962598
 20
-47.12080942931107
 30
0.0
  0
VERTEX
  5
42F
  8
LAYER_1
 10
-123.9121446585395
 20
-46.78689175178016
 30
0.0
  0
VERTEX
  5
430
  8
LAYER_1
 10
-123.4261351396127
 20
-46.47536082462901
 30
0.0
  0
VERTEX
  5
431
  8
LAYER_1
 10
-122.9245180569312
 20
-46.18696954759474
 30
0.0
  0
VERTEX
  5
432
  8
LAYER_1
 10
-122.408047061608
 20
-45.9224708204145
 30
0.0
  0
VERTEX
  5
433
  8
LAYER_1
 10
-121.8774758047564
 20
-45.68261754282541
 30
0.0
  0
VERTEX
  5
434
  8
LAYER_1
 10
-121.3335579374897
 20
-45.46816261456462
 30
0.0
  0
VERTEX
  5
435
  8
LAYER_1
 10
-120.777047110921
 20
-45.27985893536922
 30
0.0
  0
VERTEX
  5
436
  8
LAYER_1
 10
-120.2086969761637
 20
-45.11845940497636
 30
0.0
  0
VERTEX
  5
437
  8
LAYER_1
 10
-119.629261184331
 20
-44.98471692312317
 30
0.0
  0
VERTEX
  5
438
  8
LAYER_1
 10
-119.3356216829844
 20
-44.92845235656682
 30
0.0
  0
VERTEX
  5
439
  8
LAYER_1
 10
-119.0394933865362
 20
-44.8793843895468
 30
0.0
  0
VERTEX
  5
43A
  8
LAYER_1
 10
-118.7409705013759
 20
-44.83760713453026
 30
0.0
  0
VERTEX
  5
43B
  8
LAYER_1
 10
-118.4401472338926
 20
-44.80321470398437
 30
0.0
  0
VERTEX
  5
43C
  8
LAYER_1
 10
-118.1371177904751
 20
-44.77630121037625
 30
0.0
  0
VERTEX
  5
43D
  8
LAYER_1
 10
-117.8319763775131
 20
-44.75696076617302
 30
0.0
  0
VERTEX
  5
43E
  8
LAYER_1
 10
-117.5248172013954
 20
-44.74528748384185
 30
0.0
  0
VERTEX
  5
43F
  8
LAYER_1
 10
-117.2157344685111
 20
-44.74137547584988
 30
0.0
  0
VERTEX
  5
440
  8
LAYER_1
 10
-116.906872658467
 20
-44.74528748384185
 30
0.0
  0
VERTEX
  5
441
  8
LAYER_1
 10
-116.5999275019211
 20
-44.75696076617302
 30
0.0
  0
VERTEX
  5
442
  8
LAYER_1
 10
-116.2949933148386
 20
-44.77630121037625
 30
0.0
  0
VERTEX
  5
443
  8
LAYER_1
 10
-115.9921644131842
 20
-44.80321470398437
 30
0.0
  0
VERTEX
  5
444
  8
LAYER_1
 10
-115.6915351129226
 20
-44.83760713453026
 30
0.0
  0
VERTEX
  5
445
  8
LAYER_1
 10
-115.3931997300188
 20
-44.8793843895468
 30
0.0
  0
VERTEX
  5
446
  8
LAYER_1
 10
-114.8037879801439
 20
-44.98471692312317
 30
0.0
  0
VERTEX
  5
447
  8
LAYER_1
 10
-114.224683691278
 20
-45.11845940497636
 30
0.0
  0
VERTEX
  5
448
  8
LAYER_1
 10
-113.6566413911401
 20
-45.27985893536922
 30
0.0
  0
VERTEX
  5
449
  8
LAYER_1
 10
-113.1004156074487
 20
-45.46816261456462
 30
0.0
  0
VERTEX
  5
44A
  8
LAYER_1
 10
-112.5567608679226
 20
-45.68261754282541
 30
0.0
  0
VERTEX
  5
44B
  8
LAYER_1
 10
-112.0264317002805
 20
-45.9224708204145
 30
0.0
  0
VERTEX
  5
44C
  8
LAYER_1
 10
-111.510182632241
 20
-46.18696954759474
 30
0.0
  0
VERTEX
  5
44D
  8
LAYER_1
 10
-111.0087681915228
 20
-46.47536082462901
 30
0.0
  0
VERTEX
  5
44E
  8
LAYER_1
 10
-110.5229429058448
 20
-46.78689175178016
 30
0.0
  0
VERTEX
  5
44F
  8
LAYER_1
 10
-110.0534613029255
 20
-47.12080942931107
 30
0.0
  0
VERTEX
  5
450
  8
LAYER_1
 10
-109.6010779104838
 20
-47.47636095748456
 30
0.0
  0
VERTEX
  5
451
  8
LAYER_1
 10
-109.1665472562382
 20
-47.85279343656356
 30
0.0
  0
VERTEX
  5
452
  8
LAYER_1
 10
-108.7506238679078
 20
-48.24935396681096
 30
0.0
  0
VERTEX
  5
453
  8
LAYER_1
 10
-108.354062273211
 20
-48.66528964848946
 30
0.0
  0
VERTEX
  5
454
  8
LAYER_1
 10
-107.9776169998666
 20
-49.09984758186216
 30
0.0
  0
VERTEX
  5
455
  8
LAYER_1
 10
-107.6220425755933
 20
-49.55227486719185
 30
0.0
  0
VERTEX
  5
456
  8
LAYER_1
 10
-107.2880935281095
 20
-50.02181860474126
 30
0.0
  0
VERTEX
  5
457
  8
LAYER_1
 10
-106.9765243851344
 20
-50.50772589477346
 30
0.0
  0
VERTEX
  5
458
  8
LAYER_1
 10
-106.6880896743865
 20
-51.00924383755117
 30
0.0
  0
VERTEX
  5
459
  8
LAYER_1
 10
-106.4235439235844
 20
-51.52561953333736
 30
0.0
  0
VERTEX
  5
45A
  8
LAYER_1
 10
-106.183641660447
 20
-52.05610008239486
 30
0.0
  0
VERTEX
  5
45B
  8
LAYER_1
 10
-105.969137412693
 20
-52.59993258498646
 30
0.0
  0
VERTEX
  5
45C
  8
LAYER_1
 10
-105.7807857080412
 20
-53.15636414137516
 30
0.0
  0
VERTEX
  5
45D
  8
LAYER_1
 10
-105.6193410742099
 20
-53.72464185182376
 30
0.0
  0
VERTEX
  5
45E
  8
LAYER_1
 10
-105.4855580389181
 20
-54.30401281659506
 30
0.0
  0
VERTEX
  5
45F
  8
LAYER_1
 10
-105.4292754106366
 20
-54.59762298818396
 30
0.0
  0
VERTEX
  5
460
  8
LAYER_1
 10
-105.3801911298845
 20
-54.89372413595206
 30
0.0
  0
VERTEX
  5
461
  8
LAYER_1
 10
-105.3383995126267
 20
-55.19222214743236
 30
0.0
  0
VERTEX
  5
462
  8
LAYER_1
 10
-105.3039948748279
 20
-55.49302291015756
 30
0.0
  0
VERTEX
  5
463
  8
LAYER_1
 10
-105.277071532453
 20
-55.79603231166067
 30
0.0
  0
VERTEX
  5
464
  8
LAYER_1
 10
-105.2577238014667
 20
-56.10115623947446
 30
0.0
  0
VERTEX
  5
465
  8
LAYER_1
 10
-105.2460459978342
 20
-56.40830058113175
 30
0.0
  0
VERTEX
  5
466
  8
LAYER_1
 10
-105.2421324375201
 20
-56.71737122416556
 30
0.0
  0
VERTEX
  5
467
  8
LAYER_1
 10
-105.2460459978342
 20
-57.02666623254196
 30
0.0
  0
VERTEX
  5
468
  8
LAYER_1
 10
-105.2577238014667
 20
-57.33402431330965
 30
0.0
  0
VERTEX
  5
469
  8
LAYER_1
 10
-105.277071532453
 20
-57.63935158097966
 30
0.0
  0
VERTEX
  5
46A
  8
LAYER_1
 10
-105.3039948748279
 20
-57.94255415006306
 30
0.0
  0
VERTEX
  5
46B
  8
LAYER_1
 10
-105.3383995126267
 20
-58.24353813507086
 30
0.0
  0
VERTEX
  5
46C
  8
LAYER_1
 10
-105.3801911298845
 20
-58.54220965051417
 30
0.0
  0
VERTEX
  5
46D
  8
LAYER_1
 10
-105.4292754106366
 20
-58.83847481090396
 30
0.0
  0
VERTEX
  5
46E
  8
LAYER_1
 10
-105.4855580389181
 20
-59.13223973075146
 30
0.0
  0
VERTEX
  5
46F
  8
LAYER_1
 10
-105.6193410742099
 20
-59.71189330686346
 30
0.0
  0
VERTEX
  5
470
  8
LAYER_1
 10
-105.7807857080412
 20
-60.28041929493857
 30
0.0
  0
VERTEX
  5
471
  8
LAYER_1
 10
-105.969137412693
 20
-60.83706661106537
 30
0.0
  0
VERTEX
  5
472
  8
LAYER_1
 10
-106.183641660447
 20
-61.38108417133226
 30
0.0
  0
VERTEX
  5
473
  8
LAYER_1
 10
-106.4235439235844
 20
-61.91172089182776
 30
0.0
  0
VERTEX
  5
474
  8
LAYER_1
 10
-106.6880896743865
 20
-62.42822568864027
 30
0.0
  0
VERTEX
  5
475
  8
LAYER_1
 10
-106.9765243851344
 20
-62.92984747785836
 30
0.0
  0
VERTEX
  5
476
  8
LAYER_1
 10
-107.2880935281095
 20
-63.41583517557036
 30
0.0
  0
VERTEX
  5
477
  8
LAYER_1
 10
-107.6220425755933
 20
-63.88543769786496
 30
0.0
  0
VERTEX
  5
478
  8
LAYER_1
 10
-107.9776169998666
 20
-64.33790396083046
 30
0.0
  0
VERTEX
  5
479
  8
LAYER_1
 10
-108.354062273211
 20
-64.77248288055546
 30
0.0
  0
VERTEX
  5
47A
  8
LAYER_1
 10
-108.7506238679078
 20
-65.18842337312836
 30
0.0
  0
VERTEX
  5
47B
  8
LAYER_1
 10
-109.1665472562382
 20
-65.58497435463757
 30
0.0
  0
VERTEX
  5
47C
  8
LAYER_1
 10
-109.6010779104838
 20
-65.96138474117176
 30
0.0
  0
VERTEX
  5
47D
  8
LAYER_1
 10
-110.0534613029255
 20
-66.31690344881916
 30
0.0
  0
VERTEX
  5
47E
  8
LAYER_1
 10
-110.5229429058448
 20
-66.65077939366846
 30
0.0
  0
VERTEX
  5
47F
  8
LAYER_1
 10
-111.0087681915228
 20
-66.96226149180796
 30
0.0
  0
VERTEX
  5
480
  8
LAYER_1
 10
-111.510182632241
 20
-67.25059865932636
 30
0.0
  0
VERTEX
  5
481
  8
LAYER_1
 10
-112.0264317002805
 20
-67.51503981231185
 30
0.0
  0
VERTEX
  5
482
  8
LAYER_1
 10
-112.5567608679226
 20
-67.75483386685316
 30
0.0
  0
VERTEX
  5
483
  8
LAYER_1
 10
-113.1004156074487
 20
-67.96922973903857
 30
0.0
  0
VERTEX
  5
484
  8
LAYER_1
 10
-113.6566413911401
 20
-68.15747634495676
 30
0.0
  0
VERTEX
  5
485
  8
LAYER_1
 10
-114.224683691278
 20
-68.31882260069597
 30
0.0
  0
VERTEX
  5
486
  8
LAYER_1
 10
-114.8037879801439
 20
-68.45251742234485
 30
0.0
  0
VERTEX
  5
487
  8
LAYER_1
 10
-115.0972525804376
 20
-68.50876083166307
 30
0.0
  0
VERTEX
  5
488
  8
LAYER_1
 10
-115.3931997300188
 20
-68.55780972599186
 30
0.0
  0
VERTEX
  5
489
  8
LAYER_1
 10
-115.6915351129226
 20
-68.59957021984226
 30
0.0
  0
VERTEX
  5
48A
  8
LAYER_1
 10
-115.9921644131842
 20
-68.63394842772536
 30
0.0
  0
VERTEX
  5
48B
  8
LAYER_1
 10
-116.2949933148386
 20
-68.66085046415226
 30
0.0
  0
VERTEX
  5
48C
  8
LAYER_1
 10
-116.5999275019211
 20
-68.68018244363397
 30
0.0
  0
VERTEX
  5
48D
  8
LAYER_1
 10
-116.906872658467
 20
-68.69185048068147
 30
0.0
  0
SEQEND
  5
48E
  8
LAYER_1
  0
POLYLINE
  5
4E
  8
LAYER_1
 66
     1
 10
0.0
 20
0.0
 30
0.0
 70
     1
  0
VERTEX
  5
48F
  8
LAYER_1
 10
-177.7112405221436
 20
-68.69576068980597
 30
0.0
  0
VERTEX
  5
490
  8
LAYER_1
 10
-178.0203179949595
 20
-68.69185048068147
 30
0.0
  0
VERTEX
  5
491
  8
LAYER_1
 10
-178.3274720753737
 20
-68.68018244363397
 30
0.0
  0
VERTEX
  5
492
  8
LAYER_1
 10
-178.6326085543865
 20
-68.66085046415226
 30
0.0
  0
VERTEX
  5
493
  8
LAYER_1
 10
-178.9356332229996
 20
-68.63394842772536
 30
0.0
  0
VERTEX
  5
494
  8
LAYER_1
 10
-179.2364518722166
 20
-68.59957021984226
 30
0.0
  0
VERTEX
  5
495
  8
LAYER_1
 10
-179.5349702930367
 20
-68.55780972599186
 30
0.0
  0
VERTEX
  5
496
  8
LAYER_1
 10
-180.1247296135005
 20
-68.45251742234485
 30
0.0
  0
VERTEX
  5
497
  8
LAYER_1
 10
-180.7041575124056
 20
-68.31882260069597
 30
0.0
  0
VERTEX
  5
498
  8
LAYER_1
 10
-181.2725003177666
 20
-68.15747634495676
 30
0.0
  0
VERTEX
  5
499
  8
LAYER_1
 10
-181.8290043576006
 20
-67.96922973903857
 30
0.0
  0
VERTEX
  5
49A
  8
LAYER_1
 10
-182.3729159599207
 20
-67.75483386685316
 30
0.0
  0
VERTEX
  5
49B
  8
LAYER_1
 10
-182.9034814527436
 20
-67.51503981231185
 30
0.0
  0
VERTEX
  5
49C
  8
LAYER_1
 10
-183.4199471640837
 20
-67.25059865932636
 30
0.0
  0
VERTEX
  5
49D
  8
LAYER_1
 10
-183.9215594219566
 20
-66.96226149180796
 30
0.0
  0
VERTEX
  5
49E
  8
LAYER_1
 10
-184.4075645543776
 20
-66.65077939366846
 30
0.0
  0
VERTEX
  5
49F
  8
LAYER_1
 10
-184.8772088893616
 20
-66.31690344881916
 30
0.0
  0
VERTEX
  5
4A0
  8
LAYER_1
 10
-185.3297387549235
 20
-65.96138474117176
 30
0.0
  0
VERTEX
  5
4A1
  8
LAYER_1
 10
-185.7644004790796
 20
-65.58497435463757
 30
0.0
  0
VERTEX
  5
4A2
  8
LAYER_1
 10
-186.1804403898437
 20
-65.18842337312836
 30
0.0
  0
VERTEX
  5
4A3
  8
LAYER_1
 10
-186.5771048152306
 20
-64.77248288055546
 30
0.0
  0
VERTEX
  5
4A4
  8
LAYER_1
 10
-186.9536400832586
 20
-64.33790396083046
 30
0.0
  0
VERTEX
  5
4A5
  8
LAYER_1
 10
-187.3092925219397
 20
-63.88543769786496
 30
0.0
  0
VERTEX
  5
4A6
  8
LAYER_1
 10
-187.6433084592896
 20
-63.41583517557036
 30
0.0
  0
VERTEX
  5
4A7
  8
LAYER_1
 10
-187.9549342233257
 20
-62.92984747785836
 30
0.0
  0
VERTEX
  5
4A8
  8
LAYER_1
 10
-188.2434161420607
 20
-62.42822568864027
 30
0.0
  0
VERTEX
  5
4A9
  8
LAYER_1
 10
-188.5080005435107
 20
-61.91172089182776
 30
0.0
  0
VERTEX
  5
4AA
  8
LAYER_1
 10
-188.7479337556907
 20
-61.38108417133226
 30
0.0
  0
VERTEX
  5
4AB
  8
LAYER_1
 10
-188.9624621066167
 20
-60.83706661106537
 30
0.0
  0
VERTEX
  5
4AC
  8
LAYER_1
 10
-189.1508319243026
 20
-60.28041929493857
 30
0.0
  0
VERTEX
  5
4AD
  8
LAYER_1
 10
-189.3122895367656
 20
-59.71189330686346
 30
0.0
  0
VERTEX
  5
4AE
  8
LAYER_1
 10
-189.4460812720186
 20
-59.13223973075146
 30
0.0
  0
VERTEX
  5
4AF
  8
LAYER_1
 10
-189.5023669131957
 20
-58.83847481090396
 30
0.0
  0
VERTEX
  5
4B0
  8
LAYER_1
 10
-189.5514534580776
 20
-58.54220965051417
 30
0.0
  0
VERTEX
  5
4B1
  8
LAYER_1
 10
-189.5932466976636
 20
-58.24353813507086
 30
0.0
  0
VERTEX
  5
4B2
  8
LAYER_1
 10
-189.6276524229586
 20
-57.94255415006306
 30
0.0
  0
VERTEX
  5
4B3
  8
LAYER_1
 10
-189.6545764249616
 20
-57.63935158097966
 30
0.0
  0
VERTEX
  5
4B4
  8
LAYER_1
 10
-189.6739244946755
 20
-57.33402431330965
 30
0.0
  0
VERTEX
  5
4B5
  8
LAYER_1
 10
-189.6856024231027
 20
-57.02666623254196
 30
0.0
  0
VERTEX
  5
4B6
  8
LAYER_1
 10
-189.6895160012446
 20
-56.71737122416556
 30
0.0
  0
VERTEX
  5
4B7
  8
LAYER_1
 10
-189.6856024231027
 20
-56.40830058113175
 30
0.0
  0
VERTEX
  5
4B8
  8
LAYER_1
 10
-189.6739244946755
 20
-56.10115623947446
 30
0.0
  0
VERTEX
  5
4B9
  8
LAYER_1
 10
-189.6545764249616
 20
-55.79603231166067
 30
0.0
  0
VERTEX
  5
4BA
  8
LAYER_1
 10
-189.6276524229586
 20
-55.49302291015756
 30
0.0
  0
VERTEX
  5
4BB
  8
LAYER_1
 10
-189.5932466976636
 20
-55.19222214743236
 30
0.0
  0
VERTEX
  5
4BC
  8
LAYER_1
 10
-189.5514534580776
 20
-54.89372413595206
 30
0.0
  0
VERTEX
  5
4BD
  8
LAYER_1
 10
-189.4460812720186
 20
-54.30401281659506
 30
0.0
  0
VERTEX
  5
4BE
  8
LAYER_1
 10
-189.3122895367656
 20
-53.72464185182376
 30
0.0
  0
VERTEX
  5
4BF
  8
LAYER_1
 10
-189.1508319243026
 20
-53.15636414137516
 30
0.0
  0
VERTEX
  5
4C0
  8
LAYER_1
 10
-188.9624621066167
 20
-52.59993258498646
 30
0.0
  0
VERTEX
  5
4C1
  8
LAYER_1
 10
-188.7479337556907
 20
-52.05610008239486
 30
0.0
  0
VERTEX
  5
4C2
  8
LAYER_1
 10
-188.5080005435107
 20
-51.52561953333736
 30
0.0
  0
VERTEX
  5
4C3
  8
LAYER_1
 10
-188.2434161420607
 20
-51.00924383755117
 30
0.0
  0
VERTEX
  5
4C4
  8
LAYER_1
 10
-187.9549342233257
 20
-50.50772589477346
 30
0.0
  0
VERTEX
  5
4C5
  8
LAYER_1
 10
-187.6433084592896
 20
-50.02181860474126
 30
0.0
  0
VERTEX
  5
4C6
  8
LAYER_1
 10
-187.3092925219397
 20
-49.55227486719185
 30
0.0
  0
VERTEX
  5
4C7
  8
LAYER_1
 10
-186.9536400832586
 20
-49.09984758186216
 30
0.0
  0
VERTEX
  5
4C8
  8
LAYER_1
 10
-186.5771048152306
 20
-48.66528964848946
 30
0.0
  0
VERTEX
  5
4C9
  8
LAYER_1
 10
-186.1804403898437
 20
-48.24935396681096
 30
0.0
  0
VERTEX
  5
4CA
  8
LAYER_1
 10
-185.7644004790796
 20
-47.85279343656356
 30
0.0
  0
VERTEX
  5
4CB
  8
LAYER_1
 10
-185.3297387549235
 20
-47.47636095748456
 30
0.0
  0
VERTEX
  5
4CC
  8
LAYER_1
 10
-184.8772088893616
 20
-47.12080942931107
 30
0.0
  0
VERTEX
  5
4CD
  8
LAYER_1
 10
-184.4075645543776
 20
-46.78689175178016
 30
0.0
  0
VERTEX
  5
4CE
  8
LAYER_1
 10
-183.9215594219566
 20
-46.47536082462901
 30
0.0
  0
VERTEX
  5
4CF
  8
LAYER_1
 10
-183.4199471640837
 20
-46.18696954759474
 30
0.0
  0
VERTEX
  5
4D0
  8
LAYER_1
 10
-182.9034814527436
 20
-45.9224708204145
 30
0.0
  0
VERTEX
  5
4D1
  8
LAYER_1
 10
-182.3729159599207
 20
-45.68261754282541
 30
0.0
  0
VERTEX
  5
4D2
  8
LAYER_1
 10
-181.8290043576006
 20
-45.46816261456462
 30
0.0
  0
VERTEX
  5
4D3
  8
LAYER_1
 10
-181.2725003177666
 20
-45.27985893536922
 30
0.0
  0
VERTEX
  5
4D4
  8
LAYER_1
 10
-180.7041575124056
 20
-45.11845940497636
 30
0.0
  0
VERTEX
  5
4D5
  8
LAYER_1
 10
-180.1247296135005
 20
-44.98471692312317
 30
0.0
  0
VERTEX
  5
4D6
  8
LAYER_1
 10
-179.8310942764645
 20
-44.92845235656682
 30
0.0
  0
VERTEX
  5
4D7
  8
LAYER_1
 10
-179.5349702930367
 20
-44.8793843895468
 30
0.0
  0
VERTEX
  5
4D8
  8
LAYER_1
 10
-179.2364518722166
 20
-44.83760713453026
 30
0.0
  0
VERTEX
  5
4D9
  8
LAYER_1
 10
-178.9356332229996
 20
-44.80321470398437
 30
0.0
  0
VERTEX
  5
4DA
  8
LAYER_1
 10
-178.6326085543865
 20
-44.77630121037625
 30
0.0
  0
VERTEX
  5
4DB
  8
LAYER_1
 10
-178.3274720753737
 20
-44.75696076617302
 30
0.0
  0
VERTEX
  5
4DC
  8
LAYER_1
 10
-178.0203179949595
 20
-44.74528748384185
 30
0.0
  0
VERTEX
  5
4DD
  8
LAYER_1
 10
-177.7112405221436
 20
-44.74137547584988
 30
0.0
  0
VERTEX
  5
4DE
  8
LAYER_1
 10
-177.4021646190427
 20
-44.74528748384185
 30
0.0
  0
VERTEX
  5
4DF
  8
LAYER_1
 10
-177.0950151816806
 20
-44.75696076617302
 30
0.0
  0
VERTEX
  5
4E0
  8
LAYER_1
 10
-176.7898863199176
 20
-44.77630121037625
 30
0.0
  0
VERTEX
  5
4E1
  8
LAYER_1
 10
-176.4868721436106
 20
-44.80321470398437
 30
0.0
  0
VERTEX
  5
4E2
  8
LAYER_1
 10
-176.1860667626177
 20
-44.83760713453026
 30
0.0
  0
VERTEX
  5
4E3
  8
LAYER_1
 10
-175.8875642867986
 20
-44.8793843895468
 30
0.0
  0
VERTEX
  5
4E4
  8
LAYER_1
 10
-175.2978444901096
 20
-44.98471692312317
 30
0.0
  0
VERTEX
  5
4E5
  8
LAYER_1
 10
-174.7184656324105
 20
-45.11845940497636
 30
0.0
  0
VERTEX
  5
4E6
  8
LAYER_1
 10
-174.1501805925666
 20
-45.27985893536922
 30
0.0
  0
VERTEX
  5
4E7
  8
LAYER_1
 10
-173.5937422494426
 20
-45.46816261456462
 30
0.0
  0
VERTEX
  5
4E8
  8
LAYER_1
 10
-173.0499034819046
 20
-45.68261754282541
 30
0.0
  0
VERTEX
  5
4E9
  8
LAYER_1
 10
-172.5194171688186
 20
-45.9224708204145
 30
0.0
  0
VERTEX
  5
4EA
  8
LAYER_1
 10
-172.0030361890495
 20
-46.18696954759474
 30
0.0
  0
VERTEX
  5
4EB
  8
LAYER_1
 10
-171.5015134214626
 20
-46.47536082462901
 30
0.0
  0
VERTEX
  5
4EC
  8
LAYER_1
 10
-171.0156017449247
 20
-46.78689175178016
 30
0.0
  0
VERTEX
  5
4ED
  8
LAYER_1
 10
-170.5460540383006
 20
-47.12080942931107
 30
0.0
  0
VERTEX
  5
4EE
  8
LAYER_1
 10
-170.0936231804556
 20
-47.47636095748456
 30
0.0
  0
VERTEX
  5
4EF
  8
LAYER_1
 10
-169.6590620502555
 20
-47.85279343656356
 30
0.0
  0
VERTEX
  5
4F0
  8
LAYER_1
 10
-169.2431235265665
 20
-48.24935396681096
 30
0.0
  0
VERTEX
  5
4F1
  8
LAYER_1
 10
-168.8465604882536
 20
-48.66528964848946
 30
0.0
  0
VERTEX
  5
4F2
  8
LAYER_1
 10
-168.4701258141825
 20
-49.09984758186216
 30
0.0
  0
VERTEX
  5
4F3
  8
LAYER_1
 10
-168.1145723832186
 20
-49.55227486719185
 30
0.0
  0
VERTEX
  5
4F4
  8
LAYER_1
 10
-167.7806530742276
 20
-50.02181860474126
 30
0.0
  0
VERTEX
  5
4F5
  8
LAYER_1
 10
-167.4691207660756
 20
-50.50772589477346
 30
0.0
  0
VERTEX
  5
4F6
  8
LAYER_1
 10
-167.1807283376266
 20
-51.00924383755117
 30
0.0
  0
VERTEX
  5
4F7
  8
LAYER_1
 10
-166.9162286677477
 20
-51.52561953333736
 30
0.0
  0
VERTEX
  5
4F8
  8
LAYER_1
 10
-166.6763746353036
 20
-52.05610008239486
 30
0.0
  0
VERTEX
  5
4F9
  8
LAYER_1
 10
-166.4619191191605
 20
-52.59993258498646
 30
0.0
  0
VERTEX
  5
4FA
  8
LAYER_1
 10
-166.2736149981836
 20
-53.15636414137516
 30
0.0
  0
VERTEX
  5
4FB
  8
LAYER_1
 10
-166.1122151512396
 20
-53.72464185182376
 30
0.0
  0
VERTEX
  5
4FC
  8
LAYER_1
 10
-165.9784724571917
 20
-54.30401281659506
 30
0.0
  0
VERTEX
  5
4FD
  8
LAYER_1
 10
-165.9222078171495
 20
-54.59762298818396
 30
0.0
  0
VERTEX
  5
4FE
  8
LAYER_1
 10
-165.8731397949076
 20
-54.89372413595206
 30
0.0
  0
VERTEX
  5
4FF
  8
LAYER_1
 10
-165.8313625003216
 20
-55.19222214743236
 30
0.0
  0
VERTEX
  5
500
  8
LAYER_1
 10
-165.7969700432516
 20
-55.49302291015756
 30
0.0
  0
VERTEX
  5
501
  8
LAYER_1
 10
-165.7700565335556
 20
-55.79603231166067
 30
0.0
  0
VERTEX
  5
502
  8
LAYER_1
 10
-165.7507160810906
 20
-56.10115623947446
 30
0.0
  0
VERTEX
  5
503
  8
LAYER_1
 10
-165.7390427957155
 20
-56.40830058113175
 30
0.0
  0
VERTEX
  5
504
  8
LAYER_1
 10
-165.7351307872887
 20
-56.71737122416556
 30
0.0
  0
VERTEX
  5
505
  8
LAYER_1
 10
-165.7390427957155
 20
-57.02666623254196
 30
0.0
  0
VERTEX
  5
506
  8
LAYER_1
 10
-165.7507160810906
 20
-57.33402431330965
 30
0.0
  0
VERTEX
  5
507
  8
LAYER_1
 10
-165.7700565335556
 20
-57.63935158097966
 30
0.0
  0
VERTEX
  5
508
  8
LAYER_1
 10
-165.7969700432516
 20
-57.94255415006306
 30
0.0
  0
VERTEX
  5
509
  8
LAYER_1
 10
-165.8313625003216
 20
-58.24353813507086
 30
0.0
  0
VERTEX
  5
50A
  8
LAYER_1
 10
-165.8731397949076
 20
-58.54220965051417
 30
0.0
  0
VERTEX
  5
50B
  8
LAYER_1
 10
-165.9784724571917
 20
-59.13223973075146
 30
0.0
  0
VERTEX
  5
50C
  8
LAYER_1
 10
-166.1122151512396
 20
-59.71189330686346
 30
0.0
  0
VERTEX
  5
50D
  8
LAYER_1
 10
-166.2736149981836
 20
-60.28041929493857
 30
0.0
  0
VERTEX
  5
50E
  8
LAYER_1
 10
-166.4619191191605
 20
-60.83706661106537
 30
0.0
  0
VERTEX
  5
50F
  8
LAYER_1
 10
-166.6763746353036
 20
-61.38108417133226
 30
0.0
  0
VERTEX
  5
510
  8
LAYER_1
 10
-166.9162286677477
 20
-61.91172089182776
 30
0.0
  0
VERTEX
  5
511
  8
LAYER_1
 10
-167.1807283376266
 20
-62.42822568864027
 30
0.0
  0
VERTEX
  5
512
  8
LAYER_1
 10
-167.4691207660756
 20
-62.92984747785836
 30
0.0
  0
VERTEX
  5
513
  8
LAYER_1
 10
-167.7806530742276
 20
-63.41583517557036
 30
0.0
  0
VERTEX
  5
514
  8
LAYER_1
 10
-168.1145723832186
 20
-63.88543769786496
 30
0.0
  0
VERTEX
  5
515
  8
LAYER_1
 10
-168.4701258141825
 20
-64.33790396083046
 30
0.0
  0
VERTEX
  5
516
  8
LAYER_1
 10
-168.8465604882536
 20
-64.77248288055546
 30
0.0
  0
VERTEX
  5
517
  8
LAYER_1
 10
-169.2431235265665
 20
-65.18842337312836
 30
0.0
  0
VERTEX
  5
518
  8
LAYER_1
 10
-169.6590620502555
 20
-65.58497435463757
 30
0.0
  0
VERTEX
  5
519
  8
LAYER_1
 10
-170.0936231804556
 20
-65.96138474117176
 30
0.0
  0
VERTEX
  5
51A
  8
LAYER_1
 10
-170.5460540383006
 20
-66.31690344881916
 30
0.0
  0
VERTEX
  5
51B
  8
LAYER_1
 10
-171.0156017449247
 20
-66.65077939366846
 30
0.0
  0
VERTEX
  5
51C
  8
LAYER_1
 10
-171.5015134214626
 20
-66.96226149180796
 30
0.0
  0
VERTEX
  5
51D
  8
LAYER_1
 10
-172.0030361890495
 20
-67.25059865932636
 30
0.0
  0
VERTEX
  5
51E
  8
LAYER_1
 10
-172.5194171688186
 20
-67.51503981231185
 30
0.0
  0
VERTEX
  5
51F
  8
LAYER_1
 10
-173.0499034819046
 20
-67.75483386685316
 30
0.0
  0
VERTEX
  5
520
  8
LAYER_1
 10
-173.5937422494426
 20
-67.96922973903857
 30
0.0
  0
VERTEX
  5
521
  8
LAYER_1
 10
-174.1501805925666
 20
-68.15747634495676
 30
0.0
  0
VERTEX
  5
522
  8
LAYER_1
 10
-174.7184656324105
 20
-68.31882260069597
 30
0.0
  0
VERTEX
  5
523
  8
LAYER_1
 10
-175.2978444901096
 20
-68.45251742234485
 30
0.0
  0
VERTEX
  5
524
  8
LAYER_1
 10
-175.5914588260096
 20
-68.50876083166307
 30
0.0
  0
VERTEX
  5
525
  8
LAYER_1
 10
-175.8875642867986
 20
-68.55780972599186
 30
0.0
  0
VERTEX
  5
526
  8
LAYER_1
 10
-176.1860667626177
 20
-68.59957021984226
 30
0.0
  0
VERTEX
  5
527
  8
LAYER_1
 10
-176.4868721436106
 20
-68.63394842772536
 30
0.0
  0
VERTEX
  5
528
  8
LAYER_1
 10
-176.7898863199176
 20
-68.66085046415226
 30
0.0
  0
VERTEX
  5
529
  8
LAYER_1
 10
-177.0950151816806
 20
-68.68018244363397
 30
0.0
  0
VERTEX
  5
52A
  8
LAYER_1
 10
-177.4021646190427
 20
-68.69185048068147
 30
0.0
  0
SEQEND
  5
52B
  8
LAYER_1
  0
POLYLINE
  5
4F
  8
LAYER_1
 66
     1
 10
0.0
 20
0.0
 30
0.0
 70
     1
  0
VERTEX
  5
52C
  8
LAYER_1
 10
-147.4577311750936
 20
-20.90941180506888
 30
0.0
  0
VERTEX
  5
52D
  8
LAYER_1
 10
-148.1721267586886
 20
-20.91389741752094
 30
0.0
  0
VERTEX
  5
52E
  8
LAYER_1
 10
-148.8843526429866
 20
-20.92731836144888
 30
0.0
  0
VERTEX
  5
52F
  8
LAYER_1
 10
-149.5943545446486
 20
-20.9496207967103
 30
0.0
  0
VERTEX
  5
530
  8
LAYER_1
 10
-150.3020781803396
 20
-20.98075088316282
 30
0.0
  0
VERTEX
  5
531
  8
LAYER_1
 10
-151.0074692667226
 20
-21.02065478066407
 30
0.0
  0
VERTEX
  5
532
  8
LAYER_1
 10
-151.7104735204596
 20
-21.06927864907163
 30
0.0
  0
VERTEX
  5
533
  8
LAYER_1
 10
-152.4110366582146
 20
-21.12656864824313
 30
0.0
  0
VERTEX
  5
534
  8
LAYER_1
 10
-153.1091043966506
 20
-21.19247093803619
 30
0.0
  0
VERTEX
  5
535
  8
LAYER_1
 10
-153.8046224524306
 20
-21.26693167830842
 30
0.0
  0
VERTEX
  5
536
  8
LAYER_1
 10
-154.4975365422176
 20
-21.34989702891743
 30
0.0
  0
VERTEX
  5
537
  8
LAYER_1
 10
-155.1877923826746
 20
-21.44131314972085
 30
0.0
  0
VERTEX
  5
538
  8
LAYER_1
 10
-155.8753356904645
 20
-21.54112620057628
 30
0.0
  0
VERTEX
  5
539
  8
LAYER_1
 10
-156.5601121822515
 20
-21.64928234134133
 30
0.0
  0
VERTEX
  5
53A
  8
LAYER_1
 10
-157.2420675746985
 20
-21.76572773187364
 30
0.0
  0
VERTEX
  5
53B
  8
LAYER_1
 10
-157.9211475844675
 20
-21.8904085320308
 30
0.0
  0
VERTEX
  5
53C
  8
LAYER_1
 10
-158.5972979282215
 20
-22.02327090167041
 30
0.0
  0
VERTEX
  5
53D
  8
LAYER_1
 10
-159.2704643226255
 20
-22.16426100065011
 30
0.0
  0
VERTEX
  5
53E
  8
LAYER_1
 10
-159.9405924843416
 20
-22.31332498882753
 30
0.0
  0
VERTEX
  5
53F
  8
LAYER_1
 10
-160.6076281300316
 20
-22.47040902606025
 30
0.0
  0
VERTEX
  5
540
  8
LAYER_1
 10
-161.2715169763606
 20
-22.63545927220591
 30
0.0
  0
VERTEX
  5
541
  8
LAYER_1
 10
-161.9322047399915
 20
-22.80842188712211
 30
0.0
  0
VERTEX
  5
542
  8
LAYER_1
 10
-162.5896371375855
 20
-22.98924303066644
 30
0.0
  0
VERTEX
  5
543
  8
LAYER_1
 10
-163.2437598858076
 20
-23.17786886269654
 30
0.0
  0
VERTEX
  5
544
  8
LAYER_1
 10
-163.8945187013206
 20
-23.37424554307003
 30
0.0
  0
VERTEX
  5
545
  8
LAYER_1
 10
-164.5418593007876
 20
-23.57831923164451
 30
0.0
  0
VERTEX
  5
546
  8
LAYER_1
 10
-165.1857274008706
 20
-23.79003608827762
 30
0.0
  0
VERTEX
  5
547
  8
LAYER_1
 10
-165.8260687182336
 20
-24.00934227282696
 30
0.0
  0
VERTEX
  5
548
  8
LAYER_1
 10
-166.4628289695407
 20
-24.23618394515013
 30
0.0
  0
VERTEX
  5
549
  8
LAYER_1
 10
-167.0959538714527
 20
-24.47050726510476
 30
0.0
  0
VERTEX
  5
54A
  8
LAYER_1
 10
-167.7253891406347
 20
-24.71225839254845
 30
0.0
  0
VERTEX
  5
54B
  8
LAYER_1
 10
-168.3510804937496
 20
-24.96138348733884
 30
0.0
  0
VERTEX
  5
54C
  8
LAYER_1
 10
-168.9729736474586
 20
-25.21782870933352
 30
0.0
  0
VERTEX
  5
54D
  8
LAYER_1
 10
-169.5910143184277
 20
-25.48154021839011
 30
0.0
  0
VERTEX
  5
54E
  8
LAYER_1
 10
-170.2051482233176
 20
-25.75246417436622
 30
0.0
  0
VERTEX
  5
54F
  8
LAYER_1
 10
-170.8153210787926
 20
-26.03054673711949
 30
0.0
  0
VERTEX
  5
550
  8
LAYER_1
 10
-171.4214786015155
 20
-26.3157340665075
 30
0.0
  0
VERTEX
  5
551
  8
LAYER_1
 10
-172.0235665081496
 20
-26.60797232238788
 30
0.0
  0
VERTEX
  5
552
  8
LAYER_1
 10
-172.6215305153576
 20
-26.90720766461824
 30
0.0
  0
VERTEX
  5
553
  8
LAYER_1
 10
-173.2153163398037
 20
-27.2133862530562
 30
0.0
  0
VERTEX
  5
554
  8
LAYER_1
 10
-173.8048696981496
 20
-27.52645424755937
 30
0.0
  0
VERTEX
  5
555
  8
LAYER_1
 10
-174.3901363070586
 20
-27.84635780798537
 30
0.0
  0
VERTEX
  5
556
  8
LAYER_1
 10
-174.9710618831946
 20
-28.1730430941918
 30
0.0
  0
VERTEX
  5
557
  8
LAYER_1
 10
-175.5475921432206
 20
-28.50645626603628
 30
0.0
  0
VERTEX
  5
558
  8
LAYER_1
 10
-176.1196728037997
 20
-28.84654348337645
 30
0.0
  0
VERTEX
  5
559
  8
LAYER_1
 10
-176.6872495815936
 20
-29.19325090606989
 30
0.0
  0
VERTEX
  5
55A
  8
LAYER_1
 10
-177.2502681932677
 20
-29.54652469397425
 30
0.0
  0
VERTEX
  5
55B
  8
LAYER_1
 10
-177.8086743554825
 20
-29.90631100694711
 30
0.0
  0
VERTEX
  5
55C
  8
LAYER_1
 10
-178.3624137849036
 20
-30.27255600484607
 30
0.0
  0
VERTEX
  5
55D
  8
LAYER_1
 10
-178.9114321981936
 20
-30.64520584752877
 30
0.0
  0
VERTEX
  5
55E
  8
LAYER_1
 10
-179.4556753120146
 20
-31.02420669485285
 30
0.0
  0
VERTEX
  5
55F
  8
LAYER_1
 10
-179.9950888430297
 20
-31.40950470667589
 30
0.0
  0
VERTEX
  5
560
  8
LAYER_1
 10
-180.5296185079026
 20
-31.8010460428555
 30
0.0
  0
VERTEX
  5
561
  8
LAYER_1
 10
-181.0592100232967
 20
-32.19877686324932
 30
0.0
  0
VERTEX
  5
562
  8
LAYER_1
 10
-181.5838091058745
 20
-32.60264332771493
 30
0.0
  0
VERTEX
  5
563
  8
LAYER_1
 10
-182.1033614722997
 20
-33.01259159610998
 30
0.0
  0
VERTEX
  5
564
  8
LAYER_1
 10
-182.6178128392347
 20
-33.42856782829207
 30
0.0
  0
VERTEX
  5
565
  8
LAYER_1
 10
-183.1271089233435
 20
-33.85051818411881
 30
0.0
  0
VERTEX
  5
566
  8
LAYER_1
 10
-183.6311954412875
 20
-34.27838882344783
 30
0.0
  0
VERTEX
  5
567
  8
LAYER_1
 10
-184.1300181097316
 20
-34.71212590613672
 30
0.0
  0
VERTEX
  5
568
  8
LAYER_1
 10
-184.6235226453387
 20
-35.15167559204311
 30
0.0
  0
VERTEX
  5
569
  8
LAYER_1
 10
-185.1116547647717
 20
-35.5969840410246
 30
0.0
  0
VERTEX
  5
56A
  8
LAYER_1
 10
-185.5943601846926
 20
-36.04799741293881
 30
0.0
  0
VERTEX
  5
56B
  8
LAYER_1
 10
-186.0715846217666
 20
-36.50466186764336
 30
0.0
  0
VERTEX
  5
56C
  8
LAYER_1
 10
-186.5432737926547
 20
-36.96692356499588
 30
0.0
  0
VERTEX
  5
56D
  8
LAYER_1
 10
-187.0093734140206
 20
-37.43472866485396
 30
0.0
  0
VERTEX
  5
56E
  8
LAYER_1
 10
-187.4698292025276
 20
-37.90802332707523
 30
0.0
  0
VERTEX
  5
56F
  8
LAYER_1
 10
-187.9245868748406
 20
-38.38675371151729
 30
0.0
  0
VERTEX
  5
570
  8
LAYER_1
 10
-188.3735921476196
 20
-38.87086597803774
 30
0.0
  0
VERTEX
  5
571
  8
LAYER_1
 10
-188.8167907375296
 20
-39.36030628649422
 30
0.0
  0
VERTEX
  5
572
  8
LAYER_1
 10
-189.2541283612337
 20
-39.85502079674436
 30
0.0
  0
VERTEX
  5
573
  8
LAYER_1
 10
-189.6855507353947
 20
-40.35495566864574
 30
0.0
  0
VERTEX
  5
574
  8
LAYER_1
 10
-190.1110035766747
 20
-40.86005706205597
 30
0.0
  0
VERTEX
  5
575
  8
LAYER_1
 10
-190.5304326017377
 20
-41.37027113683268
 30
0.0
  0
VERTEX
  5
576
  8
LAYER_1
 10
-190.9437835272477
 20
-41.8855440528335
 30
0.0
  0
VERTEX
  5
577
  8
LAYER_1
 10
-191.3510020698666
 20
-42.40582196991603
 30
0.0
  0
VERTEX
  5
578
  8
LAYER_1
 10
-191.7520339462577
 20
-42.93105104793787
 30
0.0
  0
VERTEX
  5
579
  8
LAYER_1
 10
-192.1468248730847
 20
-43.46117744675666
 30
0.0
  0
VERTEX
  5
57A
  8
LAYER_1
 10
-192.5353205670097
 20
-43.99614732623002
 30
0.0
  0
VERTEX
  5
57B
  8
LAYER_1
 10
-192.9174667446967
 20
-44.53590684621551
 30
0.0
  0
VERTEX
  5
57C
  8
LAYER_1
 10
-193.2932091228086
 20
-45.08040216657081
 30
0.0
  0
VERTEX
  5
57D
  8
LAYER_1
 10
-193.6624934180075
 20
-45.62957944715349
 30
0.0
  0
VERTEX
  5
57E
  8
LAYER_1
 10
-194.0252653469586
 20
-46.18338484782119
 30
0.0
  0
VERTEX
  5
57F
  8
LAYER_1
 10
-194.3814706263236
 20
-46.74176452843146
 30
0.0
  0
VERTEX
  5
580
  8
LAYER_1
 10
-194.7310549727657
 20
-47.30466464884206
 30
0.0
  0
VERTEX
  5
581
  8
LAYER_1
 10
-195.0739641029466
 20
-47.87203136891046
 30
0.0
  0
VERTEX
  5
582
  8
LAYER_1
 10
-195.4101437335326
 20
-48.44381084849427
 30
0.0
  0
VERTEX
  5
583
  8
LAYER_1
 10
-195.7395395811855
 20
-49.01994924745127
 30
0.0
  0
VERTEX
  5
584
  8
LAYER_1
 10
-196.0620973625676
 20
-49.60039272563886
 30
0.0
  0
VERTEX
  5
585
  8
LAYER_1
 10
-196.3777627943417
 20
-50.18508744291476
 30
0.0
  0
VERTEX
  5
586
  8
LAYER_1
 10
-196.6864815931727
 20
-50.77397955913666
 30
0.0
  0
VERTEX
  5
587
  8
LAYER_1
 10
-196.9881994757216
 20
-51.36701523416207
 30
0.0
  0
VERTEX
  5
588
  8
LAYER_1
 10
-197.2828621586537
 20
-51.96414062784866
 30
0.0
  0
VERTEX
  5
589
  8
LAYER_1
 10
-197.5704153586306
 20
-52.56530190005397
 30
0.0
  0
VERTEX
  5
58A
  8
LAYER_1
 10
-197.8508047923156
 20
-53.17044521063566
 30
0.0
  0
VERTEX
  5
58B
  8
LAYER_1
 10
-198.1239761763716
 20
-53.77951671945137
 30
0.0
  0
VERTEX
  5
58C
  8
LAYER_1
 10
-198.3898752274636
 20
-54.39246258635866
 30
0.0
  0
VERTEX
  5
58D
  8
LAYER_1
 10
-198.6484476622516
 20
-55.00922897121517
 30
0.0
  0
VERTEX
  5
58E
  8
LAYER_1
 10
-198.8996391974015
 20
-55.62976203387856
 30
0.0
  0
VERTEX
  5
58F
  8
LAYER_1
 10
-199.1433955495757
 20
-56.25400793420636
 30
0.0
  0
VERTEX
  5
590
  8
LAYER_1
 10
-199.3796624354357
 20
-56.88191283205616
 30
0.0
  0
VERTEX
  5
591
  8
LAYER_1
 10
-199.6083855716466
 20
-57.51342288728576
 30
0.0
  0
VERTEX
  5
592
  8
LAYER_1
 10
-199.8295106748697
 20
-58.14848425975256
 30
0.0
  0
VERTEX
  5
593
  8
LAYER_1
 10
-200.0429834617706
 20
-58.78704310931437
 30
0.0
  0
VERTEX
  5
594
  8
LAYER_1
 10
-200.2487496490097
 20
-59.42904559582865
 30
0.0
  0
VERTEX
  5
595
  8
LAYER_1
 10
-200.4467549532515
 20
-60.07443787915307
 30
0.0
  0
VERTEX
  5
596
  8
LAYER_1
 10
-200.6369450911596
 20
-60.72316611914516
 30
0.0
  0
VERTEX
  5
597
  8
LAYER_1
 10
-200.8192657793955
 20
-61.37517647566276
 30
0.0
  0
VERTEX
  5
598
  8
LAYER_1
 10
-200.9936627346236
 20
-62.03041510856316
 30
0.0
  0
VERTEX
  5
599
  8
LAYER_1
 10
-201.1600816735077
 20
-62.68882817770427
 30
0.0
  0
VERTEX
  5
59A
  8
LAYER_1
 10
-201.3184683127086
 20
-63.35036184294356
 30
0.0
  0
VERTEX
  5
59B
  8
LAYER_1
 10
-201.4687683688906
 20
-64.01496226413876
 30
0.0
  0
VERTEX
  5
59C
  8
LAYER_1
 10
-201.6109275587176
 20
-64.68257560114726
 30
0.0
  0
VERTEX
  5
59D
  8
LAYER_1
 10
-201.7448915988526
 20
-65.35314801382687
 30
0.0
  0
VERTEX
  5
59E
  8
LAYER_1
 10
-201.8706062059567
 20
-66.02662566203516
 30
0.0
  0
VERTEX
  5
59F
  8
LAYER_1
 10
-201.9880170966956
 20
-66.70295470562966
 30
0.0
  0
VERTEX
  5
5A0
  8
LAYER_1
 10
-202.0970699877305
 20
-67.38208130446816
 30
0.0
  0
VERTEX
  5
5A1
  8
LAYER_1
 10
-202.1977105957256
 20
-68.06395161840805
 30
0.0
  0
VERTEX
  5
5A2
  8
LAYER_1
 10
-202.2898846373435
 20
-68.74851180730717
 30
0.0
  0
VERTEX
  5
5A3
  8
LAYER_1
 10
-202.3735378292477
 20
-69.43570803102295
 30
0.0
  0
VERTEX
  5
5A4
  8
LAYER_1
 10
-202.4486158881005
 20
-70.12548644941306
 30
0.0
  0
VERTEX
  5
5A5
  8
LAYER_1
 10
-202.5150645305656
 20
-70.81779322233515
 30
0.0
  0
VERTEX
  5
5A6
  8
LAYER_1
 10
-202.5728294733065
 20
-71.51257450964687
 30
0.0
  0
VERTEX
  5
5A7
  8
LAYER_1
 10
-202.6218564329865
 20
-72.20977647120574
 30
0.0
  0
VERTEX
  5
5A8
  8
LAYER_1
 10
-202.6620911262676
 20
-72.90934526686945
 30
0.0
  0
VERTEX
  5
5A9
  8
LAYER_1
 10
-202.6934792698135
 20
-73.61122705649555
 30
0.0
  0
VERTEX
  5
5AA
  8
LAYER_1
 10
-202.7159665802865
 20
-74.31536799994164
 30
0.0
  0
VERTEX
  5
5AB
  8
LAYER_1
 10
-202.7294987743514
 20
-75.02171425706545
 30
0.0
  0
VERTEX
  5
5AC
  8
LAYER_1
 10
-202.7340215686695
 20
-75.73021198772456
 30
0.0
  0
VERTEX
  5
5AD
  8
LAYER_1
 10
-92.19546112584905
 20
-75.73021198772456
 30
0.0
  0
VERTEX
  5
5AE
  8
LAYER_1
 10
-92.19998262955525
 20
-75.02171425706545
 30
0.0
  0
VERTEX
  5
5AF
  8
LAYER_1
 10
-92.21351096547957
 20
-74.31536799994164
 30
0.0
  0
VERTEX
  5
5B0
  8
LAYER_1
 10
-92.23599187083047
 20
-73.61122705649555
 30
0.0
  0
VERTEX
  5
5B1
  8
LAYER_1
 10
-92.26737108281665
 20
-72.90934526686945
 30
0.0
  0
VERTEX
  5
5B2
  8
LAYER_1
 10
-92.30759433864657
 20
-72.20977647120574
 30
0.0
  0
VERTEX
  5
5B3
  8
LAYER_1
 10
-92.3566073755288
 20
-71.51257450964687
 30
0.0
  0
VERTEX
  5
5B4
  8
LAYER_1
 10
-92.41435593067192
 20
-70.81779322233515
 30
0.0
  0
VERTEX
  5
5B5
  8
LAYER_1
 10
-92.48078574128428
 20
-70.12548644941306
 30
0.0
  0
VERTEX
  5
5B6
  8
LAYER_1
 10
-92.55584254457469
 20
-69.43570803102295
 30
0.0
  0
VERTEX
  5
5B7
  8
LAYER_1
 10
-92.6394720777516
 20
-68.74851180730717
 30
0.0
  0
VERTEX
  5
5B8
  8
LAYER_1
 10
-92.73162007802361
 20
-68.06395161840805
 30
0.0
  0
VERTEX
  5
5B9
  8
LAYER_1
 10
-92.83223228259928
 20
-67.38208130446816
 30
0.0
  0
VERTEX
  5
5BA
  8
LAYER_1
 10
-92.94125442868696
 20
-66.70295470562966
 30
0.0
  0
VERTEX
  5
5BB
  8
LAYER_1
 10
-93.05863225349546
 20
-66.02662566203516
 30
0.0
  0
VERTEX
  5
5BC
  8
LAYER_1
 10
-93.18431149423313
 20
-65.35314801382687
 30
0.0
  0
VERTEX
  5
5BD
  8
LAYER_1
 10
-93.31823788810868
 20
-64.68257560114726
 30
0.0
  0
VERTEX
  5
5BE
  8
LAYER_1
 10
-93.46035717233053
 20
-64.01496226413876
 30
0.0
  0
VERTEX
  5
5BF
  8
LAYER_1
 10
-93.6106150841074
 20
-63.35036184294356
 30
0.0
  0
VERTEX
  5
5C0
  8
LAYER_1
 10
-93.76895736064762
 20
-62.68882817770427
 30
0.0
  0
VERTEX
  5
5C1
  8
LAYER_1
 10
-93.9353297391599
 20
-62.03041510856316
 30
0.0
  0
VERTEX
  5
5C2
  8
LAYER_1
 10
-94.10967795685269
 20
-61.37517647566276
 30
0.0
  0
VERTEX
  5
5C3
  8
LAYER_1
 10
-94.29194775093458
 20
-60.72316611914516
 30
0.0
  0
VERTEX
  5
5C4
  8
LAYER_1
 10
-94.48208485861414
 20
-60.07443787915307
 30
0.0
  0
VERTEX
  5
5C5
  8
LAYER_1
 10
-94.68003501709995
 20
-59.42904559582865
 30
0.0
  0
VERTEX
  5
5C6
  8
LAYER_1
 10
-94.88574396360048
 20
-58.78704310931437
 30
0.0
  0
VERTEX
  5
5C7
  8
LAYER_1
 10
-95.0991574353244
 20
-58.14848425975256
 30
0.0
  0
VERTEX
  5
5C8
  8
LAYER_1
 10
-95.32022116948019
 20
-57.51342288728576
 30
0.0
  0
VERTEX
  5
5C9
  8
LAYER_1
 10
-95.54888090327631
 20
-56.88191283205616
 30
0.0
  0
VERTEX
  5
5CA
  8
LAYER_1
 10
-95.78508237392145
 20
-56.25400793420636
 30
0.0
  0
VERTEX
  5
5CB
  8
LAYER_1
 10
-96.02877131862408
 20
-55.62976203387856
 30
0.0
  0
VERTEX
  5
5CC
  8
LAYER_1
 10
-96.27989347459277
 20
-55.00922897121517
 30
0.0
  0
VERTEX
  5
5CD
  8
LAYER_1
 10
-96.5383945790361
 20
-54.39246258635866
 30
0.0
  0
VERTEX
  5
5CE
  8
LAYER_1
 10
-96.80422036916252
 20
-53.77951671945137
 30
0.0
  0
VERTEX
  5
5CF
  8
LAYER_1
 10
-97.07731658218074
 20
-53.17044521063566
 30
0.0
  0
VERTEX
  5
5D0
  8
LAYER_1
 10
-97.3576289552991
 20
-52.56530190005397
 30
0.0
  0
VERTEX
  5
5D1
  8
LAYER_1
 10
-97.64510322572653
 20
-51.96414062784866
 30
0.0
  0
VERTEX
  5
5D2
  8
LAYER_1
 10
-97.93968513067128
 20
-51.36701523416207
 30
0.0
  0
VERTEX
  5
5D3
  8
LAYER_1
 10
-98.24132040734176
 20
-50.77397955913666
 30
0.0
  0
VERTEX
  5
5D4
  8
LAYER_1
 10
-98.54995479294669
 20
-50.18508744291476
 30
0.0
  0
VERTEX
  5
5D5
  8
LAYER_1
 10
-98.86553402469477
 20
-49.60039272563886
 30
0.0
  0
VERTEX
  5
5D6
  8
LAYER_1
 10
-99.18800383979445
 20
-49.01994924745127
 30
0.0
  0
VERTEX
  5
5D7
  8
LAYER_1
 10
-99.51730997545408
 20
-48.44381084849427
 30
0.0
  0
VERTEX
  5
5D8
  8
LAYER_1
 10
-99.85339816888248
 20
-47.87203136891046
 30
0.0
  0
VERTEX
  5
5D9
  8
LAYER_1
 10
-100.1962141572881
 20
-47.30466464884206
 30
0.0
  0
VERTEX
  5
5DA
  8
LAYER_1
 10
-100.5457036778796
 20
-46.74176452843146
 30
0.0
  0
VERTEX
  5
5DB
  8
LAYER_1
 10
-100.9018124678653
 20
-46.18338484782119
 30
0.0
  0
VERTEX
  5
5DC
  8
LAYER_1
 10
-101.2644862644538
 20
-45.62957944715349
 30
0.0
  0
VERTEX
  5
5DD
  8
LAYER_1
 10
-101.633670804854
 20
-45.08040216657081
 30
0.0
  0
VERTEX
  5
5DE
  8
LAYER_1
 10
-102.0093118262741
 20
-44.53590684621551
 30
0.0
  0
VERTEX
  5
5DF
  8
LAYER_1
 10
-102.3913550659226
 20
-43.99614732623002
 30
0.0
  0
VERTEX
  5
5E0
  8
LAYER_1
 10
-102.7797462610081
 20
-43.46117744675666
 30
0.0
  0
VERTEX
  5
5E1
  8
LAYER_1
 10
-103.1744311487394
 20
-42.93105104793787
 30
0.0
  0
VERTEX
  5
5E2
  8
LAYER_1
 10
-103.5753554663249
 20
-42.40582196991603
 30
0.0
  0
VERTEX
  5
5E3
  8
LAYER_1
 10
-103.9824649509729
 20
-41.8855440528335
 30
0.0
  0
VERTEX
  5
5E4
  8
LAYER_1
 10
-104.3957053398923
 20
-41.37027113683268
 30
0.0
  0
VERTEX
  5
5E5
  8
LAYER_1
 10
-104.8150223702915
 20
-40.86005706205597
 30
0.0
  0
VERTEX
  5
5E6
  8
LAYER_1
 10
-105.2403617793792
 20
-40.35495566864574
 30
0.0
  0
VERTEX
  5
5E7
  8
LAYER_1
 10
-105.6716693043637
 20
-39.85502079674436
 30
0.0
  0
VERTEX
  5
5E8
  8
LAYER_1
 10
-106.1088906824537
 20
-39.36030628649422
 30
0.0
  0
VERTEX
  5
5E9
  8
LAYER_1
 10
-106.5519716508578
 20
-38.87086597803774
 30
0.0
  0
VERTEX
  5
5EA
  8
LAYER_1
 10
-107.0008579467843
 20
-38.38675371151729
 30
0.0
  0
VERTEX
  5
5EB
  8
LAYER_1
 10
-107.4554953074419
 20
-37.90802332707523
 30
0.0
  0
VERTEX
  5
5EC
  8
LAYER_1
 10
-107.9158294700395
 20
-37.43472866485396
 30
0.0
  0
VERTEX
  5
5ED
  8
LAYER_1
 10
-108.3818061717851
 20
-36.96692356499588
 30
0.0
  0
VERTEX
  5
5EE
  8
LAYER_1
 10
-108.8533711498874
 20
-36.50466186764336
 30
0.0
  0
VERTEX
  5
5EF
  8
LAYER_1
 10
-109.3304701415553
 20
-36.04799741293881
 30
0.0
  0
VERTEX
  5
5F0
  8
LAYER_1
 10
-109.8130488839968
 20
-35.5969840410246
 30
0.0
  0
VERTEX
  5
5F1
  8
LAYER_1
 10
-110.3010531144209
 20
-35.15167559204311
 30
0.0
  0
VERTEX
  5
5F2
  8
LAYER_1
 10
-110.7944285700359
 20
-34.71212590613672
 30
0.0
  0
VERTEX
  5
5F3
  8
LAYER_1
 10
-111.2931209880505
 20
-34.27838882344783
 30
0.0
  0
VERTEX
  5
5F4
  8
LAYER_1
 10
-111.7970761056732
 20
-33.85051818411881
 30
0.0
  0
VERTEX
  5
5F5
  8
LAYER_1
 10
-112.3062396601125
 20
-33.42856782829207
 30
0.0
  0
VERTEX
  5
5F6
  8
LAYER_1
 10
-112.8205573885769
 20
-33.01259159610998
 30
0.0
  0
VERTEX
  5
5F7
  8
LAYER_1
 10
-113.3399750282752
 20
-32.60264332771493
 30
0.0
  0
VERTEX
  5
5F8
  8
LAYER_1
 10
-113.8644383164157
 20
-32.19877686324932
 30
0.0
  0
VERTEX
  5
5F9
  8
LAYER_1
 10
-114.393892990207
 20
-31.8010460428555
 30
0.0
  0
VERTEX
  5
5FA
  8
LAYER_1
 10
-114.9282847868578
 20
-31.40950470667589
 30
0.0
  0
VERTEX
  5
5FB
  8
LAYER_1
 10
-115.4675594435765
 20
-31.02420669485285
 30
0.0
  0
VERTEX
  5
5FC
  8
LAYER_1
 10
-116.0116626975717
 20
-30.64520584752877
 30
0.0
  0
VERTEX
  5
5FD
  8
LAYER_1
 10
-116.5605402860519
 20
-30.27255600484607
 30
0.0
  0
VERTEX
  5
5FE
  8
LAYER_1
 10
-117.1141379462256
 20
-29.90631100694711
 30
0.0
  0
VERTEX
  5
5FF
  8
LAYER_1
 10
-117.6724014153016
 20
-29.54652469397425
 30
0.0
  0
VERTEX
  5
600
  8
LAYER_1
 10
-118.2352764304882
 20
-29.19325090606989
 30
0.0
  0
VERTEX
  5
601
  8
LAYER_1
 10
-118.8027087289941
 20
-28.84654348337645
 30
0.0
  0
VERTEX
  5
602
  8
LAYER_1
 10
-119.3746440480277
 20
-28.50645626603628
 30
0.0
  0
VERTEX
  5
603
  8
LAYER_1
 10
-119.9510281247976
 20
-28.1730430941918
 30
0.0
  0
VERTEX
  5
604
  8
LAYER_1
 10
-120.5318066965124
 20
-27.84635780798537
 30
0.0
  0
VERTEX
  5
605
  8
LAYER_1
 10
-121.1169255003808
 20
-27.52645424755937
 30
0.0
  0
VERTEX
  5
606
  8
LAYER_1
 10
-121.7063302736111
 20
-27.2133862530562
 30
0.0
  0
VERTEX
  5
607
  8
LAYER_1
 10
-122.299966753412
 20
-26.90720766461824
 30
0.0
  0
VERTEX
  5
608
  8
LAYER_1
 10
-122.897780676992
 20
-26.60797232238788
 30
0.0
  0
VERTEX
  5
609
  8
LAYER_1
 10
-123.4997177815595
 20
-26.3157340665075
 30
0.0
  0
VERTEX
  5
60A
  8
LAYER_1
 10
-124.1057238043232
 20
-26.03054673711949
 30
0.0
  0
VERTEX
  5
60B
  8
LAYER_1
 10
-124.7157444824917
 20
-25.75246417436622
 30
0.0
  0
VERTEX
  5
60C
  8
LAYER_1
 10
-125.3297255532735
 20
-25.48154021839011
 30
0.0
  0
VERTEX
  5
60D
  8
LAYER_1
 10
-125.9476127538772
 20
-25.21782870933352
 30
0.0
  0
VERTEX
  5
60E
  8
LAYER_1
 10
-126.5693518215112
 20
-24.96138348733884
 30
0.0
  0
VERTEX
  5
60F
  8
LAYER_1
 10
-127.1948884933842
 20
-24.71225839254845
 30
0.0
  0
VERTEX
  5
610
  8
LAYER_1
 10
-127.8241685067047
 20
-24.47050726510476
 30
0.0
  0
VERTEX
  5
611
  8
LAYER_1
 10
-128.4571375986812
 20
-24.23618394515013
 30
0.0
  0
VERTEX
  5
612
  8
LAYER_1
 10
-129.0937415065222
 20
-24.00934227282696
 30
0.0
  0
VERTEX
  5
613
  8
LAYER_1
 10
-129.7339259674366
 20
-23.79003608827762
 30
0.0
  0
VERTEX
  5
614
  8
LAYER_1
 10
-130.3776367186327
 20
-23.57831923164451
 30
0.0
  0
VERTEX
  5
615
  8
LAYER_1
 10
-131.0248194973188
 20
-23.37424554307003
 30
0.0
  0
VERTEX
  5
616
  8
LAYER_1
 10
-131.6754200407036
 20
-23.17786886269654
 30
0.0
  0
VERTEX
  5
617
  8
LAYER_1
 10
-132.3293840859967
 20
-22.98924303066644
 30
0.0
  0
VERTEX
  5
618
  8
LAYER_1
 10
-132.9866573704047
 20
-22.80842188712211
 30
0.0
  0
VERTEX
  5
619
  8
LAYER_1
 10
-133.6471856311376
 20
-22.63545927220591
 30
0.0
  0
VERTEX
  5
61A
  8
LAYER_1
 10
-134.3109146054026
 20
-22.47040902606025
 30
0.0
  0
VERTEX
  5
61B
  8
LAYER_1
 10
-134.9777900304106
 20
-22.31332498882753
 30
0.0
  0
VERTEX
  5
61C
  8
LAYER_1
 10
-135.6477576433676
 20
-22.16426100065011
 30
0.0
  0
VERTEX
  5
61D
  8
LAYER_1
 10
-136.3207631814836
 20
-22.02327090167041
 30
0.0
  0
VERTEX
  5
61E
  8
LAYER_1
 10
-136.9967523819666
 20
-21.8904085320308
 30
0.0
  0
VERTEX
  5
61F
  8
LAYER_1
 10
-137.6756709820256
 20
-21.76572773187364
 30
0.0
  0
VERTEX
  5
620
  8
LAYER_1
 10
-138.3574647188696
 20
-21.64928234134133
 30
0.0
  0
VERTEX
  5
621
  8
LAYER_1
 10
-139.0420793297056
 20
-21.54112620057628
 30
0.0
  0
VERTEX
  5
622
  8
LAYER_1
 10
-139.7294605517426
 20
-21.44131314972085
 30
0.0
  0
VERTEX
  5
623
  8
LAYER_1
 10
-140.4195541221906
 20
-21.34989702891743
 30
0.0
  0
VERTEX
  5
624
  8
LAYER_1
 10
-141.1123057782566
 20
-21.26693167830842
 30
0.0
  0
VERTEX
  5
625
  8
LAYER_1
 10
-141.8076612571496
 20
-21.19247093803619
 30
0.0
  0
VERTEX
  5
626
  8
LAYER_1
 10
-142.5055662960776
 20
-21.12656864824313
 30
0.0
  0
VERTEX
  5
627
  8
LAYER_1
 10
-143.2059666322506
 20
-21.06927864907163
 30
0.0
  0
VERTEX
  5
628
  8
LAYER_1
 10
-143.9088080028766
 20
-21.02065478066407
 30
0.0
  0
VERTEX
  5
629
  8
LAYER_1
 10
-144.6140361451626
 20
-20.98075088316282
 30
0.0
  0
VERTEX
  5
62A
  8
LAYER_1
 10
-145.3215967963196
 20
-20.9496207967103
 30
0.0
  0
VERTEX
  5
62B
  8
LAYER_1
 10
-146.0314356935546
 20
-20.92731836144888
 30
0.0
  0
VERTEX
  5
62C
  8
LAYER_1
 10
-146.7434985740766
 20
-20.91389741752094
 30
0.0
  0
SEQEND
  5
62D
  8
LAYER_1
  0
POLYLINE
  5
50
  8
LAYER_1
 66
     1
 10
0.0
 20
0.0
 30
0.0
 70
     1
  0
VERTEX
  5
62E
  8
LAYER_1
 10
-143.1890492660027
 20
-153.4485141922323
 30
0.0
  0
VERTEX
  5
62F
  8
LAYER_1
 10
-152.3207388999346
 20
-153.4485141922323
 30
0.0
  0
VERTEX
  5
630
  8
LAYER_1
 10
-162.0237290686835
 20
-120.9103726386113
 30
0.0
  0
VERTEX
  5
631
  8
LAYER_1
 10
-162.1508240599686
 20
-120.9103726386113
 30
0.0
  0
VERTEX
  5
632
  8
LAYER_1
 10
-162.1508240599686
 20
-153.4485141922323
 30
0.0
  0
VERTEX
  5
633
  8
LAYER_1
 10
-171.4121163890507
 20
-153.4485141922323
 30
0.0
  0
VERTEX
  5
634
  8
LAYER_1
 10
-171.4121163890507
 20
-106.5109090788936
 30
0.0
  0
VERTEX
  5
635
  8
LAYER_1
 10
-157.7711192616296
 20
-106.5109090788936
 30
0.0
  0
VERTEX
  5
636
  8
LAYER_1
 10
-147.3051031990126
 20
-141.0146345156724
 30
0.0
  0
VERTEX
  5
637
  8
LAYER_1
 10
-147.1801739519736
 20
-141.0146345156724
 30
0.0
  0
VERTEX
  5
638
  8
LAYER_1
 10
-137.4078799673486
 20
-106.5109090788936
 30
0.0
  0
VERTEX
  5
639
  8
LAYER_1
 10
-123.4593471569802
 20
-106.5109090788936
 30
0.0
  0
VERTEX
  5
63A
  8
LAYER_1
 10
-123.4593471569802
 20
-153.4485141922323
 30
0.0
  0
VERTEX
  5
63B
  8
LAYER_1
 10
-133.4166412948386
 20
-153.4485141922323
 30
0.0
  0
VERTEX
  5
63C
  8
LAYER_1
 10
-133.4166412948386
 20
-121.4168148325842
 30
0.0
  0
VERTEX
  5
63D
  8
LAYER_1
 10
-133.5415705418777
 20
-121.4168148325842
 30
0.0
  0
SEQEND
  5
63E
  8
LAYER_1
  0
ENDSEC
  0
EOF
